<svg xmlns="http://www.w3.org/2000/svg" xmlns:xlink="http://www.w3.org/1999/xlink" width="47.69" height="42.696" viewBox="0 0 47.69 42.696">
  <defs>
    <filter id="twitter" x="0" y="0" width="47.69" height="42.696" filterUnits="userSpaceOnUse">
      <feOffset dy="3" input="SourceAlpha"/>
      <feGaussianBlur stdDeviation="3" result="blur"/>
      <feFlood flood-opacity="0.161"/>
      <feComposite operator="in" in2="blur"/>
      <feComposite in="SourceGraphic"/>
    </filter>
  </defs>
  <g transform="matrix(1, 0, 0, 1, 0, 0)" filter="url(#twitter)">
    <path id="twitter-2" data-name="twitter" d="M29.218,37.364a11.757,11.757,0,0,1-2.047.69,6.383,6.383,0,0,0,1.685-2.683h0a.335.335,0,0,0-.49-.39h0a11.812,11.812,0,0,1-3.13,1.293.8.8,0,0,1-.2.024.83.83,0,0,1-.548-.209,6.4,6.4,0,0,0-4.235-1.6,6.844,6.844,0,0,0-2.028.313,6.2,6.2,0,0,0-4.179,4.468,6.828,6.828,0,0,0-.152,2.357.229.229,0,0,1-.058.18.237.237,0,0,1-.177.08h-.023A16.784,16.784,0,0,1,2.106,35.725h0a.335.335,0,0,0-.549.043h0A6.408,6.408,0,0,0,2.6,43.548a5.736,5.736,0,0,1-1.46-.565h0a.335.335,0,0,0-.5.288h0a6.409,6.409,0,0,0,3.738,5.9l-.137,0a5.759,5.759,0,0,1-1.078-.1h0a.335.335,0,0,0-.382.431h0a6.415,6.415,0,0,0,5.067,4.363,11.811,11.811,0,0,1-6.615,2.009H.5a.49.49,0,0,0-.479.37.507.507,0,0,0,.243.56,17.568,17.568,0,0,0,8.828,2.38,17.809,17.809,0,0,0,7.544-1.6,16.659,16.659,0,0,0,5.52-4.136,18.134,18.134,0,0,0,3.38-5.661,17.882,17.882,0,0,0,1.149-6.2v-.1a1.089,1.089,0,0,1,.408-.848,12.651,12.651,0,0,0,2.545-2.793h0a.335.335,0,0,0-.414-.492Z" transform="translate(9 -28.49)" fill="#0053ff"/>
  </g>
</svg>
