<svg xmlns="http://www.w3.org/2000/svg" xmlns:xlink="http://www.w3.org/1999/xlink" width="780.661" height="543.69" viewBox="0 0 780.661 543.69">
  <defs>
    <linearGradient id="linear-gradient" x1="0.5" y1="1" x2="0.5" gradientUnits="objectBoundingBox">
      <stop offset="0" stop-color="gray" stop-opacity="0.251"/>
      <stop offset="0.54" stop-color="gray" stop-opacity="0.122"/>
      <stop offset="1" stop-color="gray" stop-opacity="0.102"/>
    </linearGradient>
    <linearGradient id="linear-gradient-2" x1="0.495" y1="1.014" x2="0.495" y2="0" xlink:href="#linear-gradient"/>
    <linearGradient id="linear-gradient-3" x1="0.5" y1="1" x2="0.5" y2="0" xlink:href="#linear-gradient"/>
    <linearGradient id="linear-gradient-4" x1="0.5" y1="1" x2="0.5" y2="0" xlink:href="#linear-gradient"/>
  </defs>
  <g id="undraw_celebration_0jvk" transform="translate(0.02 -0.02)">
    <circle id="Ellipse_77" data-name="Ellipse 77" cx="38.21" cy="38.21" r="38.21" transform="translate(39.974 16.064)" fill="#0053ff"/>
    <path id="Path_359" data-name="Path 359" d="M204.429,251.3c16.044,36.238-4.422,77.966-28.512,109.387-8.063,10.537-16.964,21.583-18.082,34.8-1.348,16.167,9.6,31.027,22.586,40.742a95.1,95.1,0,0,0,84.229,14.244c24.361-7.718,44.843-25.15,69.418-32.178,41.1-11.77,84.656,7.742,119.85,32.054,24.912,17.186,51.591,38.128,81.623,34.446,21.131-2.589,39.065-17.424,51.238-34.89,5.877-8.433,10.989-17.885,19.545-23.572,5.088-3.386,11.063-5.178,17.038-6.46,54.566-11.663,112.478,16.8,166.321,2.162,36.369-9.863,65.366-38.63,83.4-71.728s26.449-70.47,33.46-107.5c4.981-26.3,9.115-54.714-2.334-78.9-12.115-25.611-40.158-41.136-68.341-44.046s-56.448,5.12-82.412,16.446c-32.441,14.186-64.24,34.043-99.648,34.109-24.115.049-47.112-9.205-70.166-16.266-38.547-11.794-78.632-17.655-118.576-23.063-38.243-5.178-76.865-9.994-115.338-6.937-27.221,2.162-51.262,12.567-77.678,17.383-17.219,3.14-34.52.822-51.418,6.082-20.811,6.509-42.213,21.591-43.364,45.344C176.181,215.571,195.923,232.075,204.429,251.3Z" transform="translate(-130.914 -119.24)" fill="#0053ff" opacity="0.1"/>
    <path id="Path_360" data-name="Path 360" d="M676.528,306.669c-3.51-9.148-12.559-30.649-18.518-26.383-7.529,5.392,7.529,29.211,7.529,29.211.427,4.373-8.038,13.471-12.575,18.008v-.567a1.974,1.974,0,0,1-.2.493l-.378-.205a2.464,2.464,0,0,1-.534.978,9.608,9.608,0,0,0-.041-.978c-.871,3.69-16.076,8.367-16.076,8.367h-1.118c-4.225,0-15.222-.953-20.317-9.107a45.089,45.089,0,0,0-9.97-11.63,8.49,8.49,0,0,0-4.726-1.792c-14.079-.9-25.479-8.03-27.756-9.551l-.419-.288-.09.263c-.534-.764-1.052-1.578-1.537-2.416h0l-.247-.452a20.646,20.646,0,0,0,11.383-18.361v-.427a14.062,14.062,0,0,0,1.89-7.044v-2.466l3.214-2.86a13.216,13.216,0,0,0,3.74-4.488,5.319,5.319,0,0,0,.394-2.3,3.986,3.986,0,0,0-1.512-3.567c-2.466-1.7-6.575,0-8.359-2.367-.822-1.068-.674-2.523-1.077-3.781-.822-2.556-3.781-3.937-6.518-3.978s-5.359.953-7.989,1.7a46.907,46.907,0,0,1-17.013,1.595,11.111,11.111,0,0,0-4.66.164,6.419,6.419,0,0,0-3.781,4.4,10.338,10.338,0,0,0-.362,2.252,14.17,14.17,0,0,0-3.567,9.378v6.32a14.162,14.162,0,0,0,3.411,9.2,20.548,20.548,0,0,0,8.605,14.992v.5l.107.066a34,34,0,0,1-.9,5.811v-.419s-11.507,6.123-23.835,6.271h-1.356a9.181,9.181,0,0,0-6.575,2.466c-3.649,3.436-10.044,8.868-13.972,8.868-.822,0-21.567,4.052-25,4.726l-6.419-6.288-.2.37-.378-.37a15.611,15.611,0,0,0-2.088.3c-3.288-3.9-9.863-12.953-11.383-25.109,0,0,14.194-16.167,8.975-31.232-4.455-12.838-16.726,14.679-20.211,22.972a6.625,6.625,0,0,0-.214,4.562l11.531,37.166a17.433,17.433,0,0,0-.912,9.041h-.132l8.4,10.775s6.32,2.7,16.208,2.647a56.663,56.663,0,0,0,21.156-4.06H502.1l-.37.14h10l6.362,19.241c-.214,1.751-3.288,26.186-5.753,31.652a13.732,13.732,0,0,0-.97,5.753,43.92,43.92,0,0,0,1.833,11.137l5.573-.205-.214.436c-4.718,9.674-12.6,26.909-17.26,43.018l-8.112,16.438,6.082,73.725h.247l.468.074h0c.658.1,1.644.247,2.943.411l-.477.822-13.405,22.192s-9.559,19.57,11.589,15.879c0,0,7.816-2.268,11.005-15.616L525.552,560.1s.649-8.663-3.288-12.123c-.247-4-.871-15.69.09-18.5,1.159-3.4-4.931-42.534-4.931-42.534s22.011-45.657,35.342-46.791a7.308,7.308,0,0,1,2.885.378c10.956,3.567,24.23,30.057,28.134,38.3h0l.181.378v.074l.148.321v.09l.131.279v.074l.115.255v.058l.1.205v.082l.074.156v.066l.049.115v.14h0l.041.1,1.734,51.328h0l.173.09h.082l-.148,1.06-.756,5.3s9.559,20.137,8.975,22.685,6.37,12.764,16.216,9.929,3.986-18.822,3.986-18.822L605.4,533.244l-.419-.871a18.645,18.645,0,0,0,2.663-1.981s-2.893-20.983,0-25.52,3.764-25.241,3.764-25.241-2.03-14.178-5.507-20.416l-14.564-51.985c4.364,4.06,7.759,5.646,10.594,5.54h.469a7.077,7.077,0,0,0,3.567-.888,10.056,10.056,0,0,0,1.644-1.159,2.6,2.6,0,0,0,.271-.271h0c4.052-3.4-4.636-16.734-9.559-24.657-4.742-7.644,1.792-28.413,2.285-29.958a7.836,7.836,0,0,1,1.406-.822,8.67,8.67,0,0,1,3.222-.7c4.718.164,10.52,2.877,17.7,4.241a83.529,83.529,0,0,0,15.115,1.175h.3c2.014,0,3.838-.041,5.318-.1a8.984,8.984,0,0,0,3.863-1.044h0a11.663,11.663,0,0,0,2.745-2.219l12.608-14.244-.329.156a7.085,7.085,0,0,0,0-5.014l13.323-23.013a8.753,8.753,0,0,0,.649-7.586Z" transform="translate(-181.826 -142.342)" fill="url(#linear-gradient)"/>
    <path id="Path_361" data-name="Path 361" d="M536.795,622.185l-13.422,12.863c-3.074,13.151-10.627,15.378-10.627,15.378-20.408,3.633-11.186-15.616-11.186-15.616l12.945-21.9,1.594-2.7s9.23-2.794,15.378-1.118a5.259,5.259,0,0,1,2.1,1.134C537.428,613.563,536.795,622.185,536.795,622.185Z" transform="translate(-191.779 -206.38)" fill="#444176"/>
    <path id="Path_362" data-name="Path 362" d="M640.3,629.947c-9.509,2.794-16.216-7.266-15.616-9.789S616,597.818,616,597.818l.723-5.227.674-4.841,15.616,1.118,1.471,3.09,9.156,19.274S649.813,627.152,640.3,629.947Z" transform="translate(-212.531 -202.676)" fill="#444176"/>
    <path id="Path_363" data-name="Path 363" d="M536.978,612.4c-1.471,2.523-13.4,1.249-19.208.46l1.594-2.7s9.23-2.794,15.378-1.118a5.261,5.261,0,0,1,2.1,1.134C536.92,611.533,536.978,612.4,536.978,612.4Z" transform="translate(-195.036 -206.371)" opacity="0.1"/>
    <path id="Path_364" data-name="Path 364" d="M634.654,591.938c-8,5.326-16.512,1.3-17.794.633l.674-4.841,15.616,1.118Z" transform="translate(-212.684 -202.672)" opacity="0.1"/>
    <path id="Path_365" data-name="Path 365" d="M617.228,535.364c-2.794,4.471,0,25.167,0,25.167-9.23,8.392-20.128,2.236-20.128,2.236l-1.644-50.6s-18.172-41.662-31.035-40.545-34.109,46.134-34.109,46.134,5.868,38.58,4.751,41.917,0,19.57,0,19.57c-1.956,3.353-22.364,0-22.364,0l-5.868-72.7,7.792-16.224c4.479-15.879,12.09-32.876,16.644-42.41,2.26-4.742,3.773-7.635,3.773-7.635l14.876-3.1L598.2,427.16l17.35,63.155c3.353,6.148,5.31,20.128,5.31,20.128S620.023,530.893,617.228,535.364Z" transform="translate(-193.088 -174.075)" fill="#3f3d56"/>
    <g id="Group_39" data-name="Group 39" transform="translate(313.709 253.052)" opacity="0.1">
      <path id="Path_366" data-name="Path 366" d="M614.654,572.395l-1.644-50.6s-18.172-41.662-31.035-40.545a7.009,7.009,0,0,0-1.685.378c12.542,4.167,28.249,40.167,28.249,40.167l1.644,50.6a19.725,19.725,0,0,0,11.12,2.03,19.782,19.782,0,0,1-6.649-2.03Z" transform="translate(-519.88 -436.756)"/>
      <path id="Path_367" data-name="Path 367" d="M517.13,579.255l-5.868-72.7,7.825-16.249c4.479-15.879,12.09-32.876,16.644-42.41,2.26-4.742,3.773-7.636,3.773-7.636l14.876-3.1L598.457,428l-.238-.879-48.312,10.044-14.876,3.1s-1.512,2.893-3.773,7.636c-4.57,9.534-12.164,26.564-16.644,42.41l-7.825,16.216,5.868,72.7s11.145,1.833,17.753,1.43A132.066,132.066,0,0,1,517.13,579.255Z" transform="translate(-506.79 -427.12)"/>
    </g>
    <path id="Path_368" data-name="Path 368" d="M474.985,338.21s-15.937.822-13.7,17.613l4.471.559,6.707-7.266,3.353-6.148v-1.4Z" transform="translate(-184.938 -158.234)" fill="#ced2df"/>
    <path id="Path_369" data-name="Path 369" d="M474.985,338.21s-15.937.822-13.7,17.613l4.471.559,6.707-7.266,3.353-6.148v-1.4Z" transform="translate(-184.938 -158.234)" opacity="0.1"/>
    <path id="Path_370" data-name="Path 370" d="M693.534,345.69s13.15,6.986,9.789,15.1l-4.192,1.644-5.589-3.074-.822-7.266.559-5.03Z" transform="translate(-226.194 -159.566)" fill="#ced2df"/>
    <path id="Path_371" data-name="Path 371" d="M693.534,345.69s13.15,6.986,9.789,15.1l-4.192,1.644-5.589-3.074-.822-7.266.559-5.03Z" transform="translate(-226.194 -159.566)" opacity="0.1"/>
    <rect id="Rectangle_88" data-name="Rectangle 88" width="45.854" height="34.668" rx="17.334" transform="translate(354.385 113.985)" fill="#88455e"/>
    <path id="Path_372" data-name="Path 372" d="M472.625,327.891l-9.789,15.616-.822-2.778-13.3-43.331a6.665,6.665,0,0,1,.206-4.5c3.362-8.17,15.213-35.342,19.512-22.643,5.03,14.794-8.671,30.756-8.671,30.756,1.562,12.953,8.836,22.339,11.7,25.594C472.181,327.456,472.625,327.891,472.625,327.891Z" transform="translate(-182.685 -145.54)" fill="#ffbdc6"/>
    <path id="Path_373" data-name="Path 373" d="M691.16,338.486s15.378-14.54,14.794-20.408c0,0-14.539-23.482-7.266-28.767,5.753-4.208,14.49,17,17.876,26.013a8.794,8.794,0,0,1-.583,7.4L697.6,355.261Z" transform="translate(-225.916 -149.428)" fill="#ffbdc6"/>
    <path id="Path_374" data-name="Path 374" d="M568.609,299.933s2.795,17.893-5.31,24.608,23.211,6.674,23.211,6.674L597.7,320.867s-12.863-12.024-8.951-20.967Z" transform="translate(-202.906 -151.411)" fill="#ffbdc6"/>
    <path id="Path_375" data-name="Path 375" d="M564.368,324.528s12.024,8.951,24.041-1.118l19.57,40.545-1.118,49.487s-40.545,20.967-57.32,8.112-2.795-19.57-2.795-19.57l-3.912-38.021,4.192-24.608s7.545-11.745,8.112-11.745S564.368,324.528,564.368,324.528Z" transform="translate(-199.224 -155.598)" opacity="0.1"/>
    <path id="Path_376" data-name="Path 376" d="M564.37,323.848s12.024,8.967,24.049-1.118l19.57,40.545-1.118,49.487s-40.544,20.967-57.32,8.112-2.794-19.57-2.794-19.57l-3.912-38.021,4.192-24.608s7.545-11.745,8.112-11.745S564.37,323.848,564.37,323.848Z" transform="translate(-199.226 -155.477)" fill="#ebf1f6"/>
    <path id="Path_377" data-name="Path 377" d="M550.225,319s-11.4,6.493-23.778,6.172a8.762,8.762,0,0,0-6.321,2.416c-3.526,3.386-9.7,8.745-13.52,8.745-.822,0-24.608,4.751-24.608,4.751l-6.288-6.288s-9.37,18.312-13.841,17.474l8.112,10.627s15.378,6.707,35.506-1.4h11.745l6.148,19.011s-3.074,25.726-5.589,31.315.822,16.5.822,16.5L540.7,427.5s1.118-10.907,2.795-12.329-5.868-49.487-5.868-49.487-5.03-27.123,13.422-36.9Z" transform="translate(-185.081 -154.813)" opacity="0.1"/>
    <path id="Path_378" data-name="Path 378" d="M555.2,439.38a72.989,72.989,0,0,0-1.734,10.085l-16.906.641c2.26-4.742,3.773-7.635,3.773-7.635Z" transform="translate(-198.383 -176.252)" opacity="0.1"/>
    <path id="Path_379" data-name="Path 379" d="M475.571,340.82l-9.789,15.616-.822-2.778c3.592-3.567,7.8-11.022,9.477-14.129A16.574,16.574,0,0,0,475.571,340.82Z" transform="translate(-185.631 -158.469)" opacity="0.1"/>
    <path id="Path_380" data-name="Path 380" d="M550.1,319s-11.967,6.493-24.337,6.172a8.762,8.762,0,0,0-6.32,2.416c-3.526,3.386-9.7,8.745-13.52,8.745-.822,0-24.608,4.751-24.608,4.751l-6.312-6.3s-9.37,18.312-13.841,17.474l8.112,10.627s15.378,6.707,35.506-1.4h11.745l6.148,19s-3.074,25.726-5.589,31.315.822,16.5.822,16.5l22.085-.822s1.118-10.907,2.795-12.329-5.868-49.487-5.868-49.487-5.03-27.123,13.422-36.9Z" transform="translate(-184.954 -154.813)" fill="#ced2df"/>
    <path id="Path_381" data-name="Path 381" d="M597.795,316.94s11.408,8.7,26.638,9.7a8.1,8.1,0,0,1,4.562,1.767,44.152,44.152,0,0,1,9.625,11.507c6.148,10.068,21.246,8.951,21.246,8.951s14.679-4.611,15.518-8.219c0,0,.419,19.726,9.649,14.959l-12.14,13.989a8.564,8.564,0,0,1-6.123,2.951,90.009,90.009,0,0,1-19.175-1.06c-10.068-1.956-17.334-6.707-22.643-2.515,0,0-6.986,21.805-2.236,29.638s13.15,20.967,9.23,24.328-8.671,3.074-16.5-5.03-8.671-21.805-8.671-21.805l1.956-35.227S601.189,334.307,593.94,329Z" transform="translate(-208.602 -154.446)" opacity="0.1"/>
    <path id="Path_382" data-name="Path 382" d="M686.376,355.308,674.2,369.354a8.555,8.555,0,0,1-2.934,2.186h0a8.522,8.522,0,0,1-3.173.748,88.932,88.932,0,0,1-19.175-1.06c-9.419-1.833-16.389-6.107-21.6-3.222a7.635,7.635,0,0,0-1.052.7s-6.986,21.805-2.236,29.638,13.15,20.967,9.23,24.328a9.04,9.04,0,0,1-2.186,1.422c-3.518,1.586-7.882.214-14.309-6.452-7.825-8.112-8.671-21.805-8.671-21.805l1.956-35.227s-7.545-26.564-14.794-31.873l3.2-11.466c2.2,1.5,13.2,8.523,26.794,9.419a8.1,8.1,0,0,1,4.562,1.767,44.189,44.189,0,0,1,9.625,11.507c6.148,10.068,21.246,8.951,21.246,8.951a81.6,81.6,0,0,0,10.578-4.208h0a16.123,16.123,0,0,0,4.931-3.288,2.465,2.465,0,0,0,.534-.986S677.155,360.058,686.376,355.308Z" transform="translate(-208.837 -154.505)" opacity="0.1"/>
    <path id="Path_383" data-name="Path 383" d="M685.691,355.53l-12.164,14.063a8.554,8.554,0,0,1-2.367,1.907h0a8.531,8.531,0,0,1-3.731,1.027,88.939,88.939,0,0,1-19.175-1.06c-9.082-1.767-15.9-5.811-21.033-3.5a7.6,7.6,0,0,0-1.644.978s-6.986,21.805-2.236,29.638,13.151,20.967,9.23,24.328a9.7,9.7,0,0,1-1.644,1.142c-3.616,2-8.088.822-14.868-6.173-7.825-8.112-8.671-21.805-8.671-21.805l1.956-35.227s-7.545-26.564-14.794-31.873L597.9,316.95l.4.279c2.2,1.5,13.2,8.523,26.794,9.419a8.1,8.1,0,0,1,4.562,1.767,44.187,44.187,0,0,1,9.624,11.507c6.148,10.068,21.246,8.951,21.246,8.951a81.588,81.588,0,0,0,10.578-4.208h0c2.54-1.3,4.611-2.721,4.931-4.019v.707C676.289,344.747,677.521,359.73,685.691,355.53Z" transform="translate(-208.71 -154.448)" fill="#ced2df"/>
    <path id="Path_384" data-name="Path 384" d="M590.4,300.45H569.85a50.279,50.279,0,0,1,.386,9.863,21.123,21.123,0,0,0,21.715,1.562C589.979,308.225,588.778,304.083,590.4,300.45Z" transform="translate(-204.311 -151.509)" opacity="0.1"/>
    <circle id="Ellipse_78" data-name="Ellipse 78" cx="20.408" cy="20.408" r="20.408" transform="translate(357.599 121.399)" fill="#ffbdc6"/>
    <path id="Path_385" data-name="Path 385" d="M576.4,281.15c2.277-.271,4.553-1.077,6.8-.625,2.038.411,3.773,1.816,5.811,2.244,3.929.822,7.578-2.071,10.545-4.767l6.411-5.836a13.084,13.084,0,0,0,3.616-4.422c.732-1.775.477-4.11-1.085-5.227-2.342-1.644-6.378,0-8.071-2.334-.764-1.052-.649-2.466-1.044-3.723-.822-2.515-3.649-3.888-6.3-3.92s-5.178.937-7.709,1.644a44.384,44.384,0,0,1-16.438,1.57,10.5,10.5,0,0,0-4.5.156,6.287,6.287,0,0,0-3.649,4.331c-1.266,4.471.9,11.679,3.066,15.682S572.065,281.685,576.4,281.15Z" transform="translate(-202.631 -142.976)" opacity="0.1"/>
    <path id="Path_386" data-name="Path 386" d="M576.4,280.47c2.277-.271,4.553-1.077,6.8-.625,2.038.411,3.773,1.816,5.811,2.244,3.929.822,7.578-2.071,10.545-4.767l6.411-5.836a13.083,13.083,0,0,0,3.616-4.422c.732-1.775.477-4.11-1.085-5.227-2.342-1.644-6.378,0-8.071-2.334-.764-1.052-.649-2.466-1.044-3.723-.822-2.515-3.649-3.888-6.3-3.921s-5.178.937-7.709,1.644a44.383,44.383,0,0,1-16.438,1.57,10.5,10.5,0,0,0-4.5.156,6.288,6.288,0,0,0-3.649,4.331c-1.266,4.471.9,11.679,3.066,15.682S572.065,280.963,576.4,280.47Z" transform="translate(-202.631 -142.855)" fill="#88455e"/>
    <path id="Path_387" data-name="Path 387" d="M536.55,394s4.471.559,6.707,3.353a12.048,12.048,0,0,0,6.148,3.633" transform="translate(-198.381 -168.17)" opacity="0.1"/>
    <path id="Path_388" data-name="Path 388" d="M487.526,349.09s3.649,8.145,1.4,8.967-1.4,6.707-1.4,6.707" transform="translate(-189.621 -160.171)" opacity="0.1"/>
    <g id="Group_40" data-name="Group 40" transform="translate(307.509 164.319)" opacity="0.1">
      <path id="Path_389" data-name="Path 389" d="M489.035,342.3s23.761-4.751,24.583-4.751c3.83,0,9.994-5.359,13.52-8.745a8.63,8.63,0,0,1,3.83-2.129h-.3a8.761,8.761,0,0,0-6.32,2.416c-3.526,3.386-9.7,8.745-13.52,8.745-.666,0-15.871,3.016-22.044,4.241Z" transform="translate(-488.78 -320.498)"/>
      <path id="Path_390" data-name="Path 390" d="M565.463,320.2V319.16a59.326,59.326,0,0,1-18.213,5.827,56.285,56.285,0,0,0,18.213-4.783Z" transform="translate(-499.193 -319.16)"/>
      <path id="Path_391" data-name="Path 391" d="M530.657,437.341s-3.353-10.907-.822-16.5,5.589-31.315,5.589-31.315l-6.131-19.011H517.515l-.715.279h9.657l6.123,19.019s-3.074,25.726-5.589,31.315.822,16.5.822,16.5l22.085-.822v-.173Z" transform="translate(-493.77 -328.307)"/>
    </g>
    <g id="Group_41" data-name="Group 41" transform="translate(398.957 201.099)" opacity="0.1">
      <path id="Path_392" data-name="Path 392" d="M635.693,434.957a9.7,9.7,0,0,1-1.644,1.142c-3.616,2-8.088.822-14.868-6.173-6.214-6.435-8.022-16.438-8.507-20.227l-.164,2.893s.822,13.7,8.671,21.805c6.781,7.019,11.252,8.17,14.868,6.173a9.7,9.7,0,0,0,1.644-1.142c1.175-1.011,1.241-2.91.625-5.277A2.589,2.589,0,0,1,635.693,434.957Z" transform="translate(-610.51 -372.065)"/>
      <path id="Path_393" data-name="Path 393" d="M687.681,364.313l-7.915,9.148a8.555,8.555,0,0,1-2.367,1.907h0a8.532,8.532,0,0,1-3.731,1.027,88.934,88.934,0,0,1-19.175-1.06c-9.082-1.767-15.9-5.811-21.033-3.5a7.6,7.6,0,0,0-1.644.978S627.3,386.9,627.994,396.49c.534-8.967,3.822-19.208,3.822-19.208a7.6,7.6,0,0,1,1.644-.978c5.145-2.31,11.951,1.734,21.033,3.5a89.985,89.985,0,0,0,19.175,1.06,8.531,8.531,0,0,0,3.731-1.027h0a8.553,8.553,0,0,0,2.367-1.882l12.172-14.046a4.792,4.792,0,0,1-4.257.4Z" transform="translate(-613.611 -363.91)"/>
    </g>
    <path id="Path_394" data-name="Path 394" d="M265.74,486.89a.633.633,0,0,0,.748.1,2.548,2.548,0,0,1-.748-.1Z" transform="translate(-150.151 -184.713)" fill="url(#linear-gradient-2)"/>
    <path id="Path_395" data-name="Path 395" d="M324.449,312.288c-1.479-.427-3.592-1.126-6.131-2.014A32.153,32.153,0,0,0,324,298.833l-.214.082c.074-.255.148-.5.214-.764-4.874,1.981-10.266-1.373-13.7-5.679s-5.753-9.649-9.518-13.611a43.562,43.562,0,0,0-5.047-4.348c-1.11-.822-2.3-1.751-3.657-1.792-2.195-.066-3.912,2.088-6.025,2.721a8.219,8.219,0,0,1-4.2-.156c-5.449-1.249-10.685-3.559-16.249-4.167a19.043,19.043,0,0,0-8.819.994c-2.794,1.06-4.068,3.173-6.329,4.866-2.466,1.816-7.282,1.775-10.151,2.1a72.743,72.743,0,0,1-10.488.436,24.55,24.55,0,0,0-6.033.222c-4.167.912-7.512,4.225-10.635,7.4a5.482,5.482,0,0,0-1.759,2.753,3.477,3.477,0,0,0,0,.912,5.926,5.926,0,0,0,.419,2.425,32.055,32.055,0,0,0,4.036,8.03c1.274,1.825,2.762,3.542,3.485,5.7a11.071,11.071,0,0,1,.534,3.288,23.914,23.914,0,0,1-.37,3.534,44.386,44.386,0,0,1-2.7,9.411,17.1,17.1,0,0,0-1.578,4.931,7.859,7.859,0,0,0,0,1.052c-.205,5.425,5.268,9.329,6.329,14.72a8.8,8.8,0,0,1,.156,1.356,9.184,9.184,0,0,1-4.857,7.956c.247.1.5.181.756.263a6.852,6.852,0,0,1-.756.411,15.336,15.336,0,0,0,1.578.51,36.657,36.657,0,0,0-7.981,9.863c-9.509,17.7-73.914,52.38-73.914,52.38l.953.542-.773.5c-5.573,3.707-18.649,14.515-6.83,28.183,0,0,9.23-14.564,15.7-20.77.288-.279.575-.534.822-.773a1.891,1.891,0,0,1,.247,1.5l42.345-23.794s15.049-10.537,19.249-12.912a34.643,34.643,0,0,1,9.542-4.11l-.493.205a19.331,19.331,0,0,1,4.857-.69c7.5.115,15.616,5.605,18.287,27.345,3.584,29.112,1.923,34.364.773,35.079a2.112,2.112,0,0,1-.419-.074.716.716,0,0,0,.115.082,2.205,2.205,0,0,1-.46-.082.658.658,0,0,0,.625.148.584.584,0,0,0,.468-.058h0a4.849,4.849,0,0,0,.567,0,6.04,6.04,0,0,1-.058.822c-.058,0-.337.156,0,.173h0c-.09,1.644-.082,3.427,0,5.293-3.723.205-7.446.427-10.685.625l.288-1.537.132-.69c2.86-.23,5.573-1.068,5.893-3.386.7-5.1-6.3-7.816-12.246-8.153s-41.638,2.038-41.638,2.038-5.351,6.929,11.622,9.041l1.57.822c6.649,3.789,15.666,10.767,19.989,14.2l.6.477-1.94,1.578c10.5,2.375,20.646,42.484,26.243,60.821s17.844,17.671,27.994,14.951c9.509-2.548,10.685-30.164,10.841-33.632v-.353l16.915,20.893,1.282,1.586q.74.386,1.463.723c12.805,6.09,26.95-5.589,22.931-18.9-4.068-13.422-10.381-33.271-14.589-41.662-3.526-7.027-8.079-18.7-10.841-26.005a8.774,8.774,0,0,0,1.044-.5s-.066-.329-.173-.929l.173-.09s-4.11-21.139-4.29-36.164v-1.307c3.057-.7,5-.97,5-.97l.058-.658-.353.074,1.7-19.471s6.246-13.29,1.463-18.822a11.622,11.622,0,0,1-2.8-5.753c-.822-5.088,0-13.578,11.137-20.63,17.145-10.874,23.835-19.726,23.835-19.726S334.945,315.378,324.449,312.288ZM290.4,325.8v-9c3.181-.156,6.427.214,9.625,0a24.355,24.355,0,0,0,4.644-.781l.773.534A84.655,84.655,0,0,1,290.4,325.8ZM241.782,466.872c1.258.871,2.523,1.775,3.764,2.688.773,4.438,1.455,7.57,1.5,7.792A61.528,61.528,0,0,0,241.782,466.872Z" transform="translate(-125.1 -146.26)" fill="url(#linear-gradient-3)"/>
    <path id="Path_396" data-name="Path 396" d="M291.646,500.32l-.74,4.019-.567,3.074-1.036,5.622-10.044,7.027s-.9-.773-2.4-2c-4.11-3.386-12.764-10.257-19.118-13.972a21.37,21.37,0,0,0-5.252-2.425Z" transform="translate(-147.791 -187.105)" fill="#ffbdc6"/>
    <path id="Path_397" data-name="Path 397" d="M291.644,500.32l-.74,4.019A31.226,31.226,0,0,1,284.28,504l-23.432.337c-1.11-.066-2.145-.156-3.115-.255a21.372,21.372,0,0,0-5.252-2.425Z" transform="translate(-147.789 -187.105)" opacity="0.1"/>
    <path id="Path_398" data-name="Path 398" d="M282.518,501.594s11.72,2.005,12.386-3.016-6.025-7.668-11.7-8.046-39.846,2.022-39.846,2.022-6.025,8.03,15.731,9.37Z" transform="translate(-146.028 -185.354)" fill="#7679b4"/>
    <path id="Path_399" data-name="Path 399" d="M291.646,500.32l-.74,4.019-.567,3.074-1.036,5.622-10.044,7.027s-.9-.773-2.4-2c-4.11-3.386-12.764-10.257-19.118-13.972a21.37,21.37,0,0,0-5.252-2.425Z" transform="translate(-147.791 -187.105)" opacity="0.1"/>
    <path id="Path_400" data-name="Path 400" d="M291.644,500.32l-.74,4.019A31.226,31.226,0,0,1,284.28,504l-23.432.337c-1.11-.066-2.145-.156-3.115-.255a21.372,21.372,0,0,0-5.252-2.425Z" transform="translate(-147.789 -187.105)" opacity="0.1"/>
    <path id="Path_401" data-name="Path 401" d="M282.518,501.594s11.72,2.005,12.386-3.016-6.025-7.668-11.7-8.046-39.846,2.022-39.846,2.022-6.025,8.03,15.731,9.37Z" transform="translate(-146.028 -185.354)" opacity="0.1"/>
    <rect id="Rectangle_89" data-name="Rectangle 89" width="61.257" height="72.64" transform="translate(100.836 151.193)" fill="#a66477"/>
    <rect id="Rectangle_90" data-name="Rectangle 90" width="61.257" height="72.64" transform="translate(100.836 151.193)" opacity="0.1"/>
    <path id="Path_402" data-name="Path 402" d="M155.374,453.193a9.812,9.812,0,0,0-3.731,2.638c-6.189,6.115-15.016,20.457-15.016,20.457-11.309-13.463,1.208-24.106,6.575-27.764,1.3-.888,2.17-1.364,2.17-1.364Z" transform="translate(-126.34 -177.637)" fill="#ffbdc6"/>
    <path id="Path_403" data-name="Path 403" d="M292.283,331.09s3.016,21.09,13.389,26.112-13.389,14.392-13.389,14.392L259.81,359.544s18.411-6.025,14.729-23.77Z" transform="translate(-149.095 -156.966)" fill="#ffbdc6"/>
    <path id="Path_404" data-name="Path 404" d="M248.516,485.45l-.74,4.019-.567,3.074-1.036,5.622-10.044,7.027s-.9-.773-2.4-2c-4.11-3.386-12.764-10.257-19.118-13.972a21.367,21.367,0,0,0-5.252-2.425Z" transform="translate(-140.11 -184.457)" fill="#ffbdc6"/>
    <path id="Path_405" data-name="Path 405" d="M248.514,485.45l-.74,4.019a31.23,31.23,0,0,1-6.625-.337l-23.432.337c-1.11-.066-2.145-.156-3.115-.255a21.368,21.368,0,0,0-5.252-2.425Z" transform="translate(-140.108 -184.457)" opacity="0.1"/>
    <path id="Path_406" data-name="Path 406" d="M239.346,486.72s11.72,2.005,12.386-3.016-6.025-7.7-11.72-8.03-39.838,2.005-39.838,2.005-6.025,8.03,15.731,9.37Z" transform="translate(-138.338 -182.71)" fill="#7679b4"/>
    <path id="Path_407" data-name="Path 407" d="M252.449,494.038l-1.036,5.622-10.044,7.027s-.9-.773-2.4-2l13.282-10.89Z" transform="translate(-145.383 -185.944)" opacity="0.1"/>
    <path id="Path_408" data-name="Path 408" d="M318.438,567.446q-.69-.337-1.4-.715l-1.225-1.562-16.175-20.548v.362c-.107,3.411-1.274,30.616-10.364,33.123-9.707,2.679-21.427,3.345-26.778-14.729S247.434,505.8,237.39,503.46l14.893-12.222s9.863,11.507,13.89,22.586c-.148-.707-6.962-32.523-1.34-38.145H313.7s7.529,21.485,12.723,32.137c4.027,8.268,10.068,27.813,13.972,41.038A15.72,15.72,0,0,1,318.438,567.446Z" transform="translate(-145.102 -182.717)" fill="#3f3d56"/>
    <path id="Path_409" data-name="Path 409" d="M322.522,472.849c-7.537,4.463-40.676,2.647-51.476,1.923l-2.934-.214c-.321,0,.049-.181.049-.181l.3-3.041,8.03-20.416L319.514,426c-.871,2.622-1.167,6.641-1.093,11.252C318.634,452.03,322.522,472.849,322.522,472.849Z" transform="translate(-150.55 -173.869)" opacity="0.1"/>
    <path id="Path_410" data-name="Path 410" d="M322.445,471.642c-7.537,4.463-40.676,2.647-51.476,1.923l-2.934-.214h-.485l.534-.14,2.647-.7,5.688-22.767,43.019-24.937c-.871,2.622-1.167,6.641-1.093,11.252C318.557,450.815,322.445,471.642,322.445,471.642Z" transform="translate(-150.473 -173.657)" fill="#f2f1f2"/>
    <path id="Path_411" data-name="Path 411" d="M318.451,436.013c-8.745,2.014-27.994,7.94-35.391,22.191-4.931,9.518-9.041,13.6-11.975,15.312l-2.934-.214.049-.181,2.647-.7,5.688-22.767,43.018-24.937C318.664,427.416,318.377,431.4,318.451,436.013Z" transform="translate(-150.58 -173.641)" opacity="0.1"/>
    <path id="Path_412" data-name="Path 412" d="M147.74,447.17l10.044,6.025a9.812,9.812,0,0,0-3.731,2.638c-.822-2.466-6.1-5.852-8.482-7.3C146.869,447.647,147.74,447.17,147.74,447.17Z" transform="translate(-128.749 -177.639)" opacity="0.1"/>
    <path id="Path_413" data-name="Path 413" d="M265.847,484.32a.6.6,0,0,1-.707-.09A2.413,2.413,0,0,0,265.847,484.32Z" transform="translate(-150.044 -184.239)" opacity="0.1"/>
    <path id="Path_414" data-name="Path 414" d="M267.206,350.142s-9.041,1-15.4-5.688c0,0-26.778,7.7-35.819,25.109s-70.635,51.55-70.635,51.55,10.685,6.025,9.707,9.041l40.5-23.433S209.952,396.341,213.971,394s26.112-16.734,30.8,22.43,0,34.52,0,34.52,6.7,2.342,16.438-16.438,39.838-23.1,39.838-23.1l1.644-19.726s5.975-13.085,1.4-18.542a11.589,11.589,0,0,1-2.679-5.663c-.764-5.014,0-13.372,10.685-20.318,16.438-10.685,22.767-19.413,22.767-19.413s.337-6.362-9.707-9.37-50.884-19.413-50.884-19.413l-1.34,5.688,32.137,22.767s-16.068,13.052-28.767,12.723C276.247,340.09,278.589,349.8,267.206,350.142Z" transform="translate(-128.71 -151.245)" fill="#565388"/>
    <path id="Path_415" data-name="Path 415" d="M296.827,340.479a65.766,65.766,0,0,1-1.849-8.219l-17.745,4.718a19.561,19.561,0,0,1-.4,10.233,19.085,19.085,0,0,0,20-6.74Z" transform="translate(-152.126 -157.174)" opacity="0.1"/>
    <circle id="Ellipse_79" data-name="Ellipse 79" cx="19.085" cy="19.085" r="19.085" transform="translate(110.88 151.522)" fill="#ffbdc6"/>
    <path id="Path_416" data-name="Path 416" d="M284.316,273.964c5.293.6,10.331,2.877,15.542,4.11a7.676,7.676,0,0,0,4.019.156c2.022-.625,3.666-2.745,5.753-2.679,1.29,0,2.466.921,3.5,1.767a42.011,42.011,0,0,1,4.825,4.282c3.592,3.9,5.827,9.164,9.107,13.405s8.449,7.545,13.109,5.6c-3.164,12.329-13.553,21.756-24.78,22.52-4.479.3-9.041-.625-13.405.69a11.735,11.735,0,0,1-3.386.822c-2.466,0-4.5-2.293-6.066-4.52-3.649-5.244-6.575-11.194-10.685-15.97-1.356-1.578-2.959-3.082-4.874-3.37s-3.682.625-5.392,1.512c-2.819,1.463-5.7,2.975-7.89,5.474s-3.567,6.238-2.663,9.625c.485,1.825,1.6,3.468,1.644,5.383,0,3.041-2.647,5.268-3.181,8.219a31.721,31.721,0,0,0-.132,3.748c-.238,4.06-2.885,7.4-5.663,9.937-1.077.994-2.277,2.055-2.589,3.592-.214,1.044,0,2.153-.14,3.214-.4,2.638-3.033,3.97-5.359,4.315a15.535,15.535,0,0,1-8.038-.953c3.288-1.537,5.252-5.918,4.5-9.863-1.036-5.433-6.493-9.329-6.033-14.868a17.2,17.2,0,0,1,1.512-4.89,44.752,44.752,0,0,0,2.581-9.271,15.706,15.706,0,0,0-.156-7.4c-.7-2.129-2.121-3.822-3.337-5.622a31.905,31.905,0,0,1-3.863-7.915,5.548,5.548,0,0,1-.37-2.614,5.417,5.417,0,0,1,1.644-2.712c2.992-3.131,6.2-6.394,10.175-7.3a22.816,22.816,0,0,1,5.753-.222,67.6,67.6,0,0,0,10.035-.427c2.745-.321,7.4-.279,9.715-2.071,2.162-1.644,3.386-3.74,6.057-4.792A17.729,17.729,0,0,1,284.316,273.964Z" transform="translate(-144.209 -146.762)" opacity="0.1"/>
    <path id="Path_417" data-name="Path 417" d="M308.48,513.76s11.046,21.756,7.7,28.454" transform="translate(-157.763 -189.498)" opacity="0.1"/>
    <path id="Path_418" data-name="Path 418" d="M329.316,579.132l-16.175-20.548v.362s-.937-6.641,2.145-4.405c6.748,4.882,17.548,12.888,17.778,14.268S330.878,575.729,329.316,579.132Z" transform="translate(-158.569 -196.679)" opacity="0.1"/>
    <g id="Group_42" data-name="Group 42" transform="translate(16.977 147.667)" opacity="0.1">
      <path id="Path_419" data-name="Path 419" d="M304.339,348.941s1.364,5.655-3.049,8.482c6.8-1.167,7.093-6.452,6.888-8.753A21.415,21.415,0,0,1,304.339,348.941Z" transform="translate(-173.459 -307.764)"/>
      <path id="Path_420" data-name="Path 420" d="M149.45,429.749s61.594-34.142,70.635-51.55c6.485-12.493,22.109-19.98,30.41-23.219-6.057,2.03-26.441,9.814-34.1,24.559-9.041,17.408-70.635,51.55-70.635,51.55Z" transform="translate(-145.76 -308.888)"/>
      <path id="Path_421" data-name="Path 421" d="M316.26,337.423c10.479-3.288,20.5-11.4,20.5-11.4l-32.137-22.767.732-3.123L302.28,298.9l-1.34,5.688,32.137,22.767A77.549,77.549,0,0,1,316.26,337.423Z" transform="translate(-173.397 -298.9)"/>
      <path id="Path_422" data-name="Path 422" d="M319.83,438.8a79.63,79.63,0,0,1,12.6-3.181l.058-.649a85.283,85.283,0,0,0-12.657,3.83Z" transform="translate(-176.761 -323.133)"/>
      <path id="Path_423" data-name="Path 423" d="M266.554,468.973h-.3a.6.6,0,0,1-.707-.09,2.466,2.466,0,0,0,.707.09c1.1-.641,2.753-5.638-.707-34.569-3.7-30.887-18.213-28.463-26.161-24.912,8.12-2.236,19.3-.3,22.479,26.252,3.46,28.931,1.808,33.936.707,34.569A7.4,7.4,0,0,0,266.554,468.973Z" transform="translate(-162.435 -318.236)"/>
      <path id="Path_424" data-name="Path 424" d="M267.447,483.92a2.465,2.465,0,0,1-.707-.09A.6.6,0,0,0,267.447,483.92Z" transform="translate(-167.306 -331.835)"/>
    </g>
    <path id="Path_425" data-name="Path 425" d="M284.316,273.174c5.293.6,10.331,2.877,15.542,4.109a7.677,7.677,0,0,0,4.019.156c2.022-.625,3.666-2.745,5.753-2.679,1.29,0,2.466.921,3.5,1.767a42.007,42.007,0,0,1,4.825,4.282c3.592,3.9,5.827,9.164,9.107,13.405s8.449,7.545,13.109,5.6c-3.164,12.329-13.553,21.756-24.78,22.52-4.479.3-9.041-.625-13.405.69a11.737,11.737,0,0,1-3.386.822c-2.466,0-4.5-2.293-6.066-4.52-3.649-5.244-6.575-11.194-10.685-15.97-1.356-1.578-2.959-3.082-4.874-3.37s-3.682.625-5.392,1.512c-2.819,1.463-5.7,2.975-7.89,5.474s-3.567,6.238-2.663,9.624c.485,1.825,1.6,3.468,1.644,5.383,0,3.041-2.647,5.268-3.181,8.219a31.721,31.721,0,0,0-.132,3.748c-.238,4.06-2.885,7.4-5.663,9.937-1.077.994-2.277,2.055-2.589,3.592-.214,1.044,0,2.153-.14,3.214-.4,2.638-3.033,3.97-5.359,4.315a15.534,15.534,0,0,1-8.038-.953c3.288-1.537,5.252-5.918,4.5-9.863-1.036-5.433-6.493-9.329-6.033-14.868a17.2,17.2,0,0,1,1.512-4.89,44.753,44.753,0,0,0,2.581-9.271,15.706,15.706,0,0,0-.156-7.4c-.7-2.129-2.121-3.822-3.337-5.622a31.906,31.906,0,0,1-3.863-7.915,5.548,5.548,0,0,1-.37-2.614,5.416,5.416,0,0,1,1.644-2.712c2.992-3.131,6.2-6.394,10.175-7.3a22.816,22.816,0,0,1,5.753-.222,67.592,67.592,0,0,0,10.036-.427c2.745-.321,7.4-.279,9.715-2.071,2.162-1.644,3.386-3.74,6.057-4.792A17.729,17.729,0,0,1,284.316,273.174Z" transform="translate(-144.209 -146.621)" fill="#a66477"/>
    <path id="Path_426" data-name="Path 426" d="M920.854,216.444h0v-.3a.694.694,0,0,0-.049-.312h-.131v-.682c-.329-7.619-10.866-23.835-15.09-19.1-3.7,4.159,1.882,14.679,4.726,19.413l.255.427-.14-.09s-11.761,35.079-13.151,36.443-11.071,28.947-23.835,32.054c-2.523.6-4.619,1.142-6.378,1.644l.14-.468a50.844,50.844,0,0,0,2.244-8.219c.411-2.992,0-6.616-1.512-8.071-.74-.723-1.644-.822-2.252-1.973a9.105,9.105,0,0,1-.625-3.164l-1.085-13.3.756-.23c4.57-1.463,9-4.931,9.518-9.6a4.932,4.932,0,0,1-.485.156,8.3,8.3,0,0,0,.14-.822c-3.838,1.512-7.4-2.466-11.1-4.249-6.09-2.984-13.052-.173-19.339.51-7.126.781-13.89-2.178-21.172-1.644-3.962.3-8.367,2.992-8.153,6.9.123,2.145,1.644,3.962,2.268,6.016,1.578,4.973-1.932,9.961-5.005,14.2-2.022,2.786-3.962,6.181-4.307,9.452-7.077-7.4-14.729-15.945-15.616-19.159L771,217.191s-.485.518-1.266,1.282c-.123-.378-.271-.822-.436-1.266-2.614-7.323-10.011-25.068-19.389-21.813s3.888,21.443,9.657,28.693l.822,1a2.6,2.6,0,0,1-1.463-.066l22.833,39.164s4.151,7.5,7.956,9.534c0,0,28.364,35.761,28.709,42.912s12.756,26.227,12.756,26.227,4.151,30.994-3.115,36.443h1.2q-.518.506-1.06,1.11c-5.383,5.967-12.263,18.756-2.86,40.5,13.833,32.054,15.912,44.613,15.912,44.613s-26.3,1.364-31.479,2.384c-4.586.9-22.413,1.537-26.49,1.644-1.455-1.693-5.753-5.441-11.556,0-7.266,6.814-12.452,29.589-12.452,29.589s-2.77,18.394,6.575,13.619c0,0,11.071-15.329,14.178-16.011,1.545-.337,3.181-2.614,4.43-4.808l.066.041h0c.074,0,.378-.164.871-.362h0c2.3-.912,8.638-3.107,13.635-2.014,2.737.6,14.474.74,26.778.707-2.778,6.657-7.759,23.835-7.759,23.835s-2.08,16.019,4.825,15.361c4.931-.485,12.493-13.085,16.438-20.276,2.86-2.1,11.055-9.608,17.112-9.041l40.816-15.666s9.682-5.449,4.5-23.5c-4.109-14.35-15.805-43.725-20.424-55.174h0l-.14-.3c-1.118-2.77-1.792-4.414-1.792-4.414h0a67.551,67.551,0,0,1-3.707-16.2c-.041-.436-.074-.88-.107-1.315a7.264,7.264,0,0,0,1.6-.929s-3.805-38.482,0-42.575h0l.066-.074h0v-.049h0l.066-.082h0l.148-.189h0l.181-.23h0c.206-.271.452-.608.732-1.019h0c2.178-3.189,6.238-10.471,5.071-19.068h0q-.074-.559-.181-1.126h0a23.479,23.479,0,0,0-2.367-6.674,18.511,18.511,0,0,1-.3-2.638v-2.334a7.9,7.9,0,0,1,.123-1.184v-.148a1.474,1.474,0,0,1,.074-.452v-.189a2.156,2.156,0,0,1,.1-.444v-.156c.049-.2.1-.395.164-.592v-.1q.074-.247.164-.485l.074-.189.164-.395.082-.2c.066-.148.14-.3.214-.444l.058-.123q.148-.271.312-.534l.09-.14.271-.386.131-.173.288-.345.132-.148c.148-.156.3-.312.46-.46,4.5-4.109,24.559-34.4,24.559-34.4s4.841-6.814,4.841-11.235C913.161,253.635,921.717,225.115,920.854,216.444ZM866.994,471.029c-.493-4.668-.986-10.455-1.438-16.438l7.825,12.2S872.641,470.5,866.994,471.029Z" transform="translate(-235.799 -132.729)" fill="url(#linear-gradient-4)"/>
    <path id="Path_427" data-name="Path 427" d="M788.579,526.943s-4.685-7.4-11.72-.666S764.81,555.4,764.81,555.4s-2.679,18.082,6.362,13.389c0,0,10.685-15.066,13.726-15.731s6.362-9.041,6.362-9.041Z" transform="translate(-238.967 -191.224)" fill="#493545"/>
    <path id="Path_428" data-name="Path 428" d="M851.14,549.352s-6.362-3.016-8.367-.666-8.7,25.775-8.7,25.775-2.005,15.4,4.685,14.729S857.165,564.4,857.165,564.4Z" transform="translate(-251.317 -195.559)" fill="#493545"/>
    <path id="Path_429" data-name="Path 429" d="M851.14,549.352s-6.362-3.016-8.367-.666-8.7,25.775-8.7,25.775-2.005,15.4,4.685,14.729S857.165,564.4,857.165,564.4Z" transform="translate(-251.317 -195.559)" opacity="0.05"/>
    <path id="Path_430" data-name="Path 430" d="M876.256,485.463l14.392,22.43s-1,5.022-9.707,4.019L851.147,530.66s-2.589,22.824,5.688,20.753c1.34-.337,10.685-10.044,17.408-9.37l39.509-15.4s9.37-5.359,4.348-23.1-21.624-58.865-21.624-58.865l-26.243,14.679Z" transform="translate(-254.341 -177.196)" fill="#3f3d56"/>
    <path id="Path_432" data-name="Path 432" d="M874.172,513.37c2.005,12.723-9.37,13.726-9.37,13.726s-51.221,1-57.246-.337-14.063,2.342-14.063,2.342c-10.381-6.362-2.005-22.093-2.005-22.093s21.427-.666,26.449-1.644S848.4,503,848.4,503s-2.005-12.386-15.4-43.849c-9.1-21.37-2.466-33.945,2.77-39.8a22.04,22.04,0,0,1,4.594-4.044l41.177,2.005a53.416,53.416,0,0,0,.23,6.222,66.268,66.268,0,0,0,5.466,20.548c-2.342,0-17.408,14.063-17.408,14.063S872.158,500.655,874.172,513.37Z" transform="translate(-243.216 -171.963)" fill="#3f3d56"/>
    <path id="Path_433" data-name="Path 433" d="M794.5,508.353s21.427-.666,26.449-1.644,30.46-2.342,30.46-2.342S849.4,491.981,836,460.518c-9.1-21.37-2.466-33.945,2.77-39.8a22.04,22.04,0,0,1,4.594-4.044l38.153,1.858v-1.192l-41.177-2.005a22.045,22.045,0,0,0-4.594,4.044c-5.211,5.868-11.868,18.435-2.77,39.8C846.409,490.616,848.4,503,848.4,503s-25.479,1.34-30.46,2.342-26.449,1.644-26.449,1.644-8.367,15.74,2.005,22.126c0,0,.312-.148.822-.362C787.421,521.66,794.5,508.353,794.5,508.353Z" transform="translate(-243.216 -171.969)" opacity="0.1"/>
    <rect id="Rectangle_91" data-name="Rectangle 91" width="20.753" height="52.553" transform="translate(591.784 120.47)" fill="#493545"/>
    <rect id="Rectangle_92" data-name="Rectangle 92" width="20.753" height="52.553" transform="translate(591.784 120.47)" opacity="0.1"/>
    <path id="Path_434" data-name="Path 434" d="M882.768,254.5c.715.2,1.521.222,2.005,1.208a7.4,7.4,0,0,1,.485,2.466l1.307,16.241a9.039,9.039,0,0,0,.608,3.107c.551,1.1,1.463,1.233,2.178,1.94,1.438,1.43,1.858,5.014,1.463,7.931a52.115,52.115,0,0,1-2.17,8.055c-1.118,3.781-1.857,8.03-3.427,11.219s-4.422,4.931-6.263,2.252-1.594-8.088-1.94-12.518c-.575-7.4-3.46-13.775-3.657-21.222-.164-6.025,1.455-11.646,2.466-17.359.723-3.92.764-8.679,1.816-12.205C878.519,249.812,880.2,253.8,882.768,254.5Z" transform="translate(-258.363 -141.744)" fill="#493545"/>
    <path id="Path_435" data-name="Path 435" d="M882.768,254.5c.715.2,1.521.222,2.005,1.208a7.4,7.4,0,0,1,.485,2.466l1.307,16.241a9.039,9.039,0,0,0,.608,3.107c.551,1.1,1.463,1.233,2.178,1.94,1.438,1.43,1.858,5.014,1.463,7.931a52.115,52.115,0,0,1-2.17,8.055c-1.118,3.781-1.857,8.03-3.427,11.219s-4.422,4.931-6.263,2.252-1.594-8.088-1.94-12.518c-.575-7.4-3.46-13.775-3.657-21.222-.164-6.025,1.455-11.646,2.466-17.359.723-3.92.764-8.679,1.816-12.205C878.519,249.812,880.2,253.8,882.768,254.5Z" transform="translate(-258.363 -141.744)" opacity="0.1"/>
    <path id="Path_436" data-name="Path 436" d="M772.958,222.963l-8.03,6.7s-.953-1.118-2.375-2.926c-5.581-7.126-18.411-25-9.345-28.2s16.233,14.235,18.764,21.435C772.613,221.8,772.958,222.963,772.958,222.963Z" transform="translate(-236.405 -133.29)" fill="#c77485"/>
    <path id="Path_437" data-name="Path 437" d="M950.978,220.664c-3.345,5.022-8.03,0-8.03,0s-.6-.9-1.447-2.342c-2.753-4.66-8.153-14.992-4.578-19.085,4.109-4.677,14.293,11.285,14.605,18.772A4.456,4.456,0,0,1,950.978,220.664Z" transform="translate(-269.474 -133.333)" fill="#c77485"/>
    <path id="Path_438" data-name="Path 438" d="M854.08,290.241s6.7,21.427,4.685,27.78,14.4,13.75,14.4,13.75h18.748s6.7-13.726,5.022-17.745S880.866,307,880.866,307s-8.367,0-8.03-22.43Z" transform="translate(-254.931 -148.681)" fill="#ffbdc6"/>
    <path id="Path_439" data-name="Path 439" d="M775.665,227.692l-8.03,6.7s-.953-1.118-2.375-2.926c2.918-.518,7.446-4.775,9.427-6.764C775.32,226.525,775.665,227.692,775.665,227.692Z" transform="translate(-239.113 -138.018)" opacity="0.1"/>
    <path id="Path_440" data-name="Path 440" d="M952.227,224.909c-3.345,5.022-8.03,0-8.03,0s-.6-.9-1.447-2.342l.107-.337c2.17,1.553,8.918.23,9.92,0a4.455,4.455,0,0,1-.551,2.679Z" transform="translate(-270.723 -137.578)" opacity="0.1"/>
    <path id="Path_441" data-name="Path 441" d="M892.027,423.516c-10.356,4.726-44-3.69-46.027-4.192a22.045,22.045,0,0,1,4.594-4.044l41.177,2.005A53.43,53.43,0,0,0,892.027,423.516Z" transform="translate(-253.492 -171.96)" opacity="0.1"/>
    <path id="Path_442" data-name="Path 442" d="M842.482,297.7s-8.03,2.679-19.413-7.7c0,0-25.479-25.109-27.123-31.134l-19.726-34.52s-8.367,9.041-11.72,7.7l22.093,38.5s4.019,7.4,7.7,9.37c0,0,27.452,35.153,27.78,42.18s12.37,25.849,12.37,25.849,4.019,30.46-3.016,35.819c0,0,39.164,10.044,47.531,3.345,0,0-3.682-37.808,0-41.843,0,0,11.383-13.389,3.682-28.117,0,0-1.644-8.03,2.679-12.049s23.769-33.813,23.769-33.813,4.685-6.7,4.685-11.046c0,0,8.7-29.457,7.4-37.158,0,0-7.7,1.644-10.044,0,0,0-11.383,34.52-12.723,35.819s-10.685,28.454-23.1,31.471-14.392,4.348-14.392,4.348,24.1,15.065,12.386,21.756S842.482,297.7,842.482,297.7Z" transform="translate(-238.978 -137.73)" fill="#0053ff"/>
    <path id="Path_443" data-name="Path 443" d="M873.723,295.679a63.961,63.961,0,0,1-.485-9.509l-18.748,5.688a25.284,25.284,0,0,1,1.175,3.847c2.145.945,5.038,3.181,7.529,3.181A17.072,17.072,0,0,0,873.723,295.679Z" transform="translate(-255.004 -148.966)" opacity="0.1"/>
    <circle id="Ellipse_80" data-name="Ellipse 80" cx="17.408" cy="17.408" r="17.408" transform="translate(590.445 114.109)" fill="#ffbdc6"/>
    <path id="Path_444" data-name="Path 444" d="M836.276,246.569c-3.83.3-8.1,2.942-7.89,6.781.115,2.112,1.562,3.9,2.194,5.918,1.521,4.89-1.866,9.8-4.841,13.972s-5.753,9.707-3.205,14.129a34.855,34.855,0,0,0,2.351,3.066c3.148,4.249,3.107,9.986,4.5,15.09a26.474,26.474,0,0,0,31.1,18.9A16.553,16.553,0,0,1,857,313.234c.189-2.926,1.134-5.983,0-8.688-1.463-3.477-5.753-4.849-7.964-7.89s-2.063-7.257-.995-10.882,2.918-6.986,3.805-10.685a32.153,32.153,0,0,1,.822-3.2c1.545-4.389,6.164-6.937,10.685-8.03s9.271-1.159,13.685-2.6,8.7-4.808,9.214-9.435c-3.715,1.488-7.159-2.392-10.742-4.175-5.9-2.926-12.633-.173-18.715.5C849.862,248.928,843.286,246.059,836.276,246.569Z" transform="translate(-249.135 -141.871)" opacity="0.1"/>
    <path id="Path_445" data-name="Path 445" d="M835.866,245.759c-3.83.3-8.1,2.942-7.89,6.781.115,2.112,1.562,3.9,2.194,5.918,1.521,4.89-1.866,9.8-4.841,13.972s-5.753,9.707-3.205,14.129a34.837,34.837,0,0,0,2.351,3.066c3.148,4.249,3.107,9.986,4.5,15.09a26.474,26.474,0,0,0,31.1,18.9,16.554,16.554,0,0,1-3.493-11.194c.189-2.926,1.134-5.983,0-8.688-1.463-3.477-5.753-4.849-7.964-7.89s-2.063-7.257-.994-10.882,2.918-6.986,3.805-10.685a32.174,32.174,0,0,1,.822-3.2c1.545-4.389,6.164-6.937,10.685-8.03s9.271-1.159,13.685-2.6,8.7-4.808,9.214-9.435c-3.715,1.488-7.159-2.392-10.742-4.175-5.9-2.926-12.633-.173-18.715.5C849.468,248.11,842.917,245.208,835.866,245.759Z" transform="translate(-249.062 -141.727)" fill="#493545"/>
    <path id="Path_446" data-name="Path 446" d="M885.65,326.3s6.97,6.222,8.342,8.967" transform="translate(-260.554 -156.113)" opacity="0.1"/>
    <path id="Path_447" data-name="Path 447" d="M898.269,371.51s-8.7,0-12.723,1-13.726,0-13.726,0" transform="translate(-258.091 -164.164)" opacity="0.1"/>
    <g id="Group_43" data-name="Group 43" transform="translate(525.514 85.326)" opacity="0.1">
      <path id="Path_448" data-name="Path 448" d="M894.166,331.966a8.368,8.368,0,0,1-2.408.921,9.205,9.205,0,0,0,6.427-.921c11.72-6.7-12.386-21.756-12.386-21.756H881.78S905.887,325.276,894.166,331.966Z" transform="translate(-785.379 -238.573)"/>
      <path id="Path_449" data-name="Path 449" d="M954.269,223.658a3.5,3.5,0,0,0-.082-.608,39.327,39.327,0,0,1-4.167.633,18.46,18.46,0,0,0,4.249-.025Z" transform="translate(-797.532 -223.05)"/>
      <path id="Path_450" data-name="Path 450" d="M835.453,385.691c7.027-5.359,3.016-35.819,3.016-35.819s-12.049-18.748-12.386-25.775-27.78-42.18-27.78-42.18c-3.682-2.005-7.7-9.37-7.7-9.37s-22.767-37.158-26.112-38.5l22.093,38.5s4.019,7.4,7.7,9.37c0,0,27.452,35.153,27.78,42.18s12.378,25.8,12.378,25.8,4.019,30.46-3.016,35.819c0,0,24.074,6.173,38.506,5.614C855.467,390.82,835.453,385.691,835.453,385.691Z" transform="translate(-764.49 -225.009)"/>
      <path id="Path_451" data-name="Path 451" d="M859.426,314.135l-.2-.255a5.288,5.288,0,0,1-.7.156C858.842,314.077,859.138,314.11,859.426,314.135Z" transform="translate(-781.238 -239.226)"/>
    </g>
    <g id="Group_44" data-name="Group 44" transform="translate(639.66 85.284)" opacity="0.1">
      <path id="Path_452" data-name="Path 452" d="M946.608,223l-.205.041c-.353,10.282-7.488,34.438-7.488,34.438,0,4.348-4.685,11.046-4.685,11.046s-19.413,29.794-23.769,33.813-2.679,12.049-2.679,12.049l.041.082c-.131-2.7.2-6.9,2.967-9.46,4.348-4.019,23.77-33.813,23.77-33.813s4.685-6.7,4.685-11.046C939.244,260.2,947.948,230.742,946.608,223Z" transform="translate(-904.099 -223)"/>
      <path id="Path_453" data-name="Path 453" d="M903.37,364.359c.5,2.844.164-.164.337,2.679,0,0,8.219-9.641,5.975-21.559C910.356,356.132,903.37,364.359,903.37,364.359Z" transform="translate(-903.37 -244.813)"/>
    </g>
    <ellipse id="Ellipse_81" data-name="Ellipse 81" cx="351.504" cy="33.764" rx="351.504" ry="33.764" transform="translate(34.615 476.183)" fill="#0053ff" opacity="0.1"/>
    <path id="Path_454" data-name="Path 454" d="M428.089,669.89s-11.967-40.643,2.244-70.552a64.191,64.191,0,0,0,5.194-40.273,107.956,107.956,0,0,0-5.7-18.9" transform="translate(-178.225 -194.2)" fill="none" stroke="#535461" stroke-miterlimit="10" stroke-width="2"/>
    <path id="Path_455" data-name="Path 455" d="M438.077,515.076c0,4.981-9.041,19.422-9.041,19.422s-9.041-14.441-9.041-19.422a9.041,9.041,0,1,1,18.033,0Z" transform="translate(-177.618 -188.004)" fill="#0053ff"/>
    <path id="Path_456" data-name="Path 456" d="M456.183,547.6c-2.7,4.184-18.123,11.4-18.123,11.4s.28-17.022,2.984-21.205a9.041,9.041,0,1,1,15.14,9.805Z" transform="translate(-180.84 -192.948)" fill="#0053ff"/>
    <path id="Path_457" data-name="Path 457" d="M454.69,604.34c-4.447,2.244-21.37.69-21.37.69s8.835-14.556,13.282-16.8a9.041,9.041,0,1,1,8.12,16.1Z" transform="translate(-179.996 -202.532)" fill="#0053ff"/>
    <path id="Path_458" data-name="Path 458" d="M444.4,647.942c-4,2.959-20.983,4.3-20.983,4.3s6.246-15.838,10.257-18.805a9.041,9.041,0,0,1,10.685,14.5Z" transform="translate(-178.233 -210.578)" fill="#0053ff"/>
    <path id="Path_459" data-name="Path 459" d="M414.3,562.332c3.575,3.468,20.219,7.068,20.219,7.068s-4.11-16.529-7.652-20.005A9.041,9.041,0,1,0,414.3,562.332Z" transform="translate(-176.036 -195.307)" fill="#0053ff"/>
    <path id="Path_460" data-name="Path 460" d="M402.579,612.918c4.447,2.244,21.37.69,21.37.69s-8.8-14.556-13.249-16.759a9.041,9.041,0,0,0-8.12,16.1Z" transform="translate(-173.74 -204.173)" fill="#0053ff"/>
    <path id="Path_461" data-name="Path 461" d="M398.2,663.775c4,2.959,20.983,4.3,20.983,4.3s-6.247-15.838-10.257-18.805a9.041,9.041,0,1,0-10.685,14.5Z" transform="translate(-172.974 -213.228)" fill="#0053ff"/>
    <path id="Path_462" data-name="Path 462" d="M438.077,515.076c0,4.981-9.041,19.422-9.041,19.422s-9.041-14.441-9.041-19.422a9.041,9.041,0,1,1,18.033,0Z" transform="translate(-177.618 -188.004)" fill="#0053ff" opacity="0.1"/>
    <path id="Path_463" data-name="Path 463" d="M456.183,547.6c-2.7,4.184-18.123,11.4-18.123,11.4s.28-17.022,2.984-21.205a9.041,9.041,0,1,1,15.14,9.805Z" transform="translate(-180.84 -192.948)" fill="#0053ff" opacity="0.1"/>
    <path id="Path_464" data-name="Path 464" d="M454.69,604.34c-4.447,2.244-21.37.69-21.37.69s8.835-14.556,13.282-16.8a9.041,9.041,0,1,1,8.12,16.1Z" transform="translate(-179.996 -202.532)" fill="#0053ff" opacity="0.1"/>
    <path id="Path_465" data-name="Path 465" d="M444.4,647.942c-4,2.959-20.983,4.3-20.983,4.3s6.246-15.838,10.257-18.805a9.041,9.041,0,0,1,10.685,14.5Z" transform="translate(-178.233 -210.578)" fill="#0053ff" opacity="0.1"/>
    <path id="Path_466" data-name="Path 466" d="M414.3,562.332c3.575,3.468,20.219,7.068,20.219,7.068s-4.11-16.529-7.652-20.005A9.041,9.041,0,1,0,414.3,562.332Z" transform="translate(-176.036 -195.307)" fill="#0053ff" opacity="0.1"/>
    <path id="Path_467" data-name="Path 467" d="M402.579,612.918c4.447,2.244,21.37.69,21.37.69s-8.8-14.556-13.249-16.759a9.041,9.041,0,0,0-8.12,16.1Z" transform="translate(-173.74 -204.173)" fill="#0053ff" opacity="0.1"/>
    <path id="Path_468" data-name="Path 468" d="M398.2,663.775c4,2.959,20.983,4.3,20.983,4.3s-6.247-15.838-10.257-18.805a9.041,9.041,0,1,0-10.685,14.5Z" transform="translate(-172.974 -213.228)" fill="#0053ff" opacity="0.1"/>
    <path id="Path_469" data-name="Path 469" d="M722.729,670.6s-11.967-40.643,2.244-70.552a64.191,64.191,0,0,0,5.195-40.273,107.942,107.942,0,0,0-5.7-18.9" transform="translate(-230.699 -194.327)" fill="none" stroke="#535461" stroke-miterlimit="10" stroke-width="2"/>
    <path id="Path_470" data-name="Path 470" d="M732.7,516.066c0,4.981-9.041,19.422-9.041,19.422s-9.041-14.441-9.041-19.422a9.041,9.041,0,0,1,18.032,0Z" transform="translate(-230.094 -188.418)" fill="#0053ff"/>
    <path id="Path_471" data-name="Path 471" d="M750.833,548.3c-2.7,4.183-18.123,11.4-18.123,11.4s.279-17.022,2.984-21.205a9.041,9.041,0,1,1,15.14,9.805Z" transform="translate(-233.316 -193.072)" fill="#0053ff"/>
    <path id="Path_472" data-name="Path 472" d="M749.37,605.036c-4.446,2.244-21.37.69-21.37.69s8.836-14.556,13.282-16.8a9.041,9.041,0,1,1,8.088,16.109Z" transform="translate(-232.477 -202.653)" fill="#0053ff"/>
    <path id="Path_473" data-name="Path 473" d="M739.043,648.642c-4,2.959-20.983,4.3-20.983,4.3s6.246-15.838,10.257-18.805A9.041,9.041,0,0,1,739,648.633Z" transform="translate(-230.707 -210.702)" fill="#0053ff"/>
    <path id="Path_474" data-name="Path 474" d="M708.962,563.032c3.575,3.468,20.219,7.068,20.219,7.068s-4.109-16.529-7.652-20.005a9.041,9.041,0,1,0-12.567,12.937Z" transform="translate(-228.513 -195.431)" fill="#0053ff"/>
    <path id="Path_475" data-name="Path 475" d="M697.212,613.609c4.446,2.244,21.37.69,21.37.69s-8.835-14.556-13.282-16.8a9.041,9.041,0,0,0-8.12,16.1Z" transform="translate(-226.206 -204.289)" fill="#0053ff"/>
    <path id="Path_476" data-name="Path 476" d="M693.128,664.682c4,2.959,20.983,4.3,20.983,4.3s-6.246-15.838-10.257-18.805a9.041,9.041,0,0,0-10.685,14.5Z" transform="translate(-225.73 -213.559)" fill="#0053ff"/>
    <path id="Path_477" data-name="Path 477" d="M732.7,516.066c0,4.981-9.041,19.422-9.041,19.422s-9.041-14.441-9.041-19.422a9.041,9.041,0,0,1,18.032,0Z" transform="translate(-230.094 -188.418)" fill="#0053ff" opacity="0.1"/>
    <path id="Path_478" data-name="Path 478" d="M750.833,548.3c-2.7,4.183-18.123,11.4-18.123,11.4s.279-17.022,2.984-21.205a9.041,9.041,0,1,1,15.14,9.805Z" transform="translate(-233.316 -193.072)" fill="#0053ff" opacity="0.1"/>
    <path id="Path_479" data-name="Path 479" d="M749.37,605.036c-4.446,2.244-21.37.69-21.37.69s8.836-14.556,13.282-16.8a9.041,9.041,0,1,1,8.088,16.109Z" transform="translate(-232.477 -202.653)" fill="#0053ff" opacity="0.1"/>
    <path id="Path_480" data-name="Path 480" d="M739.043,648.642c-4,2.959-20.983,4.3-20.983,4.3s6.246-15.838,10.257-18.805A9.041,9.041,0,0,1,739,648.633Z" transform="translate(-230.707 -210.702)" fill="#0053ff" opacity="0.1"/>
    <path id="Path_481" data-name="Path 481" d="M708.962,563.032c3.575,3.468,20.219,7.068,20.219,7.068s-4.109-16.529-7.652-20.005a9.041,9.041,0,1,0-12.567,12.937Z" transform="translate(-228.513 -195.431)" fill="#0053ff" opacity="0.1"/>
    <path id="Path_482" data-name="Path 482" d="M697.212,613.609c4.446,2.244,21.37.69,21.37.69s-8.835-14.556-13.282-16.8a9.041,9.041,0,0,0-8.12,16.1Z" transform="translate(-226.206 -204.289)" fill="#0053ff" opacity="0.1"/>
    <path id="Path_483" data-name="Path 483" d="M693.128,664.682c4,2.959,20.983,4.3,20.983,4.3s-6.246-15.838-10.257-18.805a9.041,9.041,0,0,0-10.685,14.5Z" transform="translate(-225.73 -213.559)" fill="#0053ff" opacity="0.1"/>
    <path id="Path_484" data-name="Path 484" d="M783.545,132.984h-5.162a3.616,3.616,0,1,0,0-7.225H736.532a3.616,3.616,0,0,0,0,7.225h5.162a3.616,3.616,0,0,0,0,7.225h-7.225a3.616,3.616,0,1,0,0,7.225h41.819a3.616,3.616,0,1,0,0-7.225h7.257a3.616,3.616,0,0,0,0-7.225Z" transform="translate(-232.955 -120.397)" fill="#dee3f3" opacity="0.5"/>
    <path id="Path_485" data-name="Path 485" d="M492.064,159h-3.929a2.753,2.753,0,1,0,0-5.5H456.311a2.753,2.753,0,0,0,0,5.5h3.929a2.753,2.753,0,1,0,0,5.5h-5.5a2.753,2.753,0,1,0,0,5.5h31.824a2.753,2.753,0,1,0,0-5.5h5.5a2.753,2.753,0,0,0,0-5.5Z" transform="translate(-183.294 -125.337)" fill="#dee3f3" opacity="0.5"/>
    <path id="Path_486" data-name="Path 486" d="M175.285,634s14.383,28.232,2.663,43.676,1.068,57.533,1.068,57.533" transform="translate(-133.635 -210.913)" fill="none" stroke="#0053ff" stroke-miterlimit="10" stroke-width="1"/>
    <path id="Path_487" data-name="Path 487" d="M179.269,621.123c0,5.441-3.994,9.863-3.994,9.863s-3.994-4.414-3.994-9.863,3.994-9.863,3.994-9.863S179.269,615.682,179.269,621.123Z" transform="translate(-133.328 -206.863)" fill="#0053ff"/>
    <path id="Path_488" data-name="Path 488" d="M183.277,634s-14.383,28.232-2.663,43.676-1.068,57.533-1.068,57.533" transform="translate(-134.171 -210.913)" fill="none" stroke="#0053ff" stroke-miterlimit="10" stroke-width="1"/>
    <path id="Path_489" data-name="Path 489" d="M179.67,621.123c0,5.441,3.994,9.863,3.994,9.863s3.994-4.414,3.994-9.863-3.994-9.863-3.994-9.863S179.67,615.682,179.67,621.123Z" transform="translate(-134.822 -206.863)" fill="#0053ff"/>
    <path id="Path_490" data-name="Path 490" d="M179.67,621.123c0,5.441,3.994,9.863,3.994,9.863s3.994-4.414,3.994-9.863-3.994-9.863-3.994-9.863S179.67,615.682,179.67,621.123Z" transform="translate(-134.822 -206.863)" opacity="0.1"/>
    <path id="Path_491" data-name="Path 491" d="M191.505,634s14.383,28.232,2.663,43.676,1.068,57.533,1.068,57.533" transform="translate(-136.524 -210.913)" fill="none" stroke="#0053ff" stroke-miterlimit="10" stroke-width="1"/>
    <path id="Path_492" data-name="Path 492" d="M195.439,621.123c0,5.441-3.994,9.863-3.994,9.863s-3.994-4.414-3.994-9.863,3.994-9.863,3.994-9.863S195.439,615.682,195.439,621.123Z" transform="translate(-136.208 -206.863)" fill="#0053ff"/>
    <path id="Path_493" data-name="Path 493" d="M192.335,648.643c-3.773,3.92-9.715,4.331-9.715,4.331s.181-5.951,3.953-9.863,9.715-4.331,9.715-4.331S196.083,644.714,192.335,648.643Z" transform="translate(-135.348 -211.764)" fill="#0053ff"/>
    <path id="Path_494" data-name="Path 494" d="M192.795,672.343c-3.773,3.921-9.715,4.331-9.715,4.331s.181-5.951,3.953-9.863,9.715-4.331,9.715-4.331S196.567,668.414,192.795,672.343Z" transform="translate(-135.43 -215.985)" fill="#0053ff"/>
    <path id="Path_495" data-name="Path 495" d="M167.946,686.465c3.567,4.11,3.444,10.06,3.444,10.06s-5.91-.715-9.477-4.825-3.444-10.06-3.444-10.06S164.379,682.355,167.946,686.465Z" transform="translate(-131.047 -219.397)" fill="#0053ff"/>
    <path id="Path_496" data-name="Path 496" d="M171.742,636.514c4.537,3.008,6.008,8.778,6.008,8.778s-5.885.9-10.422-2.112-6.008-8.778-6.008-8.778S167.23,633.49,171.742,636.514Z" transform="translate(-131.554 -210.961)" fill="#0053ff"/>
    <path id="Path_497" data-name="Path 497" d="M171.742,636.514c4.537,3.008,6.008,8.778,6.008,8.778s-5.885.9-10.422-2.112-6.008-8.778-6.008-8.778S167.23,633.49,171.742,636.514Z" transform="translate(-131.554 -210.961)" opacity="0.1"/>
    <path id="Path_498" data-name="Path 498" d="M199.477,634s-14.383,28.232-2.663,43.676-1.068,57.533-1.068,57.533" transform="translate(-137.057 -210.913)" fill="none" stroke="#0053ff" stroke-miterlimit="10" stroke-width="1"/>
    <path id="Path_499" data-name="Path 499" d="M195.87,621.123c0,5.441,3.994,9.863,3.994,9.863s3.994-4.414,3.994-9.863-3.994-9.863-3.994-9.863S195.87,615.682,195.87,621.123Z" transform="translate(-137.707 -206.863)" fill="#0053ff"/>
    <path id="Path_500" data-name="Path 500" d="M195.87,621.123c0,5.441,3.994,9.863,3.994,9.863s3.994-4.414,3.994-9.863-3.994-9.863-3.994-9.863S195.87,615.682,195.87,621.123Z" transform="translate(-137.707 -206.863)" opacity="0.1"/>
    <path id="Path_501" data-name="Path 501" d="M196.38,650.376c-3.822,3.879-4.11,9.863-4.11,9.863s5.942-.337,9.764-4.216,4.11-9.863,4.11-9.863S200.2,646.5,196.38,650.376Z" transform="translate(-137.066 -213.078)" fill="#0053ff"/>
    <path id="Path_502" data-name="Path 502" d="M196.38,650.376c-3.822,3.879-4.11,9.863-4.11,9.863s5.942-.337,9.764-4.216,4.11-9.863,4.11-9.863S200.2,646.5,196.38,650.376Z" transform="translate(-137.066 -213.078)" opacity="0.1"/>
    <path id="Path_503" data-name="Path 503" d="M205.49,683.186c-3.822,3.879-4.11,9.863-4.11,9.863s5.942-.337,9.764-4.216,4.11-9.863,4.11-9.863S209.287,679.307,205.49,683.186Z" transform="translate(-138.689 -218.921)" fill="#0053ff"/>
    <path id="Path_504" data-name="Path 504" d="M193,673.862s8.655-13.644,20.811-13.972" transform="translate(-137.196 -215.523)" fill="none" stroke="#0053ff" stroke-miterlimit="10" stroke-width="1"/>
    <path id="Path_505" data-name="Path 505" d="M180.261,663.832s-8.655-13.644-20.811-13.972" transform="translate(-131.221 -213.737)" fill="none" stroke="#0053ff" stroke-miterlimit="10" stroke-width="1"/>
    <path id="Path_506" data-name="Path 506" d="M183.4,687.532s8.655-13.644,20.811-13.972" transform="translate(-135.487 -217.958)" fill="none" stroke="#0053ff" stroke-miterlimit="10" stroke-width="1"/>
    <circle id="Ellipse_82" data-name="Ellipse 82" cx="2.244" cy="2.244" r="2.244" transform="translate(73.951 442.049)" fill="#0053ff"/>
    <circle id="Ellipse_83" data-name="Ellipse 83" cx="2.244" cy="2.244" r="2.244" transform="translate(26.199 433.994)" fill="#0053ff"/>
    <path id="Path_507" data-name="Path 507" d="M186.641,692.972S177.986,679.329,165.83,679" transform="translate(-132.357 -218.927)" fill="none" stroke="#0053ff" stroke-miterlimit="10" stroke-width="1"/>
    <circle id="Ellipse_84" data-name="Ellipse 84" cx="2.244" cy="2.244" r="2.244" transform="translate(31.442 457.961)" fill="#0053ff"/>
    <circle id="Ellipse_85" data-name="Ellipse 85" cx="2.244" cy="2.244" r="2.244" transform="translate(66.645 453.473)" fill="#0053ff"/>
    <path id="Path_508" data-name="Path 508" d="M231.631,732.709s-20.86-4.175-26.432-9.74-30.591-15.3-33.378-8.342-37.553,30.6-13.907,34.775,55.635,5.564,62.588,2.778S231.631,732.709,231.631,732.709Z" transform="translate(-129.488 -224.842)" fill="#a8a8a8"/>
    <path id="Path_509" data-name="Path 509" d="M157.916,751.222c23.646,4.175,55.635,5.564,62.588,2.778,5.293-2.121,8.975-12.329,10.43-17.03l.7.148s-4.175,16.693-11.129,19.471-38.942,1.389-62.588-2.778c-6.822-1.208-8.778-4.036-8.038-7.611C150.453,748.5,152.837,750.326,157.916,751.222Z" transform="translate(-129.49 -229.251)" opacity="0.2"/>
    <path id="Path_510" data-name="Path 510" d="M1015.824,641.78s6.888,9.041-3.181,22.6-18.37,25.076-15.008,33.558c0,0,15.189-25.257,27.55-25.611S1029.427,656.961,1015.824,641.78Z" transform="translate(-280.362 -212.298)" fill="#0053ff"/>
    <path id="Path_511" data-name="Path 511" d="M1015.909,641.78a11.148,11.148,0,0,1,1.406,2.827c12.065,14.17,18.484,27.394,6.9,27.731-10.8.312-23.753,19.619-26.86,24.5a10.5,10.5,0,0,0,.37,1.109s15.189-25.257,27.55-25.611S1029.511,656.961,1015.909,641.78Z" transform="translate(-280.447 -212.298)" opacity="0.1"/>
    <path id="Path_512" data-name="Path 512" d="M1035.154,655.3c0,3.172-.353,5.753-.822,5.753s-.822-2.573-.822-5.753.444-1.644.879-1.644S1035.154,652.139,1035.154,655.3Z" transform="translate(-286.887 -214.348)" fill="#ffd037"/>
    <path id="Path_513" data-name="Path 513" d="M1039.683,659.88c-2.786,1.521-5.211,2.466-5.416,2.047s1.874-1.931,4.66-3.444,1.685-.411,1.9,0S1042.461,658.359,1039.683,659.88Z" transform="translate(-287.019 -215.135)" fill="#ffd037"/>
    <path id="Path_514" data-name="Path 514" d="M972.321,641.78s-6.888,9.041,3.181,22.6,18.369,25.076,15.008,33.558c0,0-15.189-25.257-27.55-25.611S958.718,656.961,972.321,641.78Z" transform="translate(-273.236 -212.298)" fill="#0053ff"/>
    <path id="Path_515" data-name="Path 515" d="M972.32,641.78a11.156,11.156,0,0,0-1.405,2.827c-12.066,14.17-18.485,27.394-6.9,27.731,10.8.312,23.753,19.619,26.86,24.5a10.442,10.442,0,0,1-.37,1.109s-15.189-25.257-27.55-25.611S958.718,656.961,972.32,641.78Z" transform="translate(-273.236 -212.298)" opacity="0.1"/>
    <path id="Path_516" data-name="Path 516" d="M960.09,655.3c0,3.172.353,5.753.822,5.753s.822-2.573.822-5.753-.444-1.644-.879-1.644S960.09,652.139,960.09,655.3Z" transform="translate(-273.811 -214.348)" fill="#ffd037"/>
    <path id="Path_517" data-name="Path 517" d="M954.372,659.88c2.786,1.521,5.211,2.466,5.417,2.047s-1.874-1.931-4.66-3.444-1.685-.411-1.9,0S951.586,658.359,954.372,659.88Z" transform="translate(-272.49 -215.135)" fill="#ffd037"/>
    <path id="Path_518" data-name="Path 518" d="M962.76,706.416s19.257-.592,25.06-4.726,29.589-9.041,31.06-2.466,28.939,32.967,7.2,33.139-50.514-3.386-56.309-6.912S962.76,706.416,962.76,706.416Z" transform="translate(-274.287 -221.957)" fill="#a8a8a8"/>
    <path id="Path_519" data-name="Path 519" d="M1026.466,732.337c-21.739.173-50.514-3.386-56.309-6.912-4.414-2.688-6.172-12.329-6.756-16.775h-.641s1.216,15.534,7.011,19.06,34.569,7.093,56.309,6.912c6.279-.049,8.441-2.285,8.326-5.589C1033.534,731.047,1031.176,732.3,1026.466,732.337Z" transform="translate(-274.287 -224.207)" opacity="0.2"/>
    <path id="Path_520" data-name="Path 520" d="M291.567,192.314h-5.162a3.616,3.616,0,1,0,0-7.225H244.587a3.616,3.616,0,0,0,0,7.225h5.162a3.616,3.616,0,0,0,0,7.225h-7.225a3.616,3.616,0,0,0,0,7.225h41.819a3.616,3.616,0,1,0,0-7.225h7.225a3.616,3.616,0,0,0,0-7.225Z" transform="translate(-145.403 -130.963)" fill="#dee3f3" opacity="0.5"/>
  </g>
</svg>
