<svg xmlns="http://www.w3.org/2000/svg" width="631.106" height="502.836" viewBox="0 0 631.106 502.836">
  <g id="Group_147" data-name="Group 147" transform="translate(-1135 -7123.007)">
    <circle id="Ellipse_220" data-name="Ellipse 220" cx="20.321" cy="20.321" r="20.321" transform="translate(1588.133 7138.858)" fill="#2f2e41"/>
    <path id="Path_1175" data-name="Path 1175" d="M830.921,116.73s-2.939,37.014-6.466,37.014S865.6,152,865.6,152s-18.811-24.385-9.406-32.224S830.921,116.73,830.921,116.73Z" transform="translate(763.172 7054.847)" fill="#9f616a"/>
    <path id="Path_1176" data-name="Path 1176" d="M830.921,116.73s-2.939,37.014-6.466,37.014S865.6,152,865.6,152s-18.811-24.385-9.406-32.224S830.921,116.73,830.921,116.73Z" transform="translate(763.172 7054.847)" opacity="0.1"/>
    <path id="Path_1177" data-name="Path 1177" d="M587.685,589.348a176.7,176.7,0,1,1,124.944-51.754A176.7,176.7,0,0,1,587.685,589.348Zm0-351.564c-96.422,0-174.866,78.445-174.866,174.866s78.444,174.866,174.866,174.866S762.552,509.071,762.552,412.65,684.107,237.784,587.685,237.784Z" transform="translate(924.208 7007.835)" fill="#3f3d56"/>
    <path id="Path_1178" data-name="Path 1178" d="M868.376,250.335l-20.54,5.878,28.691-1.309a25.264,25.264,0,0,1,17.713,5.96c5.112,4.425,9.232,11.444,5.264,21.82-7.935,20.752-20.142,40.283-20.142,40.283l-7.935,15.259s-16.48,2.441-17.09-2.441,0-7.324,3.052-9.766a14.95,14.95,0,0,0,4.883-9.766c0-2.441-.61-4.883,1.221-6.1s2.441-3.052,2.441-6.714,10.588-19.757,10.588-19.757-22.185-7.709-31.738-1.221-28.9,35.016-28.9,35.016a18.366,18.366,0,0,0-3.154,4.481,15.837,15.837,0,0,1-3.99,4.962c-1.775,1.56-.14,5.856.43,6.426.61.61,6.714,25.025,6.714,25.025s6.714,11.6-.61,12.207-14.038,1.221-14.648,0a33.172,33.172,0,0,0-2.441-4.883c-1.831-3.052,0-9.766,0-9.766s-17.7-22.583-12.207-36.621,17.09-45.777,17.09-45.777l17.7-7.324,32.349-11.6Z" transform="translate(778.5 7002.224)" fill="#2f2e41"/>
    <path id="Path_1179" data-name="Path 1179" d="M693.611,127.4l-25.025-4.883s-6.1-20.752-13.428-18.311,4.883,23.193,4.883,23.193l34.79,15.869Z" transform="translate(829.972 7059.24)" fill="#a0616a"/>
    <path id="Path_1180" data-name="Path 1180" d="M960.47,176.335l10.986,14.038s15.869-.61,10.986,7.935-15.869,3.662-16.479,1.831-18.311-17.7-18.311-17.7Z" transform="translate(715.091 7031.058)" fill="#a0616a"/>
    <path id="Path_1181" data-name="Path 1181" d="M810.319,141.679,794.45,153.886l-9.766-14.649L709,134.965V159.99c18.626-5.378,35.77-7.044,49.439,0,17.3,23.037,21.108,48.054,10.164,75.234l89.324-31.289c-26.772-9.969-39.2-24.421-35.4-43.945l31.128,10.986,18.921-14.038C855.655,145.552,830.474,138.411,810.319,141.679Z" transform="translate(808.082 7047.178)" fill="#0053ff"/>
    <ellipse id="Ellipse_221" data-name="Ellipse 221" cx="315.553" cy="23.804" rx="315.553" ry="23.804" transform="translate(1135 7578.236)" fill="#3f3d56"/>
    <ellipse id="Ellipse_222" data-name="Ellipse 222" cx="213.319" cy="15.869" rx="213.319" ry="15.869" transform="translate(1149.038 7585.56)" opacity="0.1"/>
    <path id="Path_1182" data-name="Path 1182" d="M1018,750.308c-2.033,17.817,8.92,33.7,8.92,33.7s14.25-13,16.283-30.821-8.92-33.7-8.92-33.7S1020.032,732.491,1018,750.308Z" transform="translate(687.779 6819.421)" fill="#2f2e41"/>
    <path id="Path_1183" data-name="Path 1183" d="M1013.708,752.868c7.329,16.366,1.694,34.817,1.694,34.817s-17.516-8.084-24.845-24.45-1.694-34.817-1.694-34.817S1006.378,736.5,1013.708,752.868Z" transform="translate(699.84 6815.941)" fill="#0053ff"/>
    <circle id="Ellipse_223" data-name="Ellipse 223" cx="68.394" cy="68.394" r="68.394" transform="translate(1448.419 7464.313)" fill="#f2f2f2"/>
    <path id="Path_1184" data-name="Path 1184" d="M484.295,495.7l-16.849,42.122-60.925.489-19.848.16-47.1.379-19.839.16-47.1.379-19.839.16-47.1.388-19.839.16-31.793.253-6.15-12.586-7.978-16.3-4.406-9.022L133,495.7l15.122-47.892a23.088,23.088,0,0,1,22.013-16.133H445.256A23.093,23.093,0,0,1,467,447.024l1.752,4.937Z" transform="translate(1032.518 6931.566)" fill="#0053ff"/>
    <rect id="Rectangle_220" data-name="Rectangle 220" width="351.295" height="88.456" transform="translate(1165.518 7427.267)" fill="#0053ff"/>
    <rect id="Rectangle_221" data-name="Rectangle 221" width="351.295" height="88.456" transform="translate(1165.518 7427.267)" opacity="0.1"/>
    <rect id="Rectangle_222" data-name="Rectangle 222" width="10.363" height="10.363" transform="translate(1511.631 7305.765)" fill="#3f3d56"/>
    <rect id="Rectangle_223" data-name="Rectangle 223" width="10.363" height="10.363" transform="translate(1539.61 7527.525)" fill="#3f3d56"/>
    <rect id="Rectangle_224" data-name="Rectangle 224" width="224.93" height="283.057" transform="translate(1228.279 7313.116)" fill="#f2f2f2"/>
    <rect id="Rectangle_225" data-name="Rectangle 225" width="65.709" height="9.267" transform="translate(1275.455 7333.334)" fill="#3f3d56"/>
    <rect id="Rectangle_226" data-name="Rectangle 226" width="197.972" height="4.212" transform="translate(1240.915 7371.244)" fill="#e6e6e6"/>
    <rect id="Rectangle_227" data-name="Rectangle 227" width="197.972" height="4.212" transform="translate(1240.915 7384.723)" fill="#e6e6e6"/>
    <rect id="Rectangle_228" data-name="Rectangle 228" width="197.972" height="4.212" transform="translate(1240.915 7398.201)" fill="#e6e6e6"/>
    <rect id="Rectangle_229" data-name="Rectangle 229" width="197.972" height="4.212" transform="translate(1240.915 7411.68)" fill="#e6e6e6"/>
    <rect id="Rectangle_230" data-name="Rectangle 230" width="197.972" height="4.212" transform="translate(1240.915 7425.159)" fill="#e6e6e6"/>
    <rect id="Rectangle_231" data-name="Rectangle 231" width="197.972" height="4.212" transform="translate(1240.915 7438.639)" fill="#e6e6e6"/>
    <path id="Path_1185" data-name="Path 1185" d="M261.191,392a14.321,14.321,0,1,1,14.321-14.321A14.321,14.321,0,0,1,261.191,392Zm0-26.958a12.637,12.637,0,1,0,12.637,12.636,12.637,12.637,0,0,0-12.637-12.636Z" transform="translate(988.149 6958.187)" fill="#0053ff"/>
    <path id="Path_1186" data-name="Path 1186" d="M401.295,674.563H50V498.495l45.492,35.382,262-1.685,43.807-33.7Z" transform="translate(1115.518 6928.771)" fill="#3f3d56"/>
    <rect id="Rectangle_232" data-name="Rectangle 232" width="65.709" height="9.267" transform="translate(1183.63 7562.476)" fill="#f2f2f2"/>
    <path id="Path_1188" data-name="Path 1188" d="M911.154,388.989s3.662,14.038,4.883,14.649,14.649,12.207,5.493,14.038-15.869,1.221-17.7-.61-1.221-3.662-4.273-4.272-8.545-2.441-7.935-6.714,3.662-15.869,5.493-17.09S911.154,388.989,911.154,388.989Z" transform="translate(736.942 6948.41)" fill="#2f2e41"/>
    <path id="Path_1189" data-name="Path 1189" d="M821.449,440.335s5.493,4.273,2.441,12.207-7.324,16.48-7.324,16.48-4.883,15.259-12.817,12.817c-3.223-.992-4.835-3.7-5.613-6.558a15.684,15.684,0,0,1,2.217-12.762l4.617-6.925,4.883-12.817Z" transform="translate(773.546 6928.191)" fill="#2f2e41"/>
    <path id="Path_1190" data-name="Path 1190" d="M795,503.15c10.941,0,24.478-3.625,37.67-16.725,32.294-32.073,62.975-35.291,63.28-35.319l-.114-1.216c-.311.029-31.426,3.29-64.027,35.668-16.752,16.638-34.043,17.657-45.6,15.581a56.983,56.983,0,0,1-21.362-8.609l-.721.985a58.255,58.255,0,0,0,21.819,8.817,50.969,50.969,0,0,0,9.052.819Z" transform="translate(786.603 6924.468)" fill="#2f2e41"/>
    <circle id="Ellipse_224" data-name="Ellipse 224" cx="7.324" cy="7.324" r="7.324" transform="translate(1658.777 7386.532)" fill="#2f2e41"/>
    <circle id="Ellipse_225" data-name="Ellipse 225" cx="7.324" cy="7.324" r="7.324" transform="translate(1606.897 7420.712)" fill="#2f2e41"/>
    <circle id="Ellipse_226" data-name="Ellipse 226" cx="14.646" cy="14.646" r="14.646" transform="translate(1592.161 7156.04)" fill="#a0616a"/>
    <path id="Path_1191" data-name="Path 1191" d="M870.713,38.078a11.108,11.108,0,0,1-6.409,4.406c-4.482,1.2-.037,7.935-.037,7.935a4.148,4.148,0,0,1,.715-5.043C867.313,42.783,871.065,41.01,870.713,38.078Z" transform="translate(748.348 7084.929)" fill="#2f2e41"/>
    <circle id="Ellipse_227" data-name="Ellipse 227" cx="5.663" cy="5.663" r="5.663" transform="translate(1606.157 7131.301)" fill="#2f2e41"/>
    <path id="Path_1192" data-name="Path 1192" d="M865.686,64.9c-4.617-1.746-12.3-2.632-16.259-2.026l.542-3.961c3.8,1.965,11.454,2.888,16.259,2.026Z" transform="translate(753.365 7076.811)" fill="#3f3d56"/>
    <path id="Path_1193" data-name="Path 1193" d="M843.31,76.044s-5.786,9.624-19.24,13.227-.11,23.821-.11,23.821-4.853-7.352,2.147-15.138S844.369,84.845,843.31,76.044Z" transform="translate(765.586 7070.136)" fill="#2f2e41"/>
    <path id="Path_1194" data-name="Path 1194" d="M860.091,75.086s5.558,13.219,11.661,14.469,5.639,22.137-3.9,25.269c0,0,6.959-12.245,1.011-20.457S859.153,79.663,860.091,75.086Z" transform="translate(749.266 7070.509)" fill="#2f2e41"/>
  </g>
</svg>
