<svg xmlns="http://www.w3.org/2000/svg" width="200" height="101.268" viewBox="0 0 275.745 101.268">
  <g id="Group_77" data-name="Group 77" transform="translate(579.249 -1159.046)">
    <circle id="Ellipse_106" data-name="Ellipse 106" cx="7.134" cy="7.134" r="7.134" transform="translate(-579.249 1159.046)" fill="#e4ecff"/>
    <circle id="Ellipse_111" data-name="Ellipse 111" cx="7.134" cy="7.134" r="7.134" transform="translate(-579.249 1188.046)" fill="#e4ecff"/>
    <circle id="Ellipse_116" data-name="Ellipse 116" cx="7.134" cy="7.134" r="7.134" transform="translate(-579.249 1217.046)" fill="#e4ecff"/>
    <circle id="Ellipse_121" data-name="Ellipse 121" cx="7.134" cy="7.134" r="7.134" transform="translate(-579.249 1246.046)" fill="#e4ecff"/>
    <circle id="Ellipse_108" data-name="Ellipse 108" cx="7.134" cy="7.134" r="7.134" transform="translate(-467.249 1159.046)" fill="#e4ecff"/>
    <circle id="Ellipse_113" data-name="Ellipse 113" cx="7.134" cy="7.134" r="7.134" transform="translate(-467.249 1188.046)" fill="#e4ecff"/>
    <circle id="Ellipse_118" data-name="Ellipse 118" cx="7.134" cy="7.134" r="7.134" transform="translate(-467.249 1217.046)" fill="#e4ecff"/>
    <circle id="Ellipse_123" data-name="Ellipse 123" cx="7.134" cy="7.134" r="7.134" transform="translate(-467.249 1246.046)" fill="#e4ecff"/>
    <circle id="Ellipse_107" data-name="Ellipse 107" cx="7.134" cy="7.134" r="7.134" transform="translate(-542.01 1159.046)" fill="#e4ecff"/>
    <circle id="Ellipse_112" data-name="Ellipse 112" cx="7.134" cy="7.134" r="7.134" transform="translate(-542.01 1188.046)" fill="#e4ecff"/>
    <circle id="Ellipse_117" data-name="Ellipse 117" cx="7.134" cy="7.134" r="7.134" transform="translate(-542.01 1217.046)" fill="#e4ecff"/>
    <circle id="Ellipse_122" data-name="Ellipse 122" cx="7.134" cy="7.134" r="7.134" transform="translate(-542.01 1246.046)" fill="#e4ecff"/>
    <circle id="Ellipse_109" data-name="Ellipse 109" cx="7.134" cy="7.134" r="7.134" transform="translate(-430.01 1159.046)" fill="#e4ecff"/>
    <circle id="Ellipse_114" data-name="Ellipse 114" cx="7.134" cy="7.134" r="7.134" transform="translate(-430.01 1188.046)" fill="#e4ecff"/>
    <circle id="Ellipse_119" data-name="Ellipse 119" cx="7.134" cy="7.134" r="7.134" transform="translate(-430.01 1217.046)" fill="#e4ecff"/>
    <circle id="Ellipse_124" data-name="Ellipse 124" cx="7.134" cy="7.134" r="7.134" transform="translate(-430.01 1246.046)" fill="#e4ecff"/>
    <circle id="Ellipse_110" data-name="Ellipse 110" cx="7.134" cy="7.134" r="7.134" transform="translate(-355.01 1159.046)" fill="#e4ecff"/>
    <circle id="Ellipse_115" data-name="Ellipse 115" cx="7.134" cy="7.134" r="7.134" transform="translate(-355.01 1188.046)" fill="#e4ecff"/>
    <circle id="Ellipse_120" data-name="Ellipse 120" cx="7.134" cy="7.134" r="7.134" transform="translate(-355.01 1217.046)" fill="#e4ecff"/>
    <circle id="Ellipse_125" data-name="Ellipse 125" cx="7.134" cy="7.134" r="7.134" transform="translate(-355.01 1246.046)" fill="#e4ecff"/>
    <path id="Path_675" data-name="Path 675" d="M7.134,0A7.134,7.134,0,1,1,0,7.134,7.134,7.134,0,0,1,7.134,0Z" transform="translate(-504.772 1159.046)" fill="#e4ecff"/>
    <path id="Path_678" data-name="Path 678" d="M7.134,0A7.134,7.134,0,1,1,0,7.134,7.134,7.134,0,0,1,7.134,0Z" transform="translate(-504.772 1188.046)" fill="#e4ecff"/>
    <path id="Path_681" data-name="Path 681" d="M7.134,0A7.134,7.134,0,1,1,0,7.134,7.134,7.134,0,0,1,7.134,0Z" transform="translate(-504.772 1217.046)" fill="#e4ecff"/>
    <path id="Path_684" data-name="Path 684" d="M7.134,0A7.134,7.134,0,1,1,0,7.134,7.134,7.134,0,0,1,7.134,0Z" transform="translate(-504.772 1246.046)" fill="#e4ecff"/>
    <path id="Path_676" data-name="Path 676" d="M7.134,0A7.134,7.134,0,1,1,0,7.134,7.134,7.134,0,0,1,7.134,0Z" transform="translate(-392.772 1159.046)" fill="#e4ecff"/>
    <path id="Path_679" data-name="Path 679" d="M7.134,0A7.134,7.134,0,1,1,0,7.134,7.134,7.134,0,0,1,7.134,0Z" transform="translate(-392.772 1188.046)" fill="#e4ecff"/>
    <path id="Path_682" data-name="Path 682" d="M7.134,0A7.134,7.134,0,1,1,0,7.134,7.134,7.134,0,0,1,7.134,0Z" transform="translate(-392.772 1217.046)" fill="#e4ecff"/>
    <path id="Path_685" data-name="Path 685" d="M7.134,0A7.134,7.134,0,1,1,0,7.134,7.134,7.134,0,0,1,7.134,0Z" transform="translate(-392.772 1246.046)" fill="#e4ecff"/>
    <path id="Path_677" data-name="Path 677" d="M7.134,0A7.134,7.134,0,1,1,0,7.134,7.134,7.134,0,0,1,7.134,0Z" transform="translate(-317.772 1159.046)" fill="#e4ecff"/>
    <path id="Path_680" data-name="Path 680" d="M7.134,0A7.134,7.134,0,1,1,0,7.134,7.134,7.134,0,0,1,7.134,0Z" transform="translate(-317.772 1188.046)" fill="#e4ecff"/>
    <path id="Path_683" data-name="Path 683" d="M7.134,0A7.134,7.134,0,1,1,0,7.134,7.134,7.134,0,0,1,7.134,0Z" transform="translate(-317.772 1217.046)" fill="#e4ecff"/>
    <path id="Path_686" data-name="Path 686" d="M7.134,0A7.134,7.134,0,1,1,0,7.134,7.134,7.134,0,0,1,7.134,0Z" transform="translate(-317.772 1246.046)" fill="#e4ecff"/>
  </g>
</svg>
