<svg xmlns="http://www.w3.org/2000/svg" width="278.573" height="186.639" viewBox="0 0 278.573 186.639">
  <g id="Group_93" data-name="Group 93" transform="translate(0)">
    <ellipse id="Ellipse_127" data-name="Ellipse 127" cx="7.275" cy="10.687" rx="7.275" ry="10.687" transform="translate(27.648 85.81) rotate(-57.207)" fill="#0053ff"/>
    <path id="Path_690" data-name="Path 690" d="M223.684,424.52s-.148,2.909-.427,7.791c-.615,10.7-1.882,30.892-3.69,50.7-1.488,16.315-3.342,32.374-5.5,42.662H211.8l5.931-50.475,5.058-43.05Z" transform="translate(-183.112 -339.035)" fill="#0053ff"/>
    <path id="Path_691" data-name="Path 691" d="M175.153,508.354H118.5l.092-108.844c19.589,23.353,29.988,42.607,34.527,58.368a79.262,79.262,0,0,1,1.836,7.813,65.023,65.023,0,0,1,.953,8.087L183.851,430.4C199.689,473.446,190.52,496.285,175.153,508.354Z" transform="translate(-118.5 -321.715)" fill="#3f3d56"/>
    <path id="Path_692" data-name="Path 692" d="M685.817,332.49c-2.229,6.6-5.646,12.611-12.611,12.611s-12.219-5.657-12.611-12.611c-.5-8.886,5.486-12.648,12.611-12.611C681.624,319.923,688.462,324.659,685.817,332.49Z" transform="translate(-493.893 -266.569)" fill="#2f2e41"/>
    <rect id="Rectangle_105" data-name="Rectangle 105" width="20.628" height="30.062" transform="translate(168.909 64.244)" fill="#2f2e41"/>
    <path id="Path_693" data-name="Path 693" d="M529.774,415.269l1.048,7.859,24.362-1.572-1.31-7.073Z" transform="translate(-366.881 -287.039)" fill="#ffb8b8"/>
    <path id="Path_694" data-name="Path 694" d="M673.8,412.74s3.144,8.645-2.882,9.955,1.048,7.073,1.048,7.073l9.431-.524,6.549-1.834,2.1-3.668s-8.121-4.191-5.763-10.74Z" transform="translate(-499.376 -330.877)" fill="#ffb8b8"/>
    <path id="Path_695" data-name="Path 695" d="M673.8,412.74s3.144,8.645-2.882,9.955,1.048,7.073,1.048,7.073l9.431-.524,6.549-1.834,2.1-3.668s-8.121-4.191-5.763-10.74Z" transform="translate(-499.376 -330.877)" opacity="0.1"/>
    <path id="Path_696" data-name="Path 696" d="M745.4,522.154l.524,19.909a18.811,18.811,0,0,0,5.5,6.549c3.668,2.62,13.884,6.287,13.884,6.287s9.431,11.526,10.74,3.668-8.121-8.907-8.121-8.907-11.788-9.431-12.574-11.264-1.572-13.36-1.31-15.98S745.4,522.154,745.4,522.154Z" transform="translate(-552.642 -405.974)" fill="#ffb8b8"/>
    <path id="Path_697" data-name="Path 697" d="M545.246,508.861l-1.834,17.29L521.931,546.06s-14.408,8.907-6.549,10.74,11.526-7.335,11.526-7.335l23.315-15.718s3.053-24.11,2.005-25.158S545.246,508.861,545.246,508.861Z" transform="translate(-391.725 -396.975)" fill="#ffb8b8"/>
    <path id="Path_698" data-name="Path 698" d="M667.551,444.2s-6.287,3.667-12.574,2.358-7.335-3.144-7.335-3.144-8.121,1.31-8.907,4.453,0,7.859,0,7.859-7.073,7.6-1.048,16.766l1.31,10.74s17.814-2.62,22,0,5.5.524,5.5.524l2.882-12.836,9.169-20.171s0-2.62-4.977-4.191S667.551,444.2,667.551,444.2Z" transform="translate(-476.366 -352.118)" fill="#0053ff"/>
    <path id="Path_699" data-name="Path 699" d="M746.114,459.6l3.406,2.62s3.406,18.6.524,19.123-12.312,1.834-12.312,0S746.114,459.6,746.114,459.6Z" transform="translate(-547.332 -363.327)" fill="#0053ff"/>
    <path id="Path_700" data-name="Path 700" d="M626.308,454.486h-1.834s-6.287,4.453-7.335,9.431-3.929,10.217-1.572,10.741,9.431,2.62,10.479,1.834S626.308,454.486,626.308,454.486Z" transform="translate(-462.105 -359.787)" fill="#0053ff"/>
    <path id="Path_701" data-name="Path 701" d="M631.964,631.387H560.1c9.27-21.074,26.065-50.288,26.065-50.288l1.045-3.93,26.034.009.689,3.659S623.914,608.45,631.964,631.387Z" transform="translate(-424.318 -444.749)" fill="#2f2e41"/>
    <circle id="Ellipse_128" data-name="Ellipse 128" cx="4.978" cy="4.978" r="4.978" transform="translate(174.335 46.009)" fill="#2f2e41"/>
    <path id="Path_702" data-name="Path 702" d="M680.005,292.478a4.978,4.978,0,0,1,4.48-4.953c-.163-.016-.329-.025-.5-.025a4.978,4.978,0,1,0,0,9.956c.168,0,.334-.009.5-.025A4.978,4.978,0,0,1,680.005,292.478Z" transform="translate(-506.666 -244.146)" fill="#2f2e41"/>
    <circle id="Ellipse_129" data-name="Ellipse 129" cx="11.002" cy="11.002" r="11.002" transform="translate(168.657 65.097)" fill="#ffb8b8"/>
    <path id="Path_703" data-name="Path 703" d="M663.107,347.529s-.1-.579-4.169.946-6.5,12.775-4.47,19.381a6.053,6.053,0,0,1-.935,5.925,9.788,9.788,0,0,0,3.47,15.2q.252.11.514.217l2.541,1.525a11.621,11.621,0,0,1-1.618-9.714,27.952,27.952,0,0,0,.5-14.309c-.186-.8-.4-1.621-.637-2.461-2.033-7.114-1.044-6.293,6.07-13.407A45.219,45.219,0,0,0,672,355.406c3.557,1.525,6.606,3.049,4.065,8.131s-8.639,9.655-4.573,16.261,4.573,4.065,4.065,6.606h0l-.508,2.541L678.1,385.9l-2.033,4.065s6.606,0,8.639-5.082l1.016,1.016s4.065-7.114-3.557-13.721c0,0-2.541-1.525,1.016-6.606s.825-16.007-3.748-18.04S663.107,347.529,663.107,347.529Z" transform="translate(-487.456 -285.092)" fill="#2f2e41"/>
    <path id="Path_704" data-name="Path 704" d="M384.231,171.887a51.741,51.741,0,0,0-28.474,6.255c-6.109,3.368-12.02,9.057-11.687,16.025.278,5.812,4.826,10.492,9.55,13.89A62.746,62.746,0,0,0,375.539,218.1c2.856.686,5.8,1.185,8.42,2.514a22.557,22.557,0,0,1,6.97,6.05c8.225,10.021,12.228,24.654,6.292,36.18-2.922,5.672-7.886,10.012-13.056,13.752-3.573,2.584-7.365,5.012-10.094,8.475a19.692,19.692,0,0,0-3.885,8.6c-1.419,7.758,2.228,16.041,8.516,20.8s14.851,6.088,22.5,4.152" transform="translate(-274.703 -163.995)" fill="#3f3d56"/>
    <circle id="Ellipse_130" data-name="Ellipse 130" cx="7.994" cy="7.994" r="7.994" transform="translate(101.467)" fill="#0053ff"/>
    <path id="Path_705" data-name="Path 705" d="M949.4,591.68A57.932,57.932,0,0,1,943.26,611.3H919.175a59.5,59.5,0,0,1-2.328-23.331,54.022,54.022,0,0,1,3.053-12.594,76.928,76.928,0,0,1,17.978-27.212S952.023,568.672,949.4,591.68Z" transform="translate(-671.149 -424.659)" fill="#4db6ac"/>
    <path id="Path_706" data-name="Path 706" d="M876.78,627.156h-28a53.992,53.992,0,0,1-6.765-11.128c-9.464-21.139-2.186-44.969-2.186-44.969a77.039,77.039,0,0,1,25.108,20.171,54.286,54.286,0,0,1,6.98,11.407A60.36,60.36,0,0,1,876.78,627.156Z" transform="translate(-616.187 -440.517)" fill="#0053ff"/>
  </g>
</svg>
