<svg xmlns="http://www.w3.org/2000/svg" xmlns:xlink="http://www.w3.org/1999/xlink" width="820" height="602.756" viewBox="0 0 820 602.756">
  <defs>
    <linearGradient id="linear-gradient" x1="0.501" y1="1" x2="0.501" gradientUnits="objectBoundingBox">
      <stop offset="0" stop-color="gray" stop-opacity="0.251"/>
      <stop offset="0.54" stop-color="gray" stop-opacity="0.122"/>
      <stop offset="1" stop-color="gray" stop-opacity="0.102"/>
    </linearGradient>
  </defs>
  <g id="Ilustration" transform="translate(0 0.003)">
    <path id="Path_35" data-name="Path 35" d="M545.7,130.331c-48.4-1.683-94.5-17.306-138.519-34.4s-87.619-36.039-134.892-45.1c-30.356-5.826-65.109-6.648-89.594,9.632-23.558,15.705-31.171,42.74-35.262,67.846-3.081,18.9-4.891,38.777,3.545,56.464,5.863,12.28,16.258,22.6,23.453,34.4,25.031,40.923,7.337,91.389-19.781,131.347-12.714,18.741-27.484,36.645-37.3,56.583s-14.359,42.815-5.766,63.164c8.511,20.192,28.8,35.329,50.78,45.993,44.64,21.643,97.222,27.843,148.533,31.35,113.548,7.77,227.694,4.4,341.541,1.04,42.134-1.249,84.448-2.513,125.9-9.027,23.019-3.62,46.779-9.363,63.486-23.184,21.217-17.6,26.474-47.4,12.258-69.461-23.842-37.012-89.743-46.21-106.428-85.929-9.169-21.86.247-46.218,13.581-66.492,28.6-43.5,76.529-81.659,79.049-131.384,1.735-34.147-21.307-68.347-56.935-84.508C746,61.73,694.207,63.861,666.671,91.9,638.29,120.706,588.437,131.812,545.7,130.331Z" transform="translate(-65.705 -47.02)" fill="#0053ff" opacity="0.1"/>
    <g id="Group_5" data-name="Group 5" transform="translate(309.398 83.865)" opacity="0.9">
      <rect id="Rectangle_8" data-name="Rectangle 8" width="6.626" height="54.609" rx="2.29" transform="translate(220.335 102.188)" fill="#3a3768"/>
      <rect id="Rectangle_9" data-name="Rectangle 9" width="3.717" height="17.979" rx="1.858" transform="translate(0.135 59.41)" fill="#3a3768"/>
      <rect id="Rectangle_10" data-name="Rectangle 10" width="4.188" height="31.291" rx="2.094" transform="translate(0 92.323)" fill="#3a3768"/>
      <rect id="Rectangle_11" data-name="Rectangle 11" width="3.986" height="31.56" rx="1.993" transform="translate(0.067 134.563)" fill="#3a3768"/>
      <rect id="Rectangle_12" data-name="Rectangle 12" width="221.666" height="450.504" rx="38.99" transform="translate(2.244)" fill="#3a3768"/>
      <rect id="Rectangle_13" data-name="Rectangle 13" width="30.954" height="6.282" rx="3.141" transform="translate(91.688 13.447)" fill="#e6e8ec"/>
      <circle id="Ellipse_7" data-name="Ellipse 7" cx="3.567" cy="3.567" r="3.567" transform="translate(127.323 13.028)" fill="#e6e8ec"/>
    </g>
    <ellipse id="Ellipse_8" data-name="Ellipse 8" cx="149.55" cy="15.241" rx="149.55" ry="15.241" transform="translate(28.471 529.493)" fill="#0053ff" opacity="0.1"/>
    <ellipse id="Ellipse_9" data-name="Ellipse 9" cx="70.06" cy="7.142" rx="70.06" ry="7.142" transform="translate(440.49 588.469)" fill="#0053ff" opacity="0.1"/>
    <ellipse id="Ellipse_10" data-name="Ellipse 10" cx="70.06" cy="7.142" rx="70.06" ry="7.142" transform="translate(679.881 552.482)" fill="#0053ff" opacity="0.1"/>
    <path id="Path_36" data-name="Path 36" d="M663.442,174.84H638.09V177.9A14.494,14.494,0,0,1,623.6,192.392h-80.9A14.494,14.494,0,0,1,528.2,177.9V174.84H504.387a17.6,17.6,0,0,0-17.6,17.6V584.272a17.6,17.6,0,0,0,17.6,17.6H663.442a17.6,17.6,0,0,0,17.6-17.6V192.445A17.6,17.6,0,0,0,663.442,174.84Z" transform="translate(-161.455 -79.249)" fill="#0053ff"/>
    <path id="Path_37" data-name="Path 37" d="M848.558,132.7s-62.97-3.8-55.544,40.325c0,0-1.5,7.8,5.594,11.338,0,0,.112-3.268,6.454-2.161a28.748,28.748,0,0,0,6.843.329,14.209,14.209,0,0,0,8.369-3.448h0s17.694-7.314,24.582-36.241c0,0,5.093-6.312,4.891-7.935l-10.627,4.54s3.627,7.666.748,14.037c0,0-.344-13.761-2.386-13.462-.419.06-5.527,2.655-5.527,2.655s6.252,13.349,1.5,23.057c0,0,1.787-16.453-3.485-22.092l-7.479,4.368s7.3,13.791,2.356,25.046c0,0,1.264-17.261-3.926-23.984l-6.776,5.287s6.858,13.589,2.677,22.922c0,0-.553-20.088-4.151-21.606,0,0-5.931,5.235-6.835,7.374,0,0,4.7,9.872,1.787,15.077,0,0-1.787-13.387-3.253-13.462,0,0-5.908,8.87-6.521,14.957,0,0,.254-9.042,5.085-15.795,0,0-5.706.98-9.042,4.682,0,0,.92-6.267,10.47-6.82,0,0,4.884-6.731,6.192-7.135,0,0-9.535-.8-15.316,1.765,0,0,5.085-5.916,17.066-3.223l6.686-5.467s-12.549-1.713-17.874.18c0,0,6.132-5.235,19.684-1.421l7.284-4.353s-10.7-2.311-17.081-1.5c0,0,6.731-3.627,19.213.307l5.235-2.341s-7.845-1.541-10.141-1.787-2.416-.875-2.416-.875a27.185,27.185,0,0,1,14.83,1.69S848.745,133.4,848.558,132.7Z" transform="translate(-238.513 -68.604)" fill="#0053ff"/>
    <path id="Path_38" data-name="Path 38" d="M772.577,106.478s-28.419-1.713-25.1,18.225a4.864,4.864,0,0,0,2.528,5.123s.052-1.5,2.917-.98a13.1,13.1,0,0,0,3.089.15,6.447,6.447,0,0,0,3.784-1.556h0s7.995-3.306,11.106-16.378c0,0,2.3-2.849,2.244-3.582l-4.8,2.049s1.638,3.463.344,6.342c0,0-.15-6.215-1.077-6.073-.187,0-2.49,1.2-2.49,1.2s2.819,6.028.688,10.418c0,0,.808-7.434-1.57-9.984l-3.38,1.974s3.3,6.23,1.062,11.315c0,0,.576-7.8-1.772-10.837l-3.066,2.393s3.1,6.14,1.211,10.358c0,0-.247-9.079-1.87-9.767,0,0-2.685,2.363-3.089,3.335,0,0,2.117,4.487.8,6.813,0,0-.808-6.05-1.5-6.08,0,0-2.67,4.009-2.947,6.731a14.553,14.553,0,0,1,2.3-7.135,8.01,8.01,0,0,0-4.083,2.116s.411-2.834,4.741-3.081c0,0,2.206-3.044,2.8-3.231,0,0-4.308-.359-6.918.8,0,0,2.3-2.67,7.71-1.5l2.991-2.468s-5.669-.748-8.077.082c0,0,2.775-2.363,8.892-.643l3.291-1.967s-4.831-1.04-7.71-.666c0,0,3.036-1.638,8.675.135l2.356-1.054s-3.537-.7-4.577-.808-1.092-.4-1.092-.4a12.235,12.235,0,0,1,6.649.748S772.66,106.792,772.577,106.478Z" transform="translate(-227.117 -62.003)" fill="#0053ff"/>
    <ellipse id="Ellipse_11" data-name="Ellipse 11" cx="30.072" cy="5.085" rx="30.072" ry="5.085" transform="translate(0 502.39)" fill="#0053ff"/>
    <path id="Path_39" data-name="Path 39" d="M99.217,709.788a8.7,8.7,0,0,0,2.872-4.323,3.876,3.876,0,0,0-2-4.4c-1.84-.711-3.807.568-5.295,1.855s-3.2,2.76-5.153,2.483a7.83,7.83,0,0,0,2.4-7.336,2.991,2.991,0,0,0-.673-1.5c-1.017-1.092-2.872-.621-4.1.239-3.889,2.737-4.973,8.017-4.988,12.773-.4-1.72-.067-3.508-.075-5.235s-.494-3.739-1.974-4.652a5.983,5.983,0,0,0-2.991-.71c-1.75-.06-3.694.112-4.891,1.391-1.5,1.585-1.1,4.255.194,5.983s3.253,2.842,5.056,4.053a11.157,11.157,0,0,1,3.62,3.448,3.3,3.3,0,0,1,.269.613H92.441a30.49,30.49,0,0,0,6.776-4.682Z" transform="translate(-56.716 -210.636)" fill="#0053ff"/>
    <path id="Path_40" data-name="Path 40" d="M876.338,630.54s6.469,8.466-2.991,21.239-17.253,23.558-14.1,31.522c0,0,14.269-23.722,25.883-24.059S889.112,644.809,876.338,630.54Z" transform="translate(-255.187 -194.149)" fill="#0053ff"/>
    <path id="Path_41" data-name="Path 41" d="M876.463,630.54a10.653,10.653,0,0,1,1.324,2.655c11.33,13.312,17.365,25.741,6.469,26.048-10.141.292-22.316,18.435-25.225,23.012a8.542,8.542,0,0,0,.344,1.047s14.269-23.722,25.883-24.059S889.236,644.809,876.463,630.54Z" transform="translate(-255.312 -194.149)" opacity="0.1"/>
    <path id="Path_42" data-name="Path 42" d="M897.916,644.357c0,2.991-.337,5.392-.748,5.392s-.748-2.416-.748-5.392.419-1.57.83-1.57S897.916,641.365,897.916,644.357Z" transform="translate(-264.739 -197.151)" fill="#ffd037"/>
    <path id="Path_43" data-name="Path 43" d="M902.218,649.031c-2.617,1.421-4.891,2.288-5.093,1.922s1.765-1.81,4.382-3.238,1.578-.381,1.78,0S904.836,647.6,902.218,649.031Z" transform="translate(-264.913 -198.295)" fill="#ffd037"/>
    <path id="Path_44" data-name="Path 44" d="M831.746,630.54s-6.469,8.466,2.991,21.239,17.253,23.558,14.1,31.522c0,0-14.269-23.722-25.883-24.059S818.973,644.809,831.746,630.54Z" transform="translate(-244.772 -194.149)" fill="#0053ff"/>
    <path id="Path_45" data-name="Path 45" d="M831.744,630.54a10.353,10.353,0,0,0-1.324,2.655c-11.33,13.312-17.365,25.741-6.476,26.048,10.149.292,22.316,18.435,25.233,23.012a10.092,10.092,0,0,1-.344,1.047s-14.269-23.722-25.883-24.059S818.971,644.809,831.744,630.54Z" transform="translate(-244.77 -194.149)" opacity="0.1"/>
    <path id="Path_46" data-name="Path 46" d="M820.55,644.357c0,2.991.337,5.392.748,5.392s.748-2.416.748-5.392-.419-1.57-.83-1.57S820.55,641.365,820.55,644.357Z" transform="translate(-245.609 -197.151)" fill="#ffd037"/>
    <path id="Path_47" data-name="Path 47" d="M814.467,649.031c2.61,1.421,4.891,2.288,5.085,1.922s-1.757-1.81-4.375-3.238-1.585-.381-1.78,0S811.88,647.6,814.467,649.031Z" transform="translate(-243.677 -198.295)" fill="#ffd037"/>
    <path id="Path_48" data-name="Path 48" d="M823.31,696.314s18.091-.561,23.543-4.442,27.828-8.518,29.167-2.288,27.185,30.969,6.731,31.133-47.459-3.186-52.9-6.5S823.31,696.314,823.31,696.314Z" transform="translate(-246.305 -208.268)" fill="#a8a8a8"/>
    <path id="Path_49" data-name="Path 49" d="M883.161,721.836c-20.424.165-47.459-3.186-52.9-6.5-4.151-2.52-5.8-11.577-6.349-15.757h-.606s1.144,14.591,6.589,17.9,32.472,6.663,52.9,6.5c5.893-.052,7.935-2.146,7.823-5.235C889.795,720.625,887.551,721.8,883.161,721.836Z" transform="translate(-246.305 -211.556)" opacity="0.2"/>
    <rect id="Rectangle_14" data-name="Rectangle 14" width="58.356" height="58.356" transform="translate(437.147 364.858)" fill="#3a3768" opacity="0.3"/>
    <rect id="Rectangle_15" data-name="Rectangle 15" width="58.356" height="58.356" transform="translate(351.143 287.829)" fill="#3a3768" opacity="0.3"/>
    <rect id="Rectangle_16" data-name="Rectangle 16" width="58.356" height="58.356" transform="translate(356.752 440.572)" fill="#3a3768" opacity="0.3"/>
    <rect id="Rectangle_17" data-name="Rectangle 17" width="58.356" height="58.356" transform="translate(343.732 144.546)" fill="#fff"/>
    <path id="Path_50" data-name="Path 50" d="M564.852,265.79l-2.072,2.064a7.307,7.307,0,0,1,0,10.343l2.072,2.079A10.246,10.246,0,0,0,564.852,265.79Z" transform="translate(-180.615 -102.181)" fill="#0053ff"/>
    <path id="Path_51" data-name="Path 51" d="M559.1,259.885l-2.042,2.042a13,13,0,0,1,0,18.367l2.042,2.042a15.87,15.87,0,0,0,0-22.436Zm-9.722,7.643V258.18h-2.879l-8.615,7.18H526.392L523.52,266.8v10.059l2.872,1.436,7.209,11.495h4.308l-2.692-11.495h2.692l8.615,5.751H549.4v-9.348a3.672,3.672,0,0,0,0-7.165Z" transform="translate(-170.716 -100.262)" fill="#0053ff"/>
    <rect id="Rectangle_18" data-name="Rectangle 18" width="58.356" height="58.356" transform="matrix(0.742, -0.671, 0.671, 0.742, 440.535, 382.976)" fill="#fff"/>
    <path id="Path_52" data-name="Path 52" d="M673.34,548.467l4.233-3.844,23.184,25.554-4.263,3.859Zm10,23.932,4.263-3.852,6.731,7.479-4.263,3.852Zm8.93-15.825,4.263-3.859,10.6,11.719-4.255,3.852Zm.606-12.175,4.263-3.859,16.386,18.106L709.26,562.5Z" transform="translate(-208.492 -171.456)" fill="#0053ff"/>
    <rect id="Rectangle_19" data-name="Rectangle 19" width="58.356" height="58.356" transform="translate(436.183 214.867)" fill="#fff"/>
    <path id="Path_53" data-name="Path 53" d="M678.323,363.748l-7.83,11.966a4.263,4.263,0,0,1,.972,2.722,4.315,4.315,0,0,1-8.623,0,4.742,4.742,0,0,1,.075-.8l-5.175-2.991a4.33,4.33,0,0,1-5.108.643l-5.5,5.153v5.138a3.844,3.844,0,0,0,3.837,3.837h32.562a3.851,3.851,0,0,0,3.837-3.837V366.493L682.13,363a4.263,4.263,0,0,1-2.64.912,4.391,4.391,0,0,1-1.137-.157Z" transform="translate(-201.883 -126.691)" fill="#0053ff"/>
    <path id="Path_54" data-name="Path 54" d="M654.758,363.537a4.308,4.308,0,0,1,4.315,4.308,2.8,2.8,0,0,1-.037.561l5.4,2.991a4.24,4.24,0,0,1,2.73-.972,4.144,4.144,0,0,1,.927.1l7.853-12.16a4.308,4.308,0,1,1,7.823-2.5,4.487,4.487,0,0,1-.12,1.017l3.739,2.475v-7.194a3.844,3.844,0,0,0-3.837-3.829H650.967a3.837,3.837,0,0,0-3.837,3.829v20.6l3.59-3.44a4.356,4.356,0,0,1-.269-1.5,4.308,4.308,0,0,1,4.308-4.293Z" transform="translate(-201.883 -122.995)" fill="#0053ff"/>
    <rect id="Rectangle_20" data-name="Rectangle 20" width="58.356" height="58.356" transform="translate(362.414 279.931)" fill="#fff"/>
    <path id="Path_55" data-name="Path 55" d="M586.7,435.46,550.8,454.9a.748.748,0,0,0,.052,1.339l6.125,2.311a1.5,1.5,0,0,1,.808.748l4.756,9.8c.09.434.89.553.9.112l-.748-8.1a2.879,2.879,0,0,1,.658-1.638l18.607-18.233a.464.464,0,0,1,.411-.12.426.426,0,0,1,.232.681l-16.042,19.609a3.582,3.582,0,0,0-.628,1.615l-.957,6.993c.075.613.553.845.942.3l3.455-4.061a.748.748,0,0,1,1.017-.165l8.907,6.491a.748.748,0,0,0,1.129-.441l7.307-35.9a.748.748,0,0,0-1.047-.808Z" transform="translate(-177.496 -144.939)" fill="#0053ff"/>
    <path id="Path_56" data-name="Path 56" d="M1023.108,776.912c3.4.441,6.918.748,10.171-.344.5-.157,1.077-.5,1.01-1.017a1.2,1.2,0,0,0-.232-.494,31.723,31.723,0,0,1-3.089-5.856.479.479,0,0,0-.187-.262.456.456,0,0,0-.329,0c-1.5.389-2.8,1.361-4.293,1.772a6.132,6.132,0,0,1-2.333.18c-.673-.075-1.6-.636-2.206-.568C1021.994,772.544,1022.846,774.646,1023.108,776.912Z" transform="translate(-296.307 -229.037)" fill="#0053ff"/>
    <path id="Path_57" data-name="Path 57" d="M1108.284,768.082c2.244-1.5,4.562-3.156,5.886-5.527a.906.906,0,0,0,.157-.471.972.972,0,0,0-.187-.464,19.161,19.161,0,0,0-4.779-5.16,14.132,14.132,0,0,0-2.67,2.46c-.561.591-2.116,1.563-2.131,2.446,0,.531.591,1.107.868,1.5.374.553.748,1.122,1.069,1.69A28.052,28.052,0,0,1,1108.284,768.082Z" transform="translate(-317.219 -225.898)" fill="#0053ff"/>
    <path id="Path_58" data-name="Path 58" d="M1029.722,784.989a2.243,2.243,0,0,1-.4,1.5,2,2,0,0,1-.86.5c-4.756,1.7-10.231-.426-14.957,1.256-.98.344-1.9.838-2.879,1.167a15.585,15.585,0,0,1-3.567.636c-1.683.164-3.365.262-5.048.307a12.213,12.213,0,0,1-3.8-.329,4.6,4.6,0,0,1-2.917-2.311,2.243,2.243,0,0,1-.142-1.645,1.86,1.86,0,0,1,.307-.531,4.552,4.552,0,0,1,1.122-.9l1.75-1.129a11.691,11.691,0,0,1,2.647-1.406c.688-.224,1.428-.322,2.124-.523,2.46-.748,4.33-2.67,6.073-4.54l2.378-2.535a2.327,2.327,0,0,1,.823-.658,2.243,2.243,0,0,1,1.017-.1,13.738,13.738,0,0,1,6.484,2.184,9.357,9.357,0,0,0,1.6.942,5.714,5.714,0,0,0,4.487-.561c.613-.322.479-.523.748-1.1s.883-.95,1.421-.419a1.563,1.563,0,0,1,.336.643,17.842,17.842,0,0,1,.322,5.287,2.344,2.344,0,0,0,.1.823,5,5,0,0,0,.464.748,1.2,1.2,0,0,1,.1.194,5.191,5.191,0,0,1,.269,2.513Z" transform="translate(-289.608 -230.249)" fill="#514e7f"/>
    <path id="Path_59" data-name="Path 59" d="M1029.722,787.945a2.243,2.243,0,0,1-.4,1.5,2,2,0,0,1-.86.5c-4.756,1.7-10.231-.426-14.957,1.256-.98.344-1.9.838-2.879,1.167a15.581,15.581,0,0,1-3.567.636c-1.683.164-3.365.262-5.048.307a12.213,12.213,0,0,1-3.8-.329,4.6,4.6,0,0,1-2.917-2.311,2.243,2.243,0,0,1-.142-1.645,1.86,1.86,0,0,1,.307-.531c.284.583.486,1.346.658,1.623a3.321,3.321,0,0,0,2.244,1.608,5.7,5.7,0,0,0,2.027-.262c4.308-1.069,8.885-1.084,13.013-2.7a31.089,31.089,0,0,1,4.263-1.638,33.864,33.864,0,0,1,4.607-.374c2.43-.194,4.779-.927,7.179-1.309a5.19,5.19,0,0,1,.277,2.505Z" transform="translate(-289.608 -233.205)" fill="#464353"/>
    <path id="Path_60" data-name="Path 60" d="M1115,768.822a8.631,8.631,0,0,1-2.625,4.674,29.953,29.953,0,0,0-3.665,4.016c-1.241,1.885-1.787,4.21-3.388,5.8a9.173,9.173,0,0,1-2.034,1.5,14.064,14.064,0,0,1-2.64,1.211,20.208,20.208,0,0,1-7.479.411,6.65,6.65,0,0,1-2.363-.464,6.866,6.866,0,0,1-1-.606,4.758,4.758,0,0,1-1.5-1.548,1.555,1.555,0,0,1-.142-1.114,2.541,2.541,0,0,1,.748-1.092,16.882,16.882,0,0,1,1.8-1.623,10.7,10.7,0,0,0,2.348-2.064,6.736,6.736,0,0,0,.9-2.064,18.49,18.49,0,0,0,.658-3.926,12.369,12.369,0,0,1,.277-2.625c.381-1.346,1.384-2.565,1.264-3.964a1.018,1.018,0,0,1,.052-.6.936.936,0,0,1,.471-.292,8.525,8.525,0,0,1,2.453-.561,2.827,2.827,0,0,1,2.244.89c.352.419.576,1,1.092,1.189a1.81,1.81,0,0,0,.748,0,6.362,6.362,0,0,0,3.56-1.1,4.488,4.488,0,0,0,1.5-3.268c0-.464-.209-.95.5-1.047.546-.075.972.494,1.249.868a12.208,12.208,0,0,1,2.4,4.375,1.21,1.21,0,0,1,.456-.09,1.952,1.952,0,0,1,1.63.838,3.23,3.23,0,0,1,.479,2.273Z" transform="translate(-313.074 -226.929)" fill="#514e7f"/>
    <path id="Path_61" data-name="Path 61" d="M1115.061,770.576a8.631,8.631,0,0,1-2.625,4.674,29.965,29.965,0,0,0-3.665,4.016c-1.241,1.885-1.787,4.21-3.388,5.8a9.173,9.173,0,0,1-2.034,1.5,14.06,14.06,0,0,1-2.64,1.212,20.208,20.208,0,0,1-7.479.411,6.651,6.651,0,0,1-2.363-.464,6.853,6.853,0,0,1-1-.606,4.758,4.758,0,0,1-1.5-1.548,3.644,3.644,0,0,1,1.541-.366c1.114.06,1.922,1.107,2.991,1.428,1.5.456,2.991-.613,4.554-.98,1-.232,2.064-.165,3.044-.486a7.516,7.516,0,0,0,2.244-1.361,11.389,11.389,0,0,0,2.4-2.318,14.787,14.787,0,0,0,1.414-2.812,40.166,40.166,0,0,1,2.849-5.452,3.623,3.623,0,0,1,.583-.748c.232-.217.524-.374.748-.568a5.947,5.947,0,0,0,1.81-3.3,5.534,5.534,0,0,1,.4-1.1,1.952,1.952,0,0,1,1.63.838A3.232,3.232,0,0,1,1115.061,770.576Z" transform="translate(-313.137 -228.684)" fill="#464353"/>
    <path id="Path_62" data-name="Path 62" d="M979.723,553.719a10.858,10.858,0,0,1,3.051,3.567c.748,1.406,4.854,12.325,4.614,13.888,1.346-1.361,6.686-1.585,8.025-2.939.568-.568,3.642-3.41,4.1-4.068s3.881-2.072,4.255-2.745c1.4-2.505-9.917-11.966-8.473-14.479a.613.613,0,0,0,.12-.389.6.6,0,0,0-.187-.3,18,18,0,0,0-3.276-2.244,5.235,5.235,0,0,1-2.5-2.992,10.747,10.747,0,0,0-2.894,1.959q-3.1,2.655-6.117,5.444c-.793.748-2.3,1.7-2.67,2.737S978.968,553.105,979.723,553.719Z" transform="translate(-285.237 -171.577)" fill="#a1616a"/>
    <path id="Path_63" data-name="Path 63" d="M1000.079,552.61a32.785,32.785,0,0,0-4.846,3.964,9.7,9.7,0,0,0-3.089,4.943c-.142.748-.12,1.541-.239,2.311-.5,3.35-3.41,5.811-4.689,8.974a15.348,15.348,0,0,0-.823,2.991,35.258,35.258,0,0,0-.583,5.878c0,1.914,1.84,3.231,2.528,5.018a30.438,30.438,0,0,1,1.219,5.437,66.238,66.238,0,0,0,3.059,10.1c2.528,6.978,10.717,26.272,13.245,33.257,7.74-1.944,28.351-6.409,35.2-10.47,2.289-1.361-15.854-16.737-13.409-17.8a1.234,1.234,0,0,0,.681-.516,1.182,1.182,0,0,0,0-.748c-2.438-10.687-10.089-19.444-13.551-29.914-1.2-3.612-3.365-6.693-5.011-10.133-1.5-3.111-2.281-6.544-4.053-9.5a6.351,6.351,0,0,0-1.294-1.623,7.934,7.934,0,0,0-1.436-.86C1002.009,553.4,1001.066,553.1,1000.079,552.61Z" transform="translate(-287.278 -174.499)" fill="#514e7f"/>
    <circle id="Ellipse_12" data-name="Ellipse 12" cx="12.115" cy="12.115" r="12.115" transform="translate(682.782 356.692)" fill="#a1616a"/>
    <path id="Path_64" data-name="Path 64" d="M997.43,547.418a4.061,4.061,0,0,1,4.554-.651,2.244,2.244,0,0,1,1.354,2.184l5.983.09a12.516,12.516,0,0,1,2.849.262,4.142,4.142,0,0,1,2.378,1.5c.075.1.157.209.277.232a.478.478,0,0,0,.277-.1,5.273,5.273,0,0,1,2.991-.538,16.169,16.169,0,0,1,8.795,3.866,2.848,2.848,0,0,1,1.047,1.279c.209.681,0,1.556.494,2.019,0,5.646,1.937,10.9,3.231,16.4a7.266,7.266,0,0,0,1.817,2.61,10.468,10.468,0,0,1,1.944,2.9c1.092,2.849-.419,6.192.651,9.057a14.583,14.583,0,0,0,2.064,3.253,8.383,8.383,0,0,1,1.757,4.2c.045.688-.045,1.376,0,2.072a12.632,12.632,0,0,0,.494,2.722c.434,1.653.9,3.306,1.376,4.951.748,2.662,1.795,5.542,4.181,6.963-5.766.98-11.839,1.929-17.335-.067a8.98,8.98,0,0,1-2.161-1.084c-1.982-1.414-2.939-3.837-3.792-6.118a28.745,28.745,0,0,1-2.124-7.9,9.039,9.039,0,0,0-.359-2.58c-.561-1.5-2.042-2.386-3.4-3.208a16.372,16.372,0,0,1-4.091-3.186,6.357,6.357,0,0,1-1.66-4.786c.1-.845.434-1.66.471-2.513a2.012,2.012,0,0,0-1.167-2.072c-4.2-1.271-6.2-6.237-7.135-10.522a33.563,33.563,0,0,1-.538-6.731l-.052-4.33a5.744,5.744,0,0,1-1.885-4.143,4.65,4.65,0,0,0,0-1.369,3.835,3.835,0,0,0-.957-1.5A12.637,12.637,0,0,1,997.43,547.418Z" transform="translate(-290.208 -172.92)" fill="#464353"/>
    <path id="Path_65" data-name="Path 65" d="M979.886,565.087c-.135,1.354.172,2.737-.135,4.068-.12.509-.322.995-.471,1.5a8.825,8.825,0,0,0,.561,5.7,31.674,31.674,0,0,0,2.909,5.048,7.7,7.7,0,0,1,.935,1.742,9.036,9.036,0,0,1,.359,2,60.8,60.8,0,0,0,1.428,8.032,15.781,15.781,0,0,0,2.827,6.454,1.96,1.96,0,0,0,1.167.793,2.109,2.109,0,0,0,.995-.209l3.1-1.174a2.161,2.161,0,0,0,.748-.389,1.878,1.878,0,0,0,.434-1.212,17.808,17.808,0,0,0-1.361-7.337c-2.513-7.135-5.848-14.007-7.479-21.389-.456-2.064-.7-5.235-2.2-6.843-.621-.673-.411-.389-1.152,0a9.364,9.364,0,0,0-1.084.576A3.552,3.552,0,0,0,979.886,565.087Z" transform="translate(-285.571 -176.73)" fill="#464353"/>
    <path id="Path_66" data-name="Path 66" d="M1059.24,625.68" transform="translate(-305.792 -192.923)" fill="#464353"/>
    <path id="Path_67" data-name="Path 67" d="M992.4,577.332q1.234,6.529,2.52,13.065l12.026-3.156a8.423,8.423,0,0,0-1.04-3.6c-1.1-2.752-1.122-5.811-2.012-8.638-.673-2.154-1.84-4.136-2.468-6.3-.366-1.256-.546-2.573-.9-3.837a29.308,29.308,0,0,0-1.413-3.657,23.3,23.3,0,0,0-2.625-4.869c-1.541.576-3.178,1.241-4.053,2.625a5.579,5.579,0,0,0-.748,2.588c-.209,2.707.748,5.422.441,8.1a23.933,23.933,0,0,0,.277,7.68Z" transform="translate(-288.75 -175.44)" fill="#0053ff"/>
    <path id="Path_68" data-name="Path 68" d="M1010.117,653.263c.673,2.573-.307,5.235-1.1,7.793a60.511,60.511,0,0,0-2.453,11.734,9.72,9.72,0,0,1-.606,2.991,27.93,27.93,0,0,1-1.458,2.393c-1.212,2.139-1.182,4.756-.92,7.2.172,1.615.434,3.223.748,4.816.4,1.937.883,3.971.314,5.863.95-.209,1.6,1.017,1.563,2s-.381,2.027.082,2.887c1.182.426,1.2,2.049,1.159,3.3a27.806,27.806,0,0,0,.815,6.462q2.677,12.856,5.684,25.644c4.33,1.346,9.386,2.745,13.514.883a2.655,2.655,0,0,0,1.713-1.72,3.1,3.1,0,0,0-.164-1.324l-1.959-7.12a13.11,13.11,0,0,1-.7-5.235c.194-1.324.748-2.745.12-3.9a11.309,11.309,0,0,0-.823-1.092c-1.032-1.5-.494-3.507-.4-5.332a4.178,4.178,0,0,0-.09-1.219,6.392,6.392,0,0,0-.576-1.339,20.439,20.439,0,0,1-2.244-10.171,2.5,2.5,0,0,0-.179-1.331,3.062,3.062,0,0,1-.329-.538,1.444,1.444,0,0,1,.1-.98,8.509,8.509,0,0,1-1.578-1.5,2.244,2.244,0,0,0,.374-3.455,1.152,1.152,0,0,0,.553-1.982c-.254-.179-.583-.254-.748-.509-.277-.374-.052-.9.172-1.309l1.2-2.161c.89-1.6,1.092-3.582,2.049-5.145a38.616,38.616,0,0,0,3.156-7.2l3.41-9.5,2.318,2.012a7.262,7.262,0,0,1,1.907,2.176,9.184,9.184,0,0,1,.613,2.6c.853,5.16,4.106,9.632,5.31,14.725a9.926,9.926,0,0,0,1.092,3.291,7.111,7.111,0,0,1,.628.942,4.962,4.962,0,0,1,.262,1.563,7.284,7.284,0,0,0,3.074,5.235c1.137.748,2.58,1.324,3.178,2.565a5.059,5.059,0,0,0,.523,1.092c.553.666,1.75.748,1.989,1.578.127.471-.12,1.025.15,1.436a1.309,1.309,0,0,0,.561.419l3.343,1.675c3.739,1.862,5.624,6.132,8.384,9.266a19.236,19.236,0,0,1,2.505,3.32c1.189,2.124,1.742,4.794,3.739,6.162a5.813,5.813,0,0,1,1.451,1.077c.635.83.4,2,.456,3.044s.86,2.289,1.855,1.974a7.217,7.217,0,0,0,0,3.866,19.489,19.489,0,0,0,11.816-4.786,4.662,4.662,0,0,0,1.922-3.223,1.248,1.248,0,0,0-.142-.643,1.751,1.751,0,0,0-.748-.568c-3.119-1.69-4.061-5.609-5.624-8.795-1.384-2.8-3.418-5.235-5.145-7.838-3.739-5.609-6.237-12.392-11.854-16.1-1.234-.815-2.67-1.541-3.283-2.887a23.023,23.023,0,0,1-.658-2.393,2.012,2.012,0,0,0-1.758-1.5,10.672,10.672,0,0,0,.4-3.739,4.654,4.654,0,0,0-.187-1.608,7.594,7.594,0,0,0-.823-1.585,15.369,15.369,0,0,1-2.116-8.226,13.246,13.246,0,0,0-.142-4.42c-.224-.748-.613-1.369-.89-2.064a12.876,12.876,0,0,1-.643-3.851l-.307-4.928a23.578,23.578,0,0,0-.636-4.869c-1.04-3.822-2.034-19.833-5.557-21.636s-9.535,10.515-13.461,10.762a17.945,17.945,0,0,0-5.145.987,24.937,24.937,0,0,0-6.977,4.629l-7.269,6.1a26.5,26.5,0,0,1-4.51,3.253Z" transform="translate(-291.721 -193.344)" fill="#464353"/>
    <path id="Path_69" data-name="Path 69" d="M964.684,521.02a9.139,9.139,0,0,1,7.052-3.44,16.453,16.453,0,0,1,7.793,1.959,10.047,10.047,0,0,0,2.244.935c1.286.262,2.707-.09,3.866.523,1.541.815,1.832,2.894,1.7,4.629s-.456,3.635.464,5.123a14.177,14.177,0,0,1,.89,1.331,4.442,4.442,0,0,1-.082,2.849,22.882,22.882,0,0,1-1.5-1.877A1.741,1.741,0,0,0,985,532.5c-.658.441-.658,1.256-.688,1.982s-.224,1.6-.912,1.84a1.5,1.5,0,0,1-1.5-.6c-1.174-1.436-.7-3.739-1.862-5.175-.666-.823-1.765-1.219-2.378-2.079-.479-.673-.6-1.548-1.017-2.244s-1.4-1.264-2.057-.748a2.8,2.8,0,0,0-.546.748,3.148,3.148,0,0,1-3.739,1.122,6.56,6.56,0,0,0-1.623-.7,2,2,0,0,0-1.847,1,3.978,3.978,0,0,0-.486,2.139c0,1.01.179,2.116-.4,2.939a3.036,3.036,0,0,1-.867.748c-.86.546-2.034.912-2.842.292a2.139,2.139,0,0,1-.636-1.989,16.362,16.362,0,0,1,.606-2.1c.449-1.585-.135-3.373.359-4.869A15.321,15.321,0,0,1,964.684,521.02Z" transform="translate(-281.161 -165.667)" fill="#464353"/>
    <path id="Path_70" data-name="Path 70" d="M974.407,563.159a1.871,1.871,0,0,0,.112,1.114,1.809,1.809,0,0,0,.606.583,12.548,12.548,0,0,0,5.714,1.847,1.721,1.721,0,0,1,.748.2,1.414,1.414,0,0,1,.337,1.593,4.24,4.24,0,0,0-.359,1.69c.15,1.069,1.413,1.556,2.49,1.69a5.774,5.774,0,0,0,4.33-.838,6.679,6.679,0,0,0,1.787-2.685c2.939-6.731,3.971-14.209,6.948-20.94a4.256,4.256,0,0,0,.449-1.4,1.391,1.391,0,0,0-.553-1.294c-.553-.344-1.413-.15-1.787-.681-.187-.277-.164-.643-.329-.927-.344-.613-1.241-.538-1.862-.867-.479-.262-.815-.748-1.346-.89a1.72,1.72,0,0,0-1.406.606c-1.743,1.63-2.662,3.941-3.635,6.125a72.741,72.741,0,0,1-5.235,9.655c.232-.359-1.107-3.089-1.63-3.193-.912-.187-2.094,1.421-2.588,2.027a12.833,12.833,0,0,0-2.79,6.581Z" transform="translate(-284.393 -171.662)" fill="#0053ff"/>
    <rect id="Rectangle_21" data-name="Rectangle 21" width="58.356" height="58.356" transform="translate(696.132 401.07)" fill="#fff"/>
    <path id="Path_71" data-name="Path 71" d="M1015.77,606.928V599.27H996.64v34.476H1034V606.928Zm-11.48,22.982h-3.822v-3.829h3.822Zm0-7.658h-3.822v-3.829h3.822Zm0-7.658h-3.822v-3.837h3.822Zm0-7.666h-3.822v-3.836h3.822Zm7.651,22.982h-3.814v-3.829h3.822Zm0-7.658h-3.814v-3.829h3.822Zm0-7.658h-3.814v-3.837h3.822Zm0-7.666h-3.814v-3.836h3.822Zm18.233,22.982h-14.4v-3.829h3.822v-3.829h-3.822v-3.829h3.822v-3.837h-3.822v-3.829h14.4Zm-3.35-15.316H1023v3.836h3.822Zm0,7.658H1023v3.837h3.822Z" transform="translate(-290.008 -186.264)" fill="#0053ff"/>
    <path id="Path_72" data-name="Path 72" d="M1058.638,625.3a23.566,23.566,0,0,0-2.767,2.9,5.78,5.78,0,0,0-1.271,3.739,1.922,1.922,0,0,0,.359,1.092.934.934,0,0,0,1.039.322,1.5,1.5,0,0,0,.509-.456,23.94,23.94,0,0,1,1.72-1.87c.224-.217.509-.449.808-.366a.852.852,0,0,1,.352.232,2.379,2.379,0,0,1,.748,1.129,2.677,2.677,0,0,1-.793,2.176,5.64,5.64,0,0,0-1.339,1.982.845.845,0,0,0,0,.636,1.04,1.04,0,0,0,.4.344,5.773,5.773,0,0,0,4.839.314c1.04-.411,1.937-1.129,2.991-1.5a7.193,7.193,0,0,0,1.324-.494,2.722,2.722,0,0,0,1.174-1.75,7.469,7.469,0,0,0,.082-2.161,24.675,24.675,0,0,0-1.8-8.152.973.973,0,0,0-.292-.434,1.025,1.025,0,0,0-.494-.142c-1.309-.135-3.463-.808-4.726-.322a3.229,3.229,0,0,0-1.114.995C1060.089,623.778,1058.638,624.952,1058.638,625.3Z" transform="translate(-304.622 -192.083)" fill="#a1616a"/>
    <path id="Path_73" data-name="Path 73" d="M1053.207,608.592c0-1.256-1.556-4.27.9-4.487,0-1.331-1.892-2.169-1.548-3.575.12-.479.5-.86.561-1.339.157-1.369-2.311-2.109-1.907-3.425.15-.5.7-.808.815-1.316.277-1.182-1.84-1.713-1.877-2.924,0-.411.224-.8.209-1.2,0-.516-.449-.9-.7-1.346-.636-1.144-.329-2.917-1.5-3.5.748.06,1.04-1.084.71-1.787s-.972-1.309-.972-2.087a3.314,3.314,0,0,0,0-.86c-.217-.748-1.443-.8-1.645-1.548a7.933,7.933,0,0,1,0-.845c-.075-.583-.673-.942-1.234-1.114a4.905,4.905,0,0,1-1.645-.583c-.359-.277-.748-.748-1.159-.486-.142.082-.217.247-.329.374-.456.531-1.331.3-1.915-.1a7.919,7.919,0,0,1-2.932-5.28c-.374-2.034-.351-4.136-.8-6.155a14.13,14.13,0,0,0-.546-1.84,9.514,9.514,0,0,1-.867-1.84c-.09-1.174,2.348-.374,3.276-.254a14.527,14.527,0,0,1,2.662.5,28.137,28.137,0,0,1,2.715,1.189c3.739,1.638,8.167,1.84,11.143,4.584.98.9,1.8,2.086,3.066,2.49a15.663,15.663,0,0,1,1.72.449c1.414.666,1.63,2.535,2.4,3.889a8.3,8.3,0,0,1,.636,1.122,4.42,4.42,0,0,1,.2,1.436l.1,3.552a131.225,131.225,0,0,1-.284,17.829,14.713,14.713,0,0,0,.067,5.833c.149.509.366.995.493,1.5a10.183,10.183,0,0,1,.195,1.847l.082,2.3a.554.554,0,0,1-.733.681c-3.208-.284-6.439-2.094-9.468-1" transform="translate(-299.639 -176.538)" fill="#464353"/>
    <path id="Path_74" data-name="Path 74" d="M979.37,611.93a.988.988,0,0,0-.359.3,2.55,2.55,0,0,0,0,3.036,1.022,1.022,0,0,1,.18.3.882.882,0,0,1-.09.509,1.683,1.683,0,0,0,.232,1.885c.232.194.546.292.7.546.262.434-.1.987-.045,1.5.075.666.86.995,1.5,1.077a1.593,1.593,0,0,0,1.458-.389,1.212,1.212,0,0,0,0-1.324,3.544,3.544,0,0,0-.987-.987,1.5,1.5,0,0,0,1.413-1.369,2.124,2.124,0,0,0-.853-1.862c-.135-.112-.3-.224-.336-.4s.142-.426.307-.6c.748-.748,1.324-2.58-.082-2.991a3.463,3.463,0,0,0-1.5.067c-.359.112-.359.329-.636.479S979.684,611.773,979.37,611.93Z" transform="translate(-285.437 -189.247)" fill="#a1616a"/>
    <path id="Path_75" data-name="Path 75" d="M997.394,543.14a2.468,2.468,0,0,0-1.9.957,5.467,5.467,0,0,0-.793,2.543,22.293,22.293,0,0,1-2.991,8.122" transform="translate(-288.765 -172.112)" opacity="0.1"/>
    <path id="Path_76" data-name="Path 76" d="M1000.922,545.88a2.9,2.9,0,0,0-2.483,1.5,8.3,8.3,0,0,0-.628,2.535,13.776,13.776,0,0,1-2.49,5.317" transform="translate(-289.675 -172.803)" opacity="0.1"/>
    <path id="Path_77" data-name="Path 77" d="M345.553,606.929c.434,4.727-3.134,9.3-2.094,13.925.224.987.651,1.922.808,2.917.426,2.745-1.212,5.347-2.775,7.643l-13.417,19.7a12.766,12.766,0,0,1-1.922,2.371c-2.573,2.244-6.417,2.042-9.79,2.722a16.788,16.788,0,0,0-6.551,2.9.426.426,0,0,0-.09.591,5.646,5.646,0,0,0,4.876,2.288c.352.464,0,1.144-.486,1.5-.748.5-1.713.628-1.855,1.855a2,2,0,0,0,.247,1.226,3.792,3.792,0,0,0,2.348,1.63c4.644,1.421,9.67-1.069,13.14-4.487s5.983-7.681,9.393-11.143c1.892-1.907,4.038-3.552,5.983-5.407,3.889-3.694,6.9-8.226,9.819-12.714a14.113,14.113,0,0,0,2.124-4.323c.359-1.541.194-3.163.613-4.689.538-1.989,2-3.582,3.216-5.235a17.378,17.378,0,0,0,3.657-11.33c-.314-4.039-2.812-8.032-6.626-9.4a5.93,5.93,0,0,0-3.739-.232,9.027,9.027,0,0,0-3.784,2.992l-2.543,2.947a6.789,6.789,0,0,0-1.5,2.244,2.356,2.356,0,0,0,.523,2.505" transform="translate(-116.789 -186.205)" fill="#fbbebe"/>
    <path id="Path_78" data-name="Path 78" d="M345.553,606.929c.434,4.727-3.134,9.3-2.094,13.925.224.987.651,1.922.808,2.917.426,2.745-1.212,5.347-2.775,7.643l-13.417,19.7a12.766,12.766,0,0,1-1.922,2.371c-2.573,2.244-6.417,2.042-9.79,2.722a16.788,16.788,0,0,0-6.551,2.9.426.426,0,0,0-.09.591,5.646,5.646,0,0,0,4.876,2.288c.352.464,0,1.144-.486,1.5-.748.5-1.713.628-1.855,1.855a2,2,0,0,0,.247,1.226,3.792,3.792,0,0,0,2.348,1.63c4.644,1.421,9.67-1.069,13.14-4.487s5.983-7.681,9.393-11.143c1.892-1.907,4.038-3.552,5.983-5.407,3.889-3.694,6.9-8.226,9.819-12.714a14.113,14.113,0,0,0,2.124-4.323c.359-1.541.194-3.163.613-4.689.538-1.989,2-3.582,3.216-5.235a17.378,17.378,0,0,0,3.657-11.33c-.314-4.039-2.812-8.032-6.626-9.4a5.93,5.93,0,0,0-3.739-.232,9.027,9.027,0,0,0-3.784,2.992l-2.543,2.947a6.789,6.789,0,0,0-1.5,2.244,2.356,2.356,0,0,0,.523,2.505" transform="translate(-116.789 -186.205)" opacity="0.05"/>
    <path id="Path_79" data-name="Path 79" d="M218.621,626.257c.748,2.363,1.5,4.726,2.4,7.03a59.486,59.486,0,0,0,6.215,11.337,81.672,81.672,0,0,0,5.138,6.731c2.288,2.7,4.846,5.414,5.654,8.862a44.888,44.888,0,0,1,.509,6.11c.194,2.034.86,4.2,2.505,5.414a9.312,9.312,0,0,0,4.128,1.361c1.032.164,2.326.217,2.864-.681a2.551,2.551,0,0,0,.284-1.182l.254-2.991c.052-.643.277-1.5.92-1.5s.972.83,1.5,1.212a1.623,1.623,0,0,0,2.244-.748,3.739,3.739,0,0,0,.06-2.618,12.43,12.43,0,0,0-6.379-7.9,19.175,19.175,0,0,1-3.111-1.623,10.582,10.582,0,0,1-2.445-3.081c-5.654-9.311-11.338-18.7-15.331-28.8a21.307,21.307,0,0,1-1.578-5.676,36.643,36.643,0,0,1,.247-5.983,34.247,34.247,0,0,0-.987-10.68,8.4,8.4,0,0,0-1.025-2.6c-1.638-2.5-5.5-2.864-7.942-1.144a8.182,8.182,0,0,0-3.156,5.773c-.18,2.012.987,4.113,1.578,5.983Q215.906,617.559,218.621,626.257Z" transform="translate(-92.061 -185.453)" fill="#a1616a"/>
    <path id="Path_80" data-name="Path 80" d="M218.621,626.257c.748,2.363,1.5,4.726,2.4,7.03a59.486,59.486,0,0,0,6.215,11.337,81.672,81.672,0,0,0,5.138,6.731c2.288,2.7,4.846,5.414,5.654,8.862a44.888,44.888,0,0,1,.509,6.11c.194,2.034.86,4.2,2.505,5.414a9.312,9.312,0,0,0,4.128,1.361c1.032.164,2.326.217,2.864-.681a2.551,2.551,0,0,0,.284-1.182l.254-2.991c.052-.643.277-1.5.92-1.5s.972.83,1.5,1.212a1.623,1.623,0,0,0,2.244-.748,3.739,3.739,0,0,0,.06-2.618,12.43,12.43,0,0,0-6.379-7.9,19.175,19.175,0,0,1-3.111-1.623,10.582,10.582,0,0,1-2.445-3.081c-5.654-9.311-11.338-18.7-15.331-28.8a21.307,21.307,0,0,1-1.578-5.676,36.643,36.643,0,0,1,.247-5.983,34.247,34.247,0,0,0-.987-10.68,8.4,8.4,0,0,0-1.025-2.6c-1.638-2.5-5.5-2.864-7.942-1.144a8.182,8.182,0,0,0-3.156,5.773c-.18,2.012.987,4.113,1.578,5.983Q215.906,617.559,218.621,626.257Z" transform="translate(-92.061 -185.453)" opacity="0.05"/>
    <path id="Path_81" data-name="Path 81" d="M368.8,753.345c-2.932,1.787-6.581,1.892-9.991,1.5-.546-.067-1.2-.112-1.548.314-.509.613.09,1.5.71,2.019a14.867,14.867,0,0,0,6.865,2.819,46.829,46.829,0,0,0,6.731.449,113.794,113.794,0,0,0,18.345-.681,2.43,2.43,0,0,0,1-.292,1.9,1.9,0,0,0,.748-1.152,4.584,4.584,0,0,0-1.6-4.368,13.462,13.462,0,0,0-4.278-2.3l-5.325-2.072c-1.249-.486-3.261-1.78-4.614-1.675C373.327,748.073,370.911,752.1,368.8,753.345Z" transform="translate(-128.747 -223.74)" fill="#3f3d56"/>
    <path id="Path_82" data-name="Path 82" d="M386.951,769.5a13.08,13.08,0,0,1-8.937,3.336c-.838,0-2,.157-2,.995a1.316,1.316,0,0,0,.239.7,8.226,8.226,0,0,0,4.622,3.62,16.455,16.455,0,0,0,5.579.351l5.459-.284c1.032-.052,2.072-.1,3.1-.232s2.139-.337,3.208-.5a42.8,42.8,0,0,1,7.95-.374,2.311,2.311,0,0,0,1.959-.523c.486-.613.2-1.5.045-2.244-.329-1.578,0-3.238-.307-4.831-.524-2.782-2.917-4.921-5.572-5.931-2.453-.935-6.806-2-9.131-.449C390.661,764.777,389.157,767.5,386.951,769.5Z" transform="translate(-133.523 -227.379)" fill="#3f3d56"/>
    <path id="Path_83" data-name="Path 83" d="M374.858,667.253c-2.244,2.954-4.487,6.364-3.964,10.014.3,1.967,1.4,3.7,2.206,5.527a38.956,38.956,0,0,1,2.244,7.763c.83,3.867,1.66,7.74,2.176,11.659a72.81,72.81,0,0,1,.486,13.387,4.516,4.516,0,0,1-.935,2.992c-.3.3-.688.546-.815.95a1.608,1.608,0,0,0,.172,1.122,12.422,12.422,0,0,0,6.656,6.125,25.494,25.494,0,0,0,9.049,1.69,2.544,2.544,0,0,0,1.212-.157,2.334,2.334,0,0,0,.935-1.069c2.244-4.263.995-9.408,1.032-14.209,0-4.016.972-7.995.8-12.011-.142-3.216-1-6.357-1.316-9.565-.516-5.235.449-10.545,1.413-15.742.748-3.979,1.5-7.965,2.431-11.906a22.7,22.7,0,0,1,2.573-6.91c1.047-1.653,2.468-3.036,3.665-4.592a20.843,20.843,0,0,0,4.1-15.234c-.075-.538-7.7,1.93-8.361,2.244a25.919,25.919,0,0,0-7.479,4.794,61.919,61.919,0,0,0-4.7,5.8q-3.276,3.986-6.447,8.017Q378.373,662.564,374.858,667.253Z" transform="translate(-132.214 -195.779)" fill="#464353"/>
    <path id="Path_84" data-name="Path 84" d="M374.858,667.253c-2.244,2.954-4.487,6.364-3.964,10.014.3,1.967,1.4,3.7,2.206,5.527a38.956,38.956,0,0,1,2.244,7.763c.83,3.867,1.66,7.74,2.176,11.659a72.81,72.81,0,0,1,.486,13.387,4.516,4.516,0,0,1-.935,2.992c-.3.3-.688.546-.815.95a1.608,1.608,0,0,0,.172,1.122,12.422,12.422,0,0,0,6.656,6.125,25.494,25.494,0,0,0,9.049,1.69,2.544,2.544,0,0,0,1.212-.157,2.334,2.334,0,0,0,.935-1.069c2.244-4.263.995-9.408,1.032-14.209,0-4.016.972-7.995.8-12.011-.142-3.216-1-6.357-1.316-9.565-.516-5.235.449-10.545,1.413-15.742.748-3.979,1.5-7.965,2.431-11.906a22.7,22.7,0,0,1,2.573-6.91c1.047-1.653,2.468-3.036,3.665-4.592a20.843,20.843,0,0,0,4.1-15.234c-.075-.538-7.7,1.93-8.361,2.244a25.919,25.919,0,0,0-7.479,4.794,61.919,61.919,0,0,0-4.7,5.8q-3.276,3.986-6.447,8.017Q378.373,662.564,374.858,667.253Z" transform="translate(-132.214 -195.779)" opacity="0.05"/>
    <path id="Path_85" data-name="Path 85" d="M394.185,643.231c.479,2.288,2.7,4.038,2.76,6.379.052,1.87-1.279,3.44-2.244,5.048a33.854,33.854,0,0,0-2.288,5.19,79.14,79.14,0,0,1-6.731,13.364c-1.279,2.034-2.715,4.24-2.416,6.626A9.781,9.781,0,0,0,384.426,683l3.844,7.636a21.912,21.912,0,0,1,1.959,4.824c.337,1.451.366,2.991.561,4.427.606,4.682,2.8,9.393,1.5,13.933-.112.389-.524.86-.83.591a14.548,14.548,0,0,1,2.191,7.479c-.045,1.413-.479,2.879.045,4.2a4.577,4.577,0,0,1,.583,1.6c0,.381-.179.748-.217,1.129a2.5,2.5,0,0,0,1.915,2.326c1.032.344,2.154.322,3.193.628,2,.6,3.425,2.318,5.145,3.515a10.806,10.806,0,0,0,5.9,1.922,1.5,1.5,0,0,0,.868-.172,1.421,1.421,0,0,0,.486-1.054,5.863,5.863,0,0,0-2.116-5.093,2.356,2.356,0,0,1-.748-.823,2,2,0,0,1-.075-.92,68.208,68.208,0,0,0-.224-12.6,19.444,19.444,0,0,1-.194-4.008,16.387,16.387,0,0,0,.322-3.343A17.071,17.071,0,0,0,407.5,706a22.382,22.382,0,0,1-.486-5.983,52.44,52.44,0,0,0-1.69-10.238,7.771,7.771,0,0,0-1.593-3.695c-.8-.838-2.094-1.63-1.787-2.745a3.17,3.17,0,0,1,.748-1.092,4.383,4.383,0,0,0,.92-3.343,1.5,1.5,0,0,0,1.72-.808,26.923,26.923,0,0,0,13.521-15.376,4.994,4.994,0,0,1,.606-1.369,6.239,6.239,0,0,1,2.475-1.608c2.8-1.406,4.727-4.046,6.5-6.626a15.414,15.414,0,0,0,2.513-4.809,15.841,15.841,0,0,0,.344-3.47l.157-5.983a3.434,3.434,0,0,0-.112-1.174,2.992,2.992,0,0,0-.651-.957,11.614,11.614,0,0,0-6.387-3.44c-1.638-.292-3.313-.239-4.973-.374-3.216-.269-6.394-1.264-9.617-1.032-5.056.374-9.558,3.881-11.966,8.354C396.863,641.832,395.98,643.179,394.185,643.231Z" transform="translate(-135.343 -194.477)" fill="#464353"/>
    <path id="Path_86" data-name="Path 86" d="M173.108,763.653a8.144,8.144,0,0,0,3.44.411c.082-.95,1.361-1.159,2.311-1.114a2.656,2.656,0,0,1,1.361.3c.239.15.419.374.651.531a2.8,2.8,0,0,0,1.346.344l4.951.419a14.824,14.824,0,0,0,6.566-.434,2.147,2.147,0,0,0,1.055-.7c.561-.8,0-1.952-.748-2.535s-1.772-.853-2.55-1.451c-1.72-1.309-1.952-3.739-2.864-5.714a16.491,16.491,0,0,0-2.363-3.433,13.14,13.14,0,0,0-2.341-2.393c-1.982-1.436-4.27-1.406-6.6-1.608-1.645-.15-3.193-.247-4.375,1.211-1.458,1.81-.875,5.459-.785,7.621a54.55,54.55,0,0,0,.942,8.548Z" transform="translate(-82.078 -223.309)" fill="#514e7f"/>
    <path id="Path_87" data-name="Path 87" d="M173.108,763.653a8.144,8.144,0,0,0,3.44.411c.082-.95,1.361-1.159,2.311-1.114a2.656,2.656,0,0,1,1.361.3c.239.15.419.374.651.531a2.8,2.8,0,0,0,1.346.344l4.951.419a14.824,14.824,0,0,0,6.566-.434,2.147,2.147,0,0,0,1.055-.7c.561-.8,0-1.952-.748-2.535s-1.772-.853-2.55-1.451c-1.72-1.309-1.952-3.739-2.864-5.714a16.491,16.491,0,0,0-2.363-3.433,13.14,13.14,0,0,0-2.341-2.393c-1.982-1.436-4.27-1.406-6.6-1.608-1.645-.15-3.193-.247-4.375,1.211-1.458,1.81-.875,5.459-.785,7.621a54.55,54.55,0,0,0,.942,8.548Z" transform="translate(-82.078 -223.309)" opacity="0.05"/>
    <path id="Path_88" data-name="Path 88" d="M172.258,639.508c-1.5.486-2.169,2.371-1.892,3.941a14.151,14.151,0,0,0,2,4.3c2.2,3.941,3.156,8.451,5,12.564,1.384,3.074,3.253,5.916,4.622,8.974s2.244,6.559,1.384,9.827c-.4,1.593-1.182,3.059-1.705,4.614a26.175,26.175,0,0,0-1,5.235,99.228,99.228,0,0,0-.359,18.068,5.49,5.49,0,0,0,.456,2.139c.307.6.845,1.226.583,1.847-.1.247-.329.426-.441.673-.314.688.322,1.406.9,1.892a1.548,1.548,0,0,1-.972.748,2.3,2.3,0,0,1,.98,2.558c-.516.075-.546.86-.217,1.271s.83.673,1.062,1.137a1.593,1.593,0,0,1-.875,2,4.1,4.1,0,0,1-2.386.179,25.871,25.871,0,0,1-3.994-.875,3.589,3.589,0,0,1-1.227-.561,3.642,3.642,0,0,1-1.1-2.423,43.79,43.79,0,0,1-.277-7.479c.217-12.085,0-24.186-.523-36.264a41.525,41.525,0,0,0-3.56-14.09,72.291,72.291,0,0,0-3.47-6.731c-2.707-4.981-5.115-10.47-4.487-16.116.067-.606.292-1.339.89-1.436a1.294,1.294,0,0,1,.688.112,31.8,31.8,0,0,1,3.627,2A13.745,13.745,0,0,0,172.258,639.508Z" transform="translate(-79.224 -195.399)" fill="#464353"/>
    <path id="Path_89" data-name="Path 89" d="M172.258,639.508c-1.5.486-2.169,2.371-1.892,3.941a14.151,14.151,0,0,0,2,4.3c2.2,3.941,3.156,8.451,5,12.564,1.384,3.074,3.253,5.916,4.622,8.974s2.244,6.559,1.384,9.827c-.4,1.593-1.182,3.059-1.705,4.614a26.175,26.175,0,0,0-1,5.235,99.228,99.228,0,0,0-.359,18.068,5.49,5.49,0,0,0,.456,2.139c.307.6.845,1.226.583,1.847-.1.247-.329.426-.441.673-.314.688.322,1.406.9,1.892a1.548,1.548,0,0,1-.972.748,2.3,2.3,0,0,1,.98,2.558c-.516.075-.546.86-.217,1.271s.83.673,1.062,1.137a1.593,1.593,0,0,1-.875,2,4.1,4.1,0,0,1-2.386.179,25.871,25.871,0,0,1-3.994-.875,3.589,3.589,0,0,1-1.227-.561,3.642,3.642,0,0,1-1.1-2.423,43.79,43.79,0,0,1-.277-7.479c.217-12.085,0-24.186-.523-36.264a41.525,41.525,0,0,0-3.56-14.09,72.291,72.291,0,0,0-3.47-6.731c-2.707-4.981-5.115-10.47-4.487-16.116.067-.606.292-1.339.89-1.436a1.294,1.294,0,0,1,.688.112,31.8,31.8,0,0,1,3.627,2A13.745,13.745,0,0,0,172.258,639.508Z" transform="translate(-79.224 -195.399)" opacity="0.05"/>
    <path id="Path_90" data-name="Path 90" d="M144.65,620.93a3.988,3.988,0,0,0-5.5.591,30.035,30.035,0,0,0-2.842,2.5,15.2,15.2,0,0,0-3.4,15.04,30.053,30.053,0,0,0,4.158,7.374l3.291,4.726c5.018,7.209,10.044,14.419,15.3,21.456a.808.808,0,0,0,.568.748c.194.052.426.045.546.2a.583.583,0,0,1,.067.322,4.882,4.882,0,0,1-.292,1.5.7.7,0,0,0-.06.516c.165.4.89.172,1.114.546a.594.594,0,0,1-.239.748.865.865,0,0,0-.411.748c.037.307.538.591.516.965,0,.209-.179.367-.307.531a1.354,1.354,0,0,0,.165,1.728c.344,3.44-1.5,6.693-1.892,10.133-.591,5.407,1.855,10.687,2.154,16.116a4.315,4.315,0,0,0,.337,1.78c.509.935,1.81,1.5,1.765,2.565a9.792,9.792,0,0,1-.366,1.294,10.4,10.4,0,0,0,.194,1.847c0,.621-.523,1.361-1.1,1.122q.651,2.154,1.152,4.345l11.517.95a10.344,10.344,0,0,0-.1-3.111c-.239-1.107-.748-2.146-1-3.253a3.837,3.837,0,0,1,.456-3.253,1.271,1.271,0,0,1-1.271-1.047,5.131,5.131,0,0,1,0-1.787c.307-2.991-.957-5.983-.92-8.974.037-2.378.868-4.659,1.294-6.992.9-5-.037-10.418,2.184-14.957,1.346-2.752,3.208-5.8,1.7-8.466-.748-1.316-2.057-2.244-2.909-3.455a14.038,14.038,0,0,1-1.563-3.739c-1.78-5.5-4.644-10.582-7.165-15.795a16.626,16.626,0,0,1-1.541-4.151,21.1,21.1,0,0,1-.187-3.829,58.691,58.691,0,0,0-.426-6.88A5.016,5.016,0,0,0,157,627.137C153.228,624.565,148.726,623.077,144.65,620.93Z" transform="translate(-72.048 -191.516)" fill="#464353"/>
    <path id="Path_91" data-name="Path 91" d="M166.9,769.3a8.145,8.145,0,0,0,3.44.411c.09-.95,1.361-1.159,2.311-1.114a2.656,2.656,0,0,1,1.324.307c.239.15.419.374.658.531a2.751,2.751,0,0,0,1.346.344l4.943.419a14.866,14.866,0,0,0,6.574-.434,2.161,2.161,0,0,0,1.047-.7c.561-.8,0-1.952-.748-2.535s-1.772-.853-2.558-1.451c-1.713-1.309-1.952-3.739-2.864-5.714a16.49,16.49,0,0,0-2.363-3.433,13.1,13.1,0,0,0-2.333-2.393c-1.989-1.436-4.27-1.406-6.6-1.608-1.653-.15-3.2-.247-4.375,1.212-1.5,1.81-.882,5.459-.793,7.621a55.567,55.567,0,0,0,.987,8.541Z" transform="translate(-80.499 -224.734)" fill="#514e7f"/>
    <rect id="Rectangle_22" data-name="Rectangle 22" width="58.356" height="58.356" transform="translate(148.847 457.818)" fill="#fff"/>
    <path id="Path_92" data-name="Path 92" d="M301.239,690.454c0,6.656-3.119,10.844-8.047,10.844-2.52,0-4.442-1.346-4.779-3.343h-.359a5.235,5.235,0,0,1-5.183,3.223c-4.383,0-7.307-3.515-7.307-8.743,0-5.018,2.947-8.511,7.247-8.511a5.235,5.235,0,0,1,4.913,2.939h.359v-2.5h3.582V696a2.079,2.079,0,0,0,2.244,2.318c2.483,0,4.068-2.991,4.068-7.7,0-7.479-5.609-12.482-13.888-12.482s-14.022,5.983-14.022,14.419c0,8.638,5.773,14.157,14.763,14.157a27.076,27.076,0,0,0,4.884-.419,1.421,1.421,0,0,1,.6,2.775,24.864,24.864,0,0,1-5.624.613c-10.926,0-17.949-6.731-17.949-17.2,0-10.231,7.142-17.253,17.545-17.253C294.306,675.16,301.239,681.4,301.239,690.454Zm-21.8,2.064c0,3.32,1.556,5.332,4.1,5.332,2.677,0,4.367-2.064,4.367-5.332s-1.69-5.287-4.323-5.287S279.439,689.19,279.439,692.518Z" transform="translate(-105.972 -205.414)" fill="#0053ff"/>
    <circle id="Ellipse_13" data-name="Ellipse 13" cx="11.405" cy="11.405" r="11.405" transform="translate(126.03 386.666)" fill="#a1616a"/>
    <path id="Path_93" data-name="Path 93" d="M213.739,583.078c-1.638,1.413-3.979,1.5-6.125,1.735a38.284,38.284,0,0,0-13.177,3.814,4.7,4.7,0,0,0-1.5,1.047,4.315,4.315,0,0,0-.748,1.63,10.784,10.784,0,0,0-.434,3.964,11.428,11.428,0,0,0,1.1,3.739,20.073,20.073,0,0,0,7.075,8.062,5.137,5.137,0,0,0,1.72.823c1.5.314,2.954-.561,4.427-.95a7.254,7.254,0,0,1,4.091.135c1.241.411,2.55,1.167,3.739.666a3.9,3.9,0,0,0,1.705-1.937,65.729,65.729,0,0,0,3.111-6.813,25.825,25.825,0,0,1,1.129-2.647c1.324-2.52,3.612-4.487,4.749-7.075a1.556,1.556,0,0,0,.1-1.331,1.847,1.847,0,0,0-.838-.643,19.99,19.99,0,0,1-4.554-3.575c-.748-.748-2.131-2.662-3.208-2.834C214.928,580.729,214.562,582.375,213.739,583.078Z" transform="translate(-87.059 -181.626)" fill="#a1616a"/>
    <path id="Path_94" data-name="Path 94" d="M202.823,608.916a6.806,6.806,0,0,1-4.315.052,47.626,47.626,0,0,1-10.844-3.156A5.8,5.8,0,0,1,185,603.771a6.529,6.529,0,0,1-.748-2.558l-.628-4.24a25.712,25.712,0,0,1,.194-4.353,1.271,1.271,0,0,0-.247-.95,1.025,1.025,0,0,0-.748-.232c-1.713,0-2.745,1.817-3.949,3.036a7.292,7.292,0,0,1-2.423,1.63c-1.1.449-2.453.748-2.894,1.862-.187.456-.165.98-.352,1.436-.748,1.825-4.038,1.219-4.869,2.991-.239.509-.224,1.152-.621,1.556s-1.122.389-1.72.494c-2.378.389-3.537,3.141-5.572,4.435-1.713,1.092-3.919,1.069-5.759,1.922a22.041,22.041,0,0,1-2.991,1.5,14.141,14.141,0,0,1-3.47.172.935.935,0,0,0-.7.224.957.957,0,0,0-.112.748,20.992,20.992,0,0,0,12.975,16.251,4.574,4.574,0,0,1,1.107.531c1.04.748,1.219,2.445,2.393,2.991a2.475,2.475,0,0,0,2.5-.538,21.727,21.727,0,0,0,1.8-1.989,7.179,7.179,0,0,1,4.016-2.109c1.413-.224,2.991-.06,4.136-.927a12.705,12.705,0,0,0,1.3-1.391,8.158,8.158,0,0,1,2.991-1.765,29.915,29.915,0,0,1,9.348-1.974c2.991-.172,6.1.1,8.929-.875a5.233,5.233,0,0,0,1.989-1.122,5.983,5.983,0,0,0,1.331-2.311,17.643,17.643,0,0,0,.606-9.3Z" transform="translate(-75.874 -184.289)" fill="#514e7f"/>
    <path id="Path_95" data-name="Path 95" d="M199.71,592.257c.845-.075,1.69,0,2.535,0,.995,0,1.974-.239,2.991-.247a7.374,7.374,0,0,1,6.955,5.295,1.346,1.346,0,0,1,.045.748.531.531,0,0,1-.576.389,12.64,12.64,0,0,0-1.279-2.565,7.262,7.262,0,0,0-3.829-2.662,9.939,9.939,0,0,0-4.712-.172c-.643.12-1.279.292-1.915.471l-3.1.838c-.561.15-1.122.307-1.668.509-.419.15-1.144.748-1.556.748-.561,0-.1-.486.142-.815a3.993,3.993,0,0,1,1.989-1.443,16.739,16.739,0,0,1,3.979-1.092Z" transform="translate(-87.463 -184.434)" fill="#514e7f"/>
    <path id="Path_96" data-name="Path 96" d="M209.776,627.959c.748,2.363,1.5,4.727,2.4,7.03a59.486,59.486,0,0,0,6.222,11.338,81.7,81.7,0,0,0,5.138,6.731c2.288,2.7,4.846,5.415,5.654,8.862a44.883,44.883,0,0,1,.509,6.11c.194,2.034.86,4.2,2.505,5.414a9.31,9.31,0,0,0,4.128,1.361c1.032.164,2.326.217,2.864-.681a2.551,2.551,0,0,0,.284-1.182l.247-2.991c.06-.643.284-1.5.927-1.5s.972.83,1.5,1.212a1.623,1.623,0,0,0,2.244-.748,3.792,3.792,0,0,0,.06-2.617,12.429,12.429,0,0,0-6.364-7.912,19.174,19.174,0,0,1-3.111-1.623,10.47,10.47,0,0,1-2.446-3.081c-5.661-9.311-11.345-18.7-15.331-28.8a21.307,21.307,0,0,1-1.578-5.676,36.643,36.643,0,0,1,.247-5.983,34.244,34.244,0,0,0-.965-10.694,8.4,8.4,0,0,0-1.025-2.6c-1.638-2.5-5.5-2.864-7.942-1.144a8.181,8.181,0,0,0-3.156,5.773c-.179,2.012.987,4.113,1.578,5.983Q207.069,619.262,209.776,627.959Z" transform="translate(-89.842 -185.876)" fill="#a1616a"/>
    <path id="Path_97" data-name="Path 97" d="M244.137,565.236c.09-.95-.748-1.81-1.728-2.416a24.113,24.113,0,0,1-2.932-1.795c-.867-.748-1.339-1.728-2.206-2.475a9.721,9.721,0,0,0-3.291-1.638,24.979,24.979,0,0,0-7.867-1.413,13.858,13.858,0,0,0-7.531,1.989,4.488,4.488,0,0,0-1.279,1.189,5.236,5.236,0,0,0-.621,1.892,37.39,37.39,0,0,1-1.967,5.983c-.845,2.154-1.75,4.382-3.739,6.043-2.131,1.78-5.4,2.8-6.806,4.951a1.608,1.608,0,0,0-.307,1.384c.2.538.853.9,1.443,1.249,3.463,1.989,6.447,4.562,7.987,7.643a8.862,8.862,0,0,1-.7,9.535c-.8,1.047-1.907,2.288-1.122,3.343,1.189,1.6,5.295.688,6.237,2.378a3.38,3.38,0,0,1,.127,1.75c0,1.772,1.713,3.358,3.792,4.173a21.141,21.141,0,0,0,6.82,1.122,5.893,5.893,0,0,0,.172-4.412,1.765,1.765,0,0,1-.172-1,2.409,2.409,0,0,1,.748-.965c2.505-2.363,1.974-5.841.471-8.645s-3.837-5.377-4.7-8.331a4.232,4.232,0,0,1,.748-4.338,15.107,15.107,0,0,1,2.146-1.571,8.159,8.159,0,0,0,2.991-3.739c.7-1.944.591-4.285,2.64-5.572s4.7-.867,6.865-1.7A7.358,7.358,0,0,0,244.137,565.236Z" transform="translate(-90.108 -175.227)" fill="#464353"/>
    <circle id="Ellipse_14" data-name="Ellipse 14" cx="12.437" cy="12.437" r="12.437" transform="translate(205.542 381.603)" fill="#fbbebe"/>
    <path id="Path_98" data-name="Path 98" d="M354.2,572.406a16.124,16.124,0,0,0,10.32,7.217l-.935,3.4c-1.615,5.848-3.44,12.041-7.957,16.094a7.523,7.523,0,0,0-1.264-5.818,22.032,22.032,0,0,0-4.218-4.412l-7.157-6.23a1.952,1.952,0,0,1-.538-.6,1.825,1.825,0,0,1,0-1.361c.912-2.842,3.515-4.614,5.624-6.529a19.836,19.836,0,0,0,2.834-3.3C352.38,568.846,353.3,570.888,354.2,572.406Z" transform="translate(-125.03 -178.889)" fill="#fbbebe"/>
    <path id="Path_99" data-name="Path 99" d="M358.449,590.243a6.73,6.73,0,0,1-.366,2.745,1.929,1.929,0,0,1-2.244,1.152c.262-.591-.426-1.264-1.069-1.189a2.011,2.011,0,0,0-1.421,1.2,4.487,4.487,0,0,0-.411,2.782c.2,1.182.882,2.311.7,3.492-.142.98-.868,1.959-.479,2.879a4.623,4.623,0,0,0,.927,1.107,3.141,3.141,0,0,1-.337,4.308l9.722.187a6.82,6.82,0,0,0,1.2,4.719,29.713,29.713,0,0,0,22.152,14.464,1.929,1.929,0,0,0-.464,2.947,2.727,2.727,0,0,0,3.111.179,23.608,23.608,0,0,0,2.67-2,8.159,8.159,0,0,1,5.474-1.5c1.219.112,2.393.5,3.612.568,3.59.194,6.678-2.393,10.111-3.448,2.52-.748,5.37-.748,7.479-2.348a2.965,2.965,0,0,0,1.391-2.887,4.7,4.7,0,0,0-1.047-1.69,30.1,30.1,0,0,1-2.8-5.235,31.252,31.252,0,0,0-7.007-9.378,61.851,61.851,0,0,0-6.94-5.272,11.749,11.749,0,0,0-1.885-1.129,19.3,19.3,0,0,1-2.573-1.047,14.353,14.353,0,0,1-2.67-2.991c-1.922-2.244-4.876-3.268-7.247-5.033-1.585-1.182-2.991-2.737-4.884-3.313-.92-.277-1.907-.3-2.827-.576-2.094-.636-3.62-2.5-5.676-3.246-1.623-.6-3.418-.441-5.138-.658a11.966,11.966,0,0,1-5.28-2,6.35,6.35,0,0,0-1.705-1c-2.6-.748-2.8,4.053-3.051,5.729A48.029,48.029,0,0,0,358.449,590.243Z" transform="translate(-127.689 -180.64)" fill="#3f3d56"/>
    <path id="Path_100" data-name="Path 100" d="M351.6,613.768c.434,4.719-3.134,9.3-2.094,13.925.224.987.643,1.922.8,2.917.434,2.745-1.2,5.34-2.767,7.636l-13.461,19.7a11.966,11.966,0,0,1-1.915,2.371c-2.573,2.281-6.417,2.042-9.789,2.73a16.759,16.759,0,0,0-6.559,2.9.426.426,0,0,0-.082.583,5.624,5.624,0,0,0,4.876,2.288c.352.464,0,1.152-.486,1.5-.748.5-1.713.636-1.855,1.855a2.078,2.078,0,0,0,.239,1.234,3.829,3.829,0,0,0,2.356,1.63c4.644,1.421,9.662-1.077,13.14-4.487s5.983-7.681,9.393-11.143c1.892-1.915,4.038-3.552,5.983-5.407,3.881-3.739,6.9-8.227,9.819-12.714a14.148,14.148,0,0,0,2.124-4.33c.359-1.533.195-3.163.613-4.682.538-2,2-3.59,3.216-5.235a17.4,17.4,0,0,0,3.657-11.338c-.314-4.046-2.819-8.025-6.626-9.4a5.93,5.93,0,0,0-3.739-.224,8.91,8.91,0,0,0-3.784,2.991l-2.55,2.947a7,7,0,0,0-1.5,2.244,2.356,2.356,0,0,0,.524,2.505" transform="translate(-118.305 -187.929)" fill="#fbbebe"/>
    <path id="Path_101" data-name="Path 101" d="M369.873,590.446c-1.765.1-3.739.277-4.958,1.5a6.925,6.925,0,0,0-1.241,1.959c-1.212,2.46-2.393,5.041-2.475,7.785a35.1,35.1,0,0,0,.9,6.506c.277,1.8-.426,3.642-.561,5.467a37.323,37.323,0,0,0,7.06-2.715,23.606,23.606,0,0,1,4.136-2.146c2.1-.7,5.646.5,7.636,1.5.112-1.406-.942-3.852-.83-5.235a5.736,5.736,0,0,1,.314-1.742,10.39,10.39,0,0,1,1.054-1.683,6.888,6.888,0,0,0-.621-8.084c-1.772-2-4.554-2.745-7.209-3.059a31.533,31.533,0,0,0-5.041-.172" transform="translate(-129.787 -183.999)" fill="#3f3d56"/>
    <path id="Path_102" data-name="Path 102" d="M320.281,553.822,320,551.482c1.967.5,3.829-1.159,5.085-2.887s2.416-3.739,4.323-4.487c2.326-.875,4.786.523,7.007,1.675a21.935,21.935,0,0,0,8.04,2.662,5.688,5.688,0,0,1,1.331.217c1.443.516,2.131,2.326,2.341,3.971s.15,3.4.86,4.861c.546,1.107,1.5,1.937,2.034,2.991,1.5,2.939.052,6.963,1.66,9.849l-3.986-3.65c-.366-.337-.882-.688-1.279-.4s-.344.748-.479,1.1a2.087,2.087,0,0,1-2.834,1.032,7.771,7.771,0,0,1-2.535-2.318,15.5,15.5,0,0,0-6.327-4.794,8.084,8.084,0,0,0-6.693.4c-1.862,1.054-3.223,3.5-5.5,3.582-3.126.12-4.427-5.7-5.871-7.995a2.834,2.834,0,0,0,.823-3.53C318.21,553.68,320.236,553.463,320.281,553.822Z" transform="translate(-118.688 -172.287)" fill="#464353"/>
    <path id="Path_103" data-name="Path 103" d="M734.491,766.319c-.606-2.565-.972-4.809-.972-4.809a9.961,9.961,0,0,0-1.114-4.884v-.7h0v-5.16a17.064,17.064,0,0,1,1.3-2.7c.927-1.615,0-7.553,0-7.553s-3.44-8.369-2.61-13.678-7.06-23.58-7.06-23.58a23.3,23.3,0,0,1,.748-5.235,3.777,3.777,0,0,0,.1-1.092.806.806,0,0,0,0-.135v.045c-.12-3.5-2.887-10.066-2.887-10.066l.374-12.5s1.765-7.381-1.114-17.283c-1.01-3.455-1.653-6.215-2.064-8.354-.045-.239-.09-.471-.127-.7,5.931-.9,10.47-1.66,10.47-1.66s-3.44-14.4-5.766-16.917-4.181-10.433-4.181-10.433-1.212-10.171.748-13.14,2.244-8.1,2.244-8.1,4.487-3.238,5.018-4.682a23.707,23.707,0,0,0,1.5-6.387c0-1.713-.561-3.238-.374-4.143s-1.3-4.315-.553-5.938a4.347,4.347,0,0,0,.292-1.563.1.1,0,0,0,0-.045h0a22.228,22.228,0,0,0-.4-4.225,11.967,11.967,0,0,0-4.412-2.363l-.1-.381-.254-1.01a3.405,3.405,0,0,0-.441-.262v-1.87l.7-3.291c1.376-5.706-6.252-6.559-6.252-6.559a4.024,4.024,0,0,0-2.161-1.9c-1.5-.538-.254,8.6.464,9.184a29.756,29.756,0,0,1,2.991,4.711h0l.135.232a3.049,3.049,0,0,0-.352.366l.292,1.982.045.307a8.145,8.145,0,0,0-1.219,2.072,4.42,4.42,0,0,1,1.114,3.246,10.17,10.17,0,0,0,.464,3.956c-.082-.1-1.062-1.159-2.042-.9s-3.739,1.077-3.739,1.077-2.049.359-1.862.808-1.391,2.431-1.391,2.431l-5.5-5.235c-.06-.157-.112-.314-.165-.471a12.565,12.565,0,0,1-.471-2.244,12.221,12.221,0,0,0,1.75-.561,3.791,3.791,0,0,0,1.5-.972,5.938,5.938,0,0,0,.882-2.371,32.91,32.91,0,0,1,2.042-4.547,14.793,14.793,0,0,0,1.062-8.114,5.4,5.4,0,0,0-.838-2.393c-.9-1.234-2.528-1.735-3.739-2.722s-1.944-2.483-3.328-3.223a6.559,6.559,0,0,0-4.173-.359,22.3,22.3,0,0,0-7.785,2.827,4,4,0,0,1-2.61.86,3.523,3.523,0,0,1-1.877-1.376.367.367,0,0,1,0-.082l-.067-.067a9.848,9.848,0,0,0-.853,4.113v.883a1.722,1.722,0,0,1,0,.194h0a1.317,1.317,0,0,1-.045.292,2.116,2.116,0,0,1-.509.748,3.317,3.317,0,0,0-.449.613.661.661,0,0,1,.075-.224,3.246,3.246,0,0,0-.576,1.728,1.72,1.72,0,0,0,.419,1.241,5.983,5.983,0,0,0,.89.748,10.474,10.474,0,0,0-.157,1.825,10.635,10.635,0,0,0,5.175,9.072l.187.471a13.081,13.081,0,0,1,.995,5.983,1.01,1.01,0,0,1-.067.441l-.194.224h0s-9.079.09-11.218-1.847S675,582.719,675,582.719s-3.253.636-3.9,0-4.487-.09-4.487-.09a8.227,8.227,0,0,0-5.669-2.064,16.652,16.652,0,0,0-4.166-2.318h0l-.1-.037h0a4.652,4.652,0,0,0-2.049-.254s-4.487-3.694-5.759-5.669-7.479-9.326-7.531-9.363v-.351l-.075-1.069a4.173,4.173,0,0,1-.553.052,1.3,1.3,0,0,0-.127-.374,20.192,20.192,0,0,0-1.316-2.991s0-1.346.4-1.683-.164-5.287-.164-5.287-4.023-9.4-7.621-2.386c0,0-6.813,4.539-1.1,9.834,0,0,2.244,1.1,2.6,1.974.217.568.987,2.161,1.5,3.216l.232.471-.067.052.09.883v.344c-1.077.606-1.8,1.211-1.63,1.675a9.846,9.846,0,0,1,.651,2.431s7.9,9.894,8.93,14.127c0,0,21.194,12.594,28.164,13.5l-1.2,6.3a49.827,49.827,0,0,0-.277,5.13c.09,1.346-.838,7.479-.838,7.479s-1.212,8.974-2.244,10.253-.838,6.663-.838,6.663a44.942,44.942,0,0,1-1.391,7.643,19.423,19.423,0,0,0-.277,7.651s-3.537,8.1,4.928,2.61c0,0,4.151-.254,8.974-.419v2.461c-.06,4.637-.09,11.031.12,15.87.374,8.548,2.991,25.427,2.991,25.427v8.5a11.881,11.881,0,0,0-.239,2.431,15.75,15.75,0,0,0,2.288,8.511l.651,5.669a23.483,23.483,0,0,1,1.556,5.983,2.946,2.946,0,0,1-.067.538,4.017,4.017,0,0,0-.075.868c-.082,2.573,1.5,8.735,1.5,8.735s.1,6.207,1.025,6.566c.793.307-1.062,3.582-1.615,4.487a1.5,1.5,0,0,1-.037-.179c-.067.12-.112.187-.112.187a4.362,4.362,0,0,0-.292,1.571,2.244,2.244,0,0,0,1.032,2.184c1.765,1.084,2.715,1.982,1.219,2.341a14.85,14.85,0,0,0-1.638.344c0-.067-.06-.142-.082-.209a1,1,0,0,0-.583,1.039,4.6,4.6,0,0,0,.561,2.1,22.436,22.436,0,0,0,2.513,4.592l.748-.082a3.529,3.529,0,0,1-.419.748,2.894,2.894,0,0,1-1.047.927,3.349,3.349,0,0,1-1.271.441,3.545,3.545,0,0,0-2.633,1.279c-.927,1.2-1.5,2.834.322,4.27l6.648,2.288s11.435,1.5,10.829-1.077-.972-4.809-.972-4.809a10.149,10.149,0,0,0-.935-4.555,4.487,4.487,0,0,0-.4-.673l.4-.045s.838-5.669,1.952-6.731c.262-.247.322-.441.254-.591.12-.307-.172-.486-.546-.591l-.082.224a5.622,5.622,0,0,0-1.107-.12s-.374-2.992.83-4.053a1.144,1.144,0,0,0,.239-.882,5.085,5.085,0,0,0-.127-1.212l-.045.075a43.192,43.192,0,0,0-2.67-6.978s-.09-2.7.651-3.784-.09-14.666-.09-14.666.277-6.566-.561-9.625,1.025-6.663,1.025-6.663v-.239s-.045-.4-.112-1.039v.067c-.187-1.743-.538-4.891-.8-6.342-.374-2.072.09-11.966.09-11.966l1.675-4.225,2.991,7.284,3.156,9.722a8.263,8.263,0,0,1,1.608,4.128c0,.1,0,.209,0,.307a4.884,4.884,0,0,0,0,.651,5.8,5.8,0,0,0,.965,3.463s.838,4.592,2.139,5.759a5.184,5.184,0,0,1,1.3,3.418s1.578,6.663,2.326,7.83c.628.987.658,3.694.651,4.487h0v.247s.217,2.378.209,4.382v.7a6.971,6.971,0,0,1-.194,1.615v-.239a16.651,16.651,0,0,0-.479,4.151c-.045,2.393.322,5.235,1.773,6.888,2.513,2.879,4.091,2.52,4.091,2.52s-1.211,3.6-2.7,4.323a.9.9,0,0,0-.157.1.417.417,0,0,0-.037-.209,1.757,1.757,0,0,0-.434,1.346,9.632,9.632,0,0,0,1.84,5.332,2.946,2.946,0,0,0,1.256.748l-.232.142a5.225,5.225,0,0,1-.516.247,2.439,2.439,0,0,1-.748.195,3.545,3.545,0,0,0-2.633,1.279c-.927,1.2-1.5,2.834.322,4.27l6.648,2.288S735.067,768.921,734.491,766.319Z" transform="translate(-197.183 -172.892)" fill="url(#linear-gradient)"/>
    <path id="Path_104" data-name="Path 104" d="M709.269,841.947l-6.439-2.288c-1.772-1.436-1.2-3.074-.307-4.27a3.388,3.388,0,0,1,2.543-1.279,3.149,3.149,0,0,0,1.234-.441,2.916,2.916,0,0,0,1.017-.927,4.733,4.733,0,0,0,.748-2.49s7.067-2.064,8.974,0a5.28,5.28,0,0,1,.86,1.256,10.471,10.471,0,0,1,.9,4.555s.359,2.244.942,4.809S709.269,841.947,709.269,841.947Z" transform="translate(-215.636 -244.272)" fill="#2d293d"/>
    <path id="Path_105" data-name="Path 105" d="M751.379,837.746l-6.432-2.289c-1.78-1.436-1.212-3.074-.314-4.263a3.38,3.38,0,0,1,2.55-1.286,2.327,2.327,0,0,0,.748-.195,3.792,3.792,0,0,0,.494-.247c1.8-.987,1.757-3.418,1.757-3.418s7.06-2.072,8.974,0a5,5,0,0,1,.673.92,10.275,10.275,0,0,1,1.085,4.891s.359,2.244.942,4.809S751.379,837.746,751.379,837.746Z" transform="translate(-226.254 -243.212)" fill="#2d293d"/>
    <path id="Path_106" data-name="Path 106" d="M718.95,830.25a5.279,5.279,0,0,1,.86,1.256h0l-10.59,1.227a4.734,4.734,0,0,0,.748-2.49S717.02,828.186,718.95,830.25Z" transform="translate(-217.539 -244.271)" opacity="0.1"/>
    <path id="Path_107" data-name="Path 107" d="M761.231,826.924v1.982c-1.645,2.715-9.61,2.124-11.921.748a3.8,3.8,0,0,0,.494-.247c1.8-.987,1.757-3.418,1.757-3.418s7.06-2.072,8.974,0A5.005,5.005,0,0,1,761.231,826.924Z" transform="translate(-227.647 -243.197)" opacity="0.1"/>
    <path id="Path_108" data-name="Path 108" d="M748.8,780.669a17.669,17.669,0,0,0-1.264,2.7v7.112c-1.795,2.991-11.158,1.982-12.414.359s-2.61-5.848-1.174-6.566,2.61-4.323,2.61-4.323-1.5.359-3.956-2.52-1.705-9.266-1.256-10.8,0-6.656,0-6.656.09-3.6-.628-4.771-2.244-7.83-2.244-7.83a5.315,5.315,0,0,0-1.256-3.418c-1.256-1.174-2.072-5.759-2.072-5.759a5.9,5.9,0,0,1-.9-3.866c.269-2.244-1.533-4.682-1.533-4.682l-3.059-9.722-2.879-7.292-1.615,4.225s-.456,9.9-.09,11.966.9,7.553.9,7.553-1.8,3.6-.987,6.663.538,9.625.538,9.625.808,13.589.09,14.673-.628,3.739-.628,3.739,3.687,7.92,2.513,8.974-.808,4.053-.808,4.053,2.52,0,1.443,1.077-1.892,6.731-1.892,6.731l-10.9,1.376a23.037,23.037,0,0,1-2.438-4.592c-1.436-3.328.269-2.991,1.72-3.328s.531-1.256-1.182-2.341-.748-3.507-.748-3.507,2.61-4.412,1.713-4.771-.995-6.566-.995-6.566-1.795-7.381-1.346-9.356-1.443-6.731-1.443-6.731L700,746.432a15.585,15.585,0,0,1-1.944-10.724V726.95s-2.52-16.917-2.887-25.427c-.224-5.474-.165-12.945-.09-17.612.045-2.61.09-4.345.09-4.345l38.889-4.046a32.221,32.221,0,0,0,.71,5.773c.4,2.131,1.017,4.9,1.989,8.354a37.993,37.993,0,0,1,1.084,17.276l-.359,12.5s3.418,8.369,2.7,11.218a23.752,23.752,0,0,0-.748,5.235s7.651,18.27,6.843,23.58S748.8,773.1,748.8,773.1,749.7,779.084,748.8,780.669Z" transform="translate(-213.956 -205.49)" fill="#464353"/>
    <path id="Path_109" data-name="Path 109" d="M737.22,752.908l11.8-1.578S742.35,758.165,737.22,752.908Z" transform="translate(-224.599 -224.605)" opacity="0.05"/>
    <path id="Path_110" data-name="Path 110" d="M750.024,735.87s.411,4.181-2.154,5.759C747.87,741.629,752.454,740.911,750.024,735.87Z" transform="translate(-227.284 -220.706)" opacity="0.1"/>
    <path id="Path_111" data-name="Path 111" d="M745.075,718.06s-9.887,8.144-13.461,7.479S745.075,718.06,745.075,718.06Z" transform="translate(-223.061 -216.216)" opacity="0.1"/>
    <path id="Path_112" data-name="Path 112" d="M714.991,758.55s-7.479,1.713-7.733,4.726S714.991,758.55,714.991,758.55Z" transform="translate(-217.042 -226.425)" opacity="0.1"/>
    <path id="Path_113" data-name="Path 113" d="M717.067,808.72s-10.612,1.982-7.6,3.336a51.453,51.453,0,0,0,7.965,2.423S720.851,814.658,717.067,808.72Z" transform="translate(-217.465 -239.075)" opacity="0.05"/>
    <g id="Group_6" data-name="Group 6" transform="translate(481.014 473.74)" opacity="0.05">
      <path id="Path_114" data-name="Path 114" d="M706.322,815.481a2.1,2.1,0,0,1-.972-1.541l-.1.195s-.995,2.423.748,3.507c.194.12.381.247.553.366.314-.06.658-.1.98-.187C708.947,817.492,708.034,816.587,706.322,815.481Z" transform="translate(-697.479 -714.13)"/>
      <path id="Path_115" data-name="Path 115" d="M724.9,814.455c.292-.269.277-.965.1-1.855a5.019,5.019,0,0,0-.606,2.61,2,2,0,0,1,.5-.755Z" transform="translate(-702.379 -713.793)"/>
      <path id="Path_116" data-name="Path 116" d="M722.628,755.22a12.383,12.383,0,0,0-.748,3.306,13.068,13.068,0,0,1,.823-2.244A6.683,6.683,0,0,0,722.628,755.22Z" transform="translate(-701.745 -699.325)"/>
      <path id="Path_117" data-name="Path 117" d="M755.324,748.567a4.286,4.286,0,0,0,.1-.987c-.135.673-.224,1.3-.292,1.847C755.19,749.143,755.25,748.859,755.324,748.567Z" transform="translate(-710.128 -697.398)"/>
      <path id="Path_118" data-name="Path 118" d="M722.457,797.327a5.662,5.662,0,0,0,.269-2,6.591,6.591,0,0,0-.516,2.52A2.423,2.423,0,0,1,722.457,797.327Z" transform="translate(-701.828 -709.438)"/>
      <path id="Path_119" data-name="Path 119" d="M720.308,820.68a35.992,35.992,0,0,0-1.234,5.527l-10.881,1.264a22.537,22.537,0,0,1-2.438-4.592,8.005,8.005,0,0,1-.307-.793c-.651.3-.912.972-.052,2.991a22.277,22.277,0,0,0,2.438,4.584l10.874-1.264s.815-5.669,1.892-6.731C721.131,821.091,720.794,820.822,720.308,820.68Z" transform="translate(-697.451 -715.83)"/>
      <path id="Path_120" data-name="Path 120" d="M703.44,769.169s.09,6.215.987,6.574h0c.456-1.025.748-2,.352-2.161-.9-.359-.987-6.566-.987-6.566s-1.8-7.381-1.346-9.363S701,750.921,701,750.921l-.628-5.669a15.616,15.616,0,0,1-1.982-10.709V725.8s-2.52-16.917-2.879-25.465c-.232-5.474-.164-12.945-.09-17.612V680.48h-.307s-.045,1.728-.09,4.345c-.075,4.659-.142,12.138.09,17.612C695.475,710.985,698,727.9,698,727.9v8.728a15.563,15.563,0,0,0,2.027,10.8l.628,5.669s1.892,4.764,1.436,6.731S703.44,769.169,703.44,769.169Z" transform="translate(-694.956 -680.48)"/>
      <path id="Path_121" data-name="Path 121" d="M748.406,825.068a10.471,10.471,0,0,1-1.72-4.278c-1.114,1,.164,4.9,1.361,6.439s10.62,2.61,12.422-.366V825.15C758.031,827.566,749.6,826.6,748.406,825.068Z" transform="translate(-707.891 -715.858)"/>
      <path id="Path_122" data-name="Path 122" d="M767,812.882a17.988,17.988,0,0,0-1.256,2.7v1.264c.2-.464.494-1.077.9-1.8a5.45,5.45,0,0,0,.4-2.244Z" transform="translate(-712.803 -713.843)"/>
      <path id="Path_123" data-name="Path 123" d="M748.134,810.327a17.334,17.334,0,0,0,.89-2.139s-1.5.359-3.964-2.52c-1.765-2.094-1.862-6.05-1.615-8.638-.449,1.533-1.174,7.92,1.256,10.8C746.294,809.721,747.483,810.207,748.134,810.327Z" transform="translate(-707.066 -709.867)"/>
      <path id="Path_124" data-name="Path 124" d="M738.242,771.456a49.421,49.421,0,0,1,.179,5.332c.06-.351.127-.636.18-.838.456-1.5,0-6.656,0-6.656s.09-3.6-.628-4.771-2.244-7.83-2.244-7.83a5.315,5.315,0,0,0-1.256-3.418c-1.256-1.174-2.072-5.759-2.072-5.759a5.9,5.9,0,0,1-.9-3.866c.277-2.244-1.5-4.682-1.5-4.682l-3.059-9.722L724.025,722l-1.623,4.225s0,.531-.052,1.369l1.316-3.433,2.879,7.284,3.059,9.722s1.795,2.43,1.5,4.674a5.916,5.916,0,0,0,.935,3.829s.808,4.584,2.064,5.759a5.341,5.341,0,0,1,1.264,3.418s1.5,6.656,2.244,7.83S738.242,771.456,738.242,771.456Z" transform="translate(-701.863 -690.949)"/>
    </g>
    <path id="Path_125" data-name="Path 125" d="M750.714,563.916l-.673,3.291.037,1.5v1.077l-3.739.389-.419-.748h0A31.813,31.813,0,0,0,743,564.708c-.7-.583-1.929-9.722-.449-9.176a3.919,3.919,0,0,1,2.094,1.892S752.045,558.2,750.714,563.916Z" transform="translate(-225.768 -175.23)" fill="#ffcdd3"/>
    <path id="Path_126" data-name="Path 126" d="M751.488,574.039l-3.739.389-.419-.748h0a3.306,3.306,0,0,1,4.143-.681Z" transform="translate(-227.148 -179.528)" opacity="0.1"/>
    <path id="Path_127" data-name="Path 127" d="M752.352,575.929l-4.943,1.152-.1-.748-.284-1.982a3.4,3.4,0,0,1,4.794-.658l.247,1.01Z" transform="translate(-227.069 -179.638)" fill="#dce6f2"/>
    <path id="Path_128" data-name="Path 128" d="M642.868,561.909l-5.28,2.842-.479-1c-.509-1.054-1.256-2.64-1.5-3.208-.314-.875-2.52-1.982-2.52-1.982-5.534-5.287,1.054-9.827,1.054-9.827,3.492-7.022,7.381,2.378,7.381,2.378s.538,4.958.157,5.287-.381,1.69-.381,1.69a20.564,20.564,0,0,1,1.279,2.991C642.786,561.6,642.868,561.909,642.868,561.909Z" transform="translate(-197.786 -172.865)" fill="#ffcdd3"/>
    <path id="Path_129" data-name="Path 129" d="M644.969,566.949l-5.28,2.842-.479-1c.748-.621,3.388-2.767,4.255-2.67a6.192,6.192,0,0,0,1.256,0C644.886,566.642,644.969,566.949,644.969,566.949Z" transform="translate(-199.886 -177.905)" opacity="0.1"/>
    <path id="Path_130" data-name="Path 130" d="M645.56,568.671l-5.938,2.924-.12-1.279-.082-.875s3.44-2.954,4.487-2.842a5.516,5.516,0,0,0,1.556,0l.067,1.069Z" transform="translate(-199.939 -178.026)" fill="#dce6f2"/>
    <path id="Path_131" data-name="Path 131" d="M727.147,589.162s-25.9,2.924-21.06,1.354c3.373-1.1,4.711-3.238,5-5.617a13.678,13.678,0,0,0-.965-5.983,26,26,0,0,0-2.318-4.682s19.8-10.889,15.84-.987a15.523,15.523,0,0,0-1.122,4.689,13.219,13.219,0,0,0,.5,4.741,14.142,14.142,0,0,0,4.128,6.484Z" transform="translate(-216.597 -178.655)" fill="#ffcdd3"/>
    <path id="Path_132" data-name="Path 132" d="M724.42,573.241a15.526,15.526,0,0,0-1.122,4.689c-1.87,1.563-3.911,1.5-6.536,1.5-2.019,0-4.255.494-5.863-.479a26,26,0,0,0-2.318-4.682S728.376,563.339,724.42,573.241Z" transform="translate(-217.377 -178.655)" opacity="0.1"/>
    <circle id="Ellipse_15" data-name="Ellipse 15" cx="10.709" cy="10.709" r="10.709" transform="translate(488.324 380.01)" fill="#ffcdd3"/>
    <path id="Path_133" data-name="Path 133" d="M727.147,593.366s-25.9,2.924-21.06,1.354c3.373-1.1,4.711-3.238,5-5.617,1.286-1.4,3.874-2.408,5.542-2.939a7.726,7.726,0,0,1,4.689-.075,6.254,6.254,0,0,1,1.705.748A14.141,14.141,0,0,0,727.147,593.366Z" transform="translate(-216.597 -182.858)" opacity="0.1"/>
    <path id="Path_134" data-name="Path 134" d="M752.448,576.448,747.5,577.6l-.1-.748a4.368,4.368,0,0,1,4.756-1.63Z" transform="translate(-227.165 -180.157)" opacity="0.1"/>
    <path id="Path_135" data-name="Path 135" d="M645.588,569.032l-5.938,2.924-.12-1.279a43.7,43.7,0,0,1,5.983-2.647Z" transform="translate(-199.967 -178.387)" opacity="0.1"/>
    <path id="Path_136" data-name="Path 136" d="M734.774,681.244c-10.029,1.578-24.305,3.642-26.572,2.954-1.877-.576-7.875-.516-13.1-.337.045-2.61.09-4.345.09-4.345l38.889-4.046a32.212,32.212,0,0,0,.7,5.773Z" transform="translate(-213.978 -205.477)" opacity="0.1"/>
    <path id="Path_137" data-name="Path 137" d="M730.234,651.874s-33.026,5.669-36.57,4.584-21.74.1-21.74.1c-8.189,5.482-4.764-2.61-4.764-2.61a19.515,19.515,0,0,1,.269-7.651,46.861,46.861,0,0,0,1.346-7.651s-.18-5.4.808-6.656,2.161-10.261,2.161-10.261.9-6.118.815-7.479.269-5.123.269-5.123l1.167-6.3c-6.731-.9-27.267-13.5-27.267-13.5-.987-4.225-8.638-14.127-8.638-14.127a10.416,10.416,0,0,0-.628-2.431c-.538-1.436,7.561-4.315,7.561-4.315s6.028,7.381,7.284,9.356,5.579,5.669,5.579,5.669a4.36,4.36,0,0,1,1.982.262h.1A15.961,15.961,0,0,1,664,586.047a7.8,7.8,0,0,1,5.489,2.072s3.694-.538,4.323.09,3.739,0,3.739,0,3.156-6.656,5.235-4.726,10.851,1.847,10.851,1.847c1.174-1.556,4.016-2.67,5.8-3.246a7.726,7.726,0,0,1,4.689-.075,5.8,5.8,0,0,1,1.855.9l5.325,5.235s1.5-1.982,1.354-2.431,1.8-.808,1.8-.808,2.61-.808,3.6-1.084,1.9.808,1.974.9a10.537,10.537,0,0,1-.449-3.956,4.487,4.487,0,0,0-1.077-3.238c3.178-7.688,10.29-1.182,10.29-1.182s.808,4.225.09,5.848.748,5.041.538,5.938.359,2.431.359,4.136a24.607,24.607,0,0,1-1.436,6.394c-.546,1.436-4.861,4.674-4.861,4.674s-.269,5.13-2.161,8.1-.748,13.14-.748,13.14,1.795,7.92,4.046,10.47S730.234,651.874,730.234,651.874Z" transform="translate(-199.439 -178.493)" fill="#3f3d56"/>
    <path id="Path_138" data-name="Path 138" d="M695.632,599.009s-.987-2.991-1.892-3.246a21.3,21.3,0,0,1-2.61-1.167l.583-1.107s3.38.927,3.919,1.914S695.632,599.009,695.632,599.009Z" transform="translate(-212.977 -184.807)" opacity="0.1"/>
    <path id="Path_139" data-name="Path 139" d="M670.242,591.288c-.179.9-8.182,1.713-8.182,1.713l4.046-4.061h0l.1.037h0A15.957,15.957,0,0,1,670.242,591.288Z" transform="translate(-205.648 -183.66)" opacity="0.1"/>
    <circle id="Ellipse_16" data-name="Ellipse 16" cx="0.718" cy="0.718" r="0.718" transform="translate(440.677 394.564)" fill="#575988"/>
    <circle id="Ellipse_17" data-name="Ellipse 17" cx="0.718" cy="0.718" r="0.718" transform="translate(441.597 396.007)" fill="#575988"/>
    <circle id="Ellipse_18" data-name="Ellipse 18" cx="0.718" cy="0.718" r="0.718" transform="translate(442.502 397.331)" fill="#575988"/>
    <circle id="Ellipse_19" data-name="Ellipse 19" cx="0.718" cy="0.718" r="0.718" transform="translate(443.444 398.774)" fill="#575988"/>
    <circle id="Ellipse_20" data-name="Ellipse 20" cx="0.583" cy="0.583" r="0.583" transform="translate(528.401 398.826)" fill="#575988"/>
    <circle id="Ellipse_21" data-name="Ellipse 21" cx="0.583" cy="0.583" r="0.583" transform="translate(528.491 400.158)" fill="#575988"/>
    <circle id="Ellipse_22" data-name="Ellipse 22" cx="0.583" cy="0.583" r="0.583" transform="translate(528.566 401.481)" fill="#575988"/>
    <path id="Path_140" data-name="Path 140" d="M697.21,633.47c-.082-.1,20.192,25.51,35.95,10.709C733.16,644.179,708.271,647.552,697.21,633.47Z" transform="translate(-214.51 -194.887)" opacity="0.1"/>
    <path id="Path_141" data-name="Path 141" d="M681.63,651.28s12.138.329,13.409,3.822v3.635a2.326,2.326,0,0,1-2.244,0c-1.227-.658-8.563-4.39-11.151-2.6Z" transform="translate(-210.582 -199.378)" opacity="0.1"/>
    <path id="Path_142" data-name="Path 142" d="M681.93,651.28s11.607.314,12.826,3.642v3.47a2.244,2.244,0,0,1-2.161,0c-1.174-.636-8.226-4.188-10.664-2.475Z" transform="translate(-210.658 -199.378)" fill="#3f3d56"/>
    <path id="Path_143" data-name="Path 143" d="M690.49,616a39.1,39.1,0,0,0,4.7,8.069,31.521,31.521,0,0,0,7.374,7.12S690.692,617.7,690.49,616Z" transform="translate(-212.816 -190.483)" opacity="0.1"/>
    <path id="Path_144" data-name="Path 144" d="M685.18,597.18s2.027,8.743,7.239,11.711Z" transform="translate(-211.477 -185.737)" opacity="0.1"/>
    <path id="Path_145" data-name="Path 145" d="M680.939,598.359c-.052-.164-1.8,6.91,6.731,10.829C687.669,609.188,684.065,607.962,680.939,598.359Z" transform="translate(-210.362 -186.034)" opacity="0.1"/>
    <path id="Path_146" data-name="Path 146" d="M751.9,590.518c-.135,0,4.2,2.767,5.385,4.046C757.284,594.564,754.464,590.339,751.9,590.518Z" transform="translate(-228.299 -184.056)" opacity="0.1"/>
    <path id="Path_147" data-name="Path 147" d="M712.179,574.29a2.281,2.281,0,0,0,.83,1.451,2.34,2.34,0,0,0,1.01.224c3.268.2,6.663.344,9.722-.912a3.619,3.619,0,0,0,1.5-.98,5.825,5.825,0,0,0,.793-2.356,36.727,36.727,0,0,1,1.982-4.547A15.28,15.28,0,0,0,729.065,559a5.466,5.466,0,0,0-.815-2.393c-.867-1.234-2.445-1.735-3.59-2.722s-1.885-2.49-3.216-3.231a6.252,6.252,0,0,0-4.038-.359,21.335,21.335,0,0,0-7.538,2.834,3.733,3.733,0,0,1-2.52.86,3.463,3.463,0,0,1-1.855-1.421,9.96,9.96,0,0,0-.8,4.659,1.379,1.379,0,0,1-.5,1.451c-.808.935-1.309,2.416-.516,3.358.352.411.883.636,1.219,1.055.606.748.4,1.832.381,2.8a1.5,1.5,0,0,0,.239.95,1.391,1.391,0,0,0,1.324.314,3.619,3.619,0,0,1,1.406-.135,2.37,2.37,0,0,1,1.227.942A17.1,17.1,0,0,1,712.179,574.29Z" transform="translate(-216.04 -173.871)" fill="#2d293d"/>
    <g id="Group_7" data-name="Group 7" transform="translate(487.162 378.589)" opacity="0.1">
      <path id="Path_148" data-name="Path 148" d="M725.48,576.264a3.538,3.538,0,0,1-1.5.972c-2.991,1.264-6.417,1.114-9.677.912a2.2,2.2,0,0,1-1.01-.224,2.244,2.244,0,0,1-.838-1.443,16.692,16.692,0,0,0-2.73-6.334,2.333,2.333,0,0,0-1.227-.942,3.619,3.619,0,0,0-1.406.135,1.391,1.391,0,0,1-1.324-.314,1.45,1.45,0,0,1-.232-.95c0-.965.217-2.049-.389-2.8-.337-.419-.867-.643-1.219-1.055a2.109,2.109,0,0,1-.2-2.154,2.463,2.463,0,0,0-.157,2.872c.352.411.883.636,1.219,1.054.606.748.4,1.832.381,2.8a1.5,1.5,0,0,0,.239.95,1.383,1.383,0,0,0,1.324.314,3.62,3.62,0,0,1,1.406-.135,2.371,2.371,0,0,1,1.227.942,16.983,16.983,0,0,1,2.73,6.334,2.281,2.281,0,0,0,.83,1.451,2.34,2.34,0,0,0,1.01.224c3.268.2,6.664.344,9.722-.912a3.671,3.671,0,0,0,1.5-.98,2.848,2.848,0,0,0,.464-.867A.538.538,0,0,1,725.48,576.264Z" transform="translate(-703.176 -555.474)"/>
      <path id="Path_149" data-name="Path 149" d="M705.161,558.44a1.5,1.5,0,0,0,.329-.546,2.244,2.244,0,0,0,0-.7,9.873,9.873,0,0,1,.5-3.874l-.06-.067a9.872,9.872,0,0,0-.8,4.659A3.148,3.148,0,0,1,705.161,558.44Z" transform="translate(-703.663 -553.25)"/>
    </g>
    <path id="Path_150" data-name="Path 150" d="M712.62,591.039S726,592.812,727.2,590.8" transform="translate(-218.396 -184.129)" opacity="0.1"/>
    <path id="Path_151" data-name="Path 151" d="M747.4,583.72s7.426,0,9.064,2.8" transform="translate(-227.165 -182.343)" opacity="0.1"/>
  </g>
</svg>
