<svg xmlns="http://www.w3.org/2000/svg" width="233.979" height="209.339" viewBox="0 0 233.979 209.339">
  <g id="Group_119" data-name="Group 119" transform="translate(0 0)">
    <ellipse id="Ellipse_203" data-name="Ellipse 203" cx="116.99" cy="14.393" rx="116.99" ry="14.393" transform="translate(0 180.554)" fill="#3f3d56"/>
    <path id="Path_1146" data-name="Path 1146" d="M144.6,448.864v67.078L98.912,523.6,49,517.526V450.184L98.912,445.7Z" transform="translate(-36.06 -327.994)" fill="#3f3d56"/>
    <path id="Path_1147" data-name="Path 1147" d="M98.912,465.072v71.039L49,530.037V462.7Z" transform="translate(-36.06 -340.504)" opacity="0.1"/>
    <path id="Path_1148" data-name="Path 1148" d="M144.6,448.864l-45.687,3.7L49,450.184,98.912,445.7Z" transform="translate(-36.06 -327.994)" fill="#fff" opacity="0.1"/>
    <path id="Path_1149" data-name="Path 1149" d="M520.127,618.713V643.8l-31.954,7.13L424,645.649V623.2l1.051-.177.1-.016,55.365-9.314,38.934,4.93Z" transform="translate(-312.028 -451.627)" fill="#d0cde1"/>
    <path id="Path_1150" data-name="Path 1150" d="M488.173,652.9v24.032L424,671.649V649.2l1.051-.177Z" transform="translate(-312.028 -477.627)" opacity="0.1"/>
    <path id="Path_1151" data-name="Path 1151" d="M522.65,618.625,491.374,626.9l-63.024-3.89,55.365-9.314Z" transform="translate(-315.229 -451.627)" fill="#fff" opacity="0.1"/>
    <path id="Path_1152" data-name="Path 1152" d="M502,607.347v51.5a70.143,70.143,0,0,0,34.859,0v-51.5Z" transform="translate(-410.891 -461.124)" fill="#0053ff"/>
    <ellipse id="Ellipse_204" data-name="Ellipse 204" cx="17.43" cy="1.981" rx="17.43" ry="1.981" transform="translate(91.109 143.846)" fill="#0053ff"/>
    <ellipse id="Ellipse_205" data-name="Ellipse 205" cx="17.43" cy="1.981" rx="17.43" ry="1.981" transform="translate(91.109 143.846)" opacity="0.1"/>
    <path id="Path_1153" data-name="Path 1153" d="M632.318,338.028c.236.55.486,1.106.742,1.653l-.55.258c-.259-.553-.512-1.115-.751-1.671Z" transform="translate(-506.383 -262.929)" fill="#e6e6e6"/>
    <path id="Path_1154" data-name="Path 1154" d="M718.142,84.742c.347.739.68,1.492.99,2.238l-.561.233c-.464-1.117-.978-2.243-1.52-3.332l.544-.27Q717.876,84.171,718.142,84.742Zm-2.308-4.39-.524.307c-.615-1.051-1.274-2.092-1.956-3.1l.5-.342C714.546,78.235,715.212,79.288,715.835,80.352Zm4.6,10.093c.395,1.167.753,2.36,1.066,3.547l-.587.154c-.309-1.173-.664-2.353-1.054-3.506Zm-8.771-16.21-.478.375c-.752-.955-1.547-1.9-2.362-2.8l.45-.408c.826.912,1.63,1.863,2.39,2.83ZM722.324,97.6c.23,1.207.422,2.439.568,3.66l-.6.073c-.145-1.208-.334-2.425-.562-3.619ZM706.7,68.747l-.421.438c-.876-.842-1.792-1.664-2.722-2.443l.39-.465C704.886,67.064,705.812,67.895,706.7,68.747Zm16.509,36.212c.062,1.231.082,2.478.059,3.708l-.607-.011c.023-1.215,0-2.449-.058-3.666ZM701.028,64l-.357.491c-.984-.714-2-1.4-3.033-2.048l.322-.515C699,62.58,700.032,63.277,701.028,64Zm22.042,48.369c-.107,1.227-.259,2.465-.45,3.679l-.6-.094c.189-1.2.338-2.424.445-3.638Zm-28.312-52.3-.286.535c-1.072-.574-2.177-1.118-3.285-1.616l.249-.554C692.556,58.941,693.674,59.491,694.757,60.071Zm27.162,59.615c-.273,1.2-.592,2.4-.947,3.582l-.581-.175c.351-1.165.666-2.357.936-3.542ZM688.008,57.031l-.211.569c-1.14-.423-2.31-.811-3.476-1.155l.172-.582C685.673,56.211,686.855,56.6,688.008,57.031Zm31.776,69.745c-.434,1.151-.913,2.3-1.424,3.419l-.552-.252c.505-1.105.979-2.242,1.408-3.381Zm-38.879-71.84-.132.593c-1.186-.264-2.4-.49-3.6-.672l.091-.6C678.481,54.441,679.706,54.67,680.905,54.937Zm35.8,78.572c-.586,1.081-1.217,2.155-1.875,3.192l-.513-.325c.651-1.025,1.275-2.087,1.855-3.156Zm-43.125-79.68-.049.6c-1.213-.1-2.445-.158-3.661-.173l.008-.607C671.109,53.668,672.354,53.727,673.581,53.828Zm39.161,85.928c-.728.99-1.5,1.967-2.293,2.9l-.463-.392c.784-.927,1.547-1.893,2.267-2.872ZM666.171,53.732l.034.606c-1.216.068-2.445.18-3.653.332l-.076-.6C663.7,53.914,664.942,53.8,666.171,53.732ZM707.964,145.4c-.858.882-1.757,1.745-2.672,2.565l-.405-.453c.905-.811,1.794-1.663,2.642-2.535ZM658.82,54.658l.117.6c-1.193.235-2.393.514-3.566.83l-.158-.586C656.4,55.178,657.613,54.9,658.82,54.658Zm43.628,95.679c-.97.755-1.98,1.486-3,2.172l-.339-.5c1.009-.679,2.007-1.4,2.966-2.147ZM651.673,56.584l.2.574c-1.148.4-2.3.836-3.419,1.31l-.236-.559C649.349,57.43,650.512,56.984,651.673,56.584Zm44.634,97.886c-1.063.614-2.163,1.2-3.268,1.743l-.267-.545c1.093-.536,2.18-1.116,3.231-1.723ZM645.128,60.008c-1.087.548-2.168,1.14-3.212,1.759l-.31-.522c1.056-.626,2.149-1.224,3.248-1.779Zm-6.3,3.732c-1,.691-1.992,1.425-2.941,2.181l-.378-.475c.96-.765,1.961-1.507,2.975-2.206Zm-5.725,4.56c-.9.821-1.774,1.682-2.61,2.562l-.44-.418c.846-.89,1.734-1.762,2.64-2.591Zm-5.039,5.3c-.775.937-1.527,1.912-2.235,2.9l-.493-.354c.716-1,1.476-1.983,2.26-2.931ZM623.8,79.543c-.64,1.035-1.252,2.1-1.819,3.177l-.537-.283c.573-1.085,1.191-2.167,1.839-3.214Zm-3.417,6.472c-.493,1.111-.954,2.254-1.37,3.4l-.57-.208c.421-1.156.887-2.311,1.386-3.435Zm-2.506,6.879c-.338,1.17-.639,2.365-.9,3.552l-.593-.128c.26-1.2.565-2.41.906-3.592Zm-1.548,7.157c-.175,1.206-.311,2.431-.4,3.642l-.606-.046c.093-1.225.231-2.464.408-3.684Zm-.555,7.3c-.009,1.218.025,2.45.1,3.664l-.606.037c-.076-1.228-.11-2.475-.1-3.706Zm.453,7.313c.159,1.205.362,2.421.6,3.612l-.6.121c-.244-1.205-.45-2.434-.61-3.653Zm1.454,7.174c.323,1.171.691,2.347,1.094,3.495l-.573.2c-.408-1.161-.779-2.35-1.106-3.534Z" transform="translate(-494.172 -53.653)" fill="#e6e6e6"/>
    <path id="Path_1155" data-name="Path 1155" d="M891.361,445.759l.229.562c-.568.231-1.142.454-1.708.663l-.21-.57C890.231,446.208,890.8,445.988,891.361,445.759Z" transform="translate(-696.184 -342.21)" fill="#e6e6e6"/>
    <circle id="Ellipse_206" data-name="Ellipse 206" cx="11.356" cy="11.356" r="11.356" transform="translate(97.183 110.835)" fill="#0053ff"/>
    <path id="Path_1156" data-name="Path 1156" d="M223.879,558.887h10.908a38.15,38.15,0,0,0,0-13.005H223.879A23.4,23.4,0,0,1,223.879,558.887Z" transform="translate(-206.217 -415.891)" fill="#0053ff"/>
    <path id="Path_1157" data-name="Path 1157" d="M290.169,610.91H279.261a38.15,38.15,0,0,1,0-13.005h10.908A23.4,23.4,0,0,0,290.169,610.91Z" transform="translate(-246.563 -454.175)" fill="#4db6ac"/>
    <path id="Path_1158" data-name="Path 1158" d="M300.879,690.887h10.908a38.15,38.15,0,0,0,0-13.005H300.879A23.4,23.4,0,0,1,300.879,690.887Z" transform="translate(-262.883 -513.032)" fill="#0053ff"/>
    <path id="Path_1159" data-name="Path 1159" d="M250.717,299.827a31.2,31.2,0,1,0-14.476,11.623,10.092,10.092,0,1,0,14.476-11.623Z" transform="translate(-183.956 -199.04)" fill="#0053ff"/>
    <rect id="Rectangle_212" data-name="Rectangle 212" width="37.113" height="2.93" transform="translate(22.285 77.132)" fill="#fff"/>
    <rect id="Rectangle_213" data-name="Rectangle 213" width="37.113" height="2.93" transform="translate(22.285 82.016)" fill="#fff"/>
    <rect id="Rectangle_214" data-name="Rectangle 214" width="37.113" height="2.93" transform="translate(22.285 86.899)" fill="#fff"/>
    <path id="Path_1160" data-name="Path 1160" d="M896.168,500.194c-.061-.1-1.49-2.485-1.985-7.44-.455-4.546-.162-12.208,3.811-22.9a46.172,46.172,0,0,0-1.829-36.747l.457-.265a40.558,40.558,0,0,1,3.826,10.839,47.288,47.288,0,0,1-1.959,26.357c-7.515,20.213-1.928,29.782-1.871,29.876Z" transform="translate(-699.385 -332.707)" fill="#3f3d56"/>
    <circle id="Ellipse_207" data-name="Ellipse 207" cx="3.433" cy="3.433" r="3.433" transform="translate(190.406 92.349)" fill="#0053ff"/>
    <circle id="Ellipse_208" data-name="Ellipse 208" cx="3.433" cy="3.433" r="3.433" transform="translate(201.233 105.025)" fill="#3f3d56"/>
    <circle id="Ellipse_209" data-name="Ellipse 209" cx="3.433" cy="3.433" r="3.433" transform="translate(193.839 113.476)" fill="#0053ff"/>
    <circle id="Ellipse_210" data-name="Ellipse 210" cx="3.433" cy="3.433" r="3.433" transform="translate(202.818 120.606)" fill="#0053ff"/>
    <circle id="Ellipse_211" data-name="Ellipse 211" cx="3.433" cy="3.433" r="3.433" transform="translate(191.198 131.698)" fill="#3f3d56"/>
    <path id="Path_1161" data-name="Path 1161" d="M908.469,647.136s-3.433-8.451,6.866-14.789Z" transform="translate(-709.613 -479.522)" fill="#3f3d56"/>
    <path id="Path_1162" data-name="Path 1162" d="M855.959,662.938s-1.562-8.987-13.655-8.91Z" transform="translate(-661.325 -495.477)" fill="#3f3d56"/>
    <circle id="Ellipse_212" data-name="Ellipse 212" cx="11.529" cy="11.529" r="11.529" transform="translate(162.093 35.423)" fill="#2f2e41"/>
    <path id="Path_1163" data-name="Path 1163" d="M720.51,293.011,717.3,300.3l-3.428-10.285s-.429-9-3.428-8.571-.429,9-.429,9,1.928,19.07,6.214,18,7.071-7.285,7.071-7.285l.75-6.57Z" transform="translate(-563.214 -221.274)" fill="#a0616a"/>
    <path id="Path_1164" data-name="Path 1164" d="M792.421,258.449s1.286,7.071-1.5,8.571,10.713,1.071,10.928-1.286c0,0-3-7.285-3-9Z" transform="translate(-623.233 -203.104)" fill="#a0616a"/>
    <path id="Path_1165" data-name="Path 1165" d="M720.576,483.1s1.071,12.213,1.5,14.785a49.07,49.07,0,0,1,.429,6.428,103.854,103.854,0,0,0-.643,16.284l.643,6.642h4.928l.188-.884,1.955-9.187s2.143-7.5,1.286-13.07l2.357-18Z" transform="translate(-571.744 -369.692)" fill="#a0616a"/>
    <path id="Path_1166" data-name="Path 1166" d="M778.182,499.332s5.142,16.07,6.428,17.784a39.226,39.226,0,0,1,3,5.571s3.642,9,5.571,10.5l2.143,3.857,3.643-1.071-1.071-8.571a27.076,27.076,0,0,0-5.142-13.285L790.4,499.761Z" transform="translate(-614.137 -381.635)" fill="#a0616a"/>
    <path id="Path_1167" data-name="Path 1167" d="M772.2,288.14s-6.344,1.658-8.743.936a19.087,19.087,0,0,0-3.256.135c-.857.214-6.214,2.143-6.214,2.571s1.071,4.714,1.071,4.714a14.811,14.811,0,0,0-.429,4.285c.214,1.714-3.857,7.071-1.714,7.5s3.428-.429,4.5.428,13.928,4.714,13.928,4.714l10.713-21.213s-1.714-3.642-3.214-3.642a34.41,34.41,0,0,1-5.5-1.1Z" transform="translate(-595.08 -225.724)" fill="#3f3d56"/>
    <path id="Path_1168" data-name="Path 1168" d="M751.885,303.411l-1.071-.429s-3.857,6-2.571,6.642,4.5,2.143,4.5,2.143Z" transform="translate(-591.911 -237.138)" fill="#3f3d56"/>
    <path id="Path_1169" data-name="Path 1169" d="M713.528,363.023l-3.428,5.571s-5.357.857-5.785,8.142c0,0-3.643,1.286-4.5,7.928,0,0-5.357,3.428-2.571,7.285s17.784,11.57,33.64,9c0,0,3-6,.857-10.071,0,0,2.3-4.323-1.636-7.3a7.54,7.54,0,0,0-.078-8.981l.214-6.857Z" transform="translate(-553.982 -281.323)" fill="#2f2e41"/>
    <path id="Path_1170" data-name="Path 1170" d="M712.072,647.81h-6s-.214,5.357-2.571,6.642-6.857,8.142-3.428,9,13.5-5.571,13.5-7.071S712.072,647.81,712.072,647.81Z" transform="translate(-555.74 -490.902)" fill="#2f2e41"/>
    <path id="Path_1171" data-name="Path 1171" d="M844.177,634.829l-5.142,1.928s3.857,10.5,3.857,12,.643,3.214,4.5,2.571,3.214-3.642,3.214-3.642Z" transform="translate(-658.919 -481.349)" fill="#2f2e41"/>
    <circle id="Ellipse_213" data-name="Ellipse 213" cx="6.642" cy="6.642" r="6.642" transform="translate(164.688 43.989)" fill="#a0616a"/>
    <path id="Path_1172" data-name="Path 1172" d="M821.786,333s-3,10.713-3.428,11.57l-7.071,18.213s.857,9.214-2.357,7.714-.214-9.428-.214-9.428l4.928-19.5L816.429,333Z" transform="translate(-635.671 -259.231)" fill="#a0616a"/>
    <path id="Path_1173" data-name="Path 1173" d="M842.107,298.926l2.571,1.714s2.143,8.356,0,8.142-7.071,1.071-7.285.643S842.107,298.926,842.107,298.926Z" transform="translate(-657.706 -234.153)" fill="#3f3d56"/>
    <circle id="Ellipse_214" data-name="Ellipse 214" cx="4.77" cy="4.77" r="4.77" transform="translate(172.432 30.103)" fill="#2f2e41"/>
    <path id="Path_1174" data-name="Path 1174" d="M801.15,162.629a4.771,4.771,0,0,1,4.273-4.745,4.83,4.83,0,0,0-.5-.026,4.77,4.77,0,1,0,0,9.541,4.821,4.821,0,0,0,.5-.026A4.771,4.771,0,0,1,801.15,162.629Z" transform="translate(-630.308 -130.34)" fill="#2f2e41"/>
    <ellipse id="Ellipse_215" data-name="Ellipse 215" cx="7.951" cy="4.77" rx="7.951" ry="4.77" transform="translate(163.743 38.421)" fill="#2f2e41"/>
    <ellipse id="Ellipse_216" data-name="Ellipse 216" cx="0.536" cy="1.286" rx="0.536" ry="1.286" transform="translate(177.866 49.024)" fill="#a0616a"/>
    <rect id="Rectangle_215" data-name="Rectangle 215" width="72.359" height="40.299" transform="translate(75.789 23.076)" fill="#3f3d56"/>
    <rect id="Rectangle_216" data-name="Rectangle 216" width="45.597" height="1.337" transform="translate(89.083 38.499)" fill="#fff"/>
    <rect id="Rectangle_217" data-name="Rectangle 217" width="45.597" height="1.337" transform="translate(89.083 43.845)" fill="#fff"/>
    <rect id="Rectangle_218" data-name="Rectangle 218" width="45.597" height="1.337" transform="translate(89.083 49.191)" fill="#fff"/>
    <rect id="Rectangle_219" data-name="Rectangle 219" width="72.359" height="4.489" transform="translate(75.789 23.12)" fill="#0053ff"/>
    <circle id="Ellipse_217" data-name="Ellipse 217" cx="1.635" cy="1.635" r="1.635" transform="translate(77.11 23.862)" fill="#e6e6e6"/>
    <circle id="Ellipse_218" data-name="Ellipse 218" cx="1.635" cy="1.635" r="1.635" transform="translate(81.548 23.862)" fill="#e6e6e6"/>
    <circle id="Ellipse_219" data-name="Ellipse 219" cx="1.635" cy="1.635" r="1.635" transform="translate(85.987 23.862)" fill="#e6e6e6"/>
  </g>
</svg>
