<svg xmlns="http://www.w3.org/2000/svg" xmlns:xlink="http://www.w3.org/1999/xlink" width="228.54" height="185.618" viewBox="0 0 228.54 185.618">
  <defs>
    <linearGradient id="linear-gradient" x1="0.5" y1="1" x2="0.5" gradientUnits="objectBoundingBox">
      <stop offset="0" stop-color="gray" stop-opacity="0.251"/>
      <stop offset="0.54" stop-color="gray" stop-opacity="0.122"/>
      <stop offset="1" stop-color="gray" stop-opacity="0.102"/>
    </linearGradient>
    <linearGradient id="linear-gradient-2" x1="0.5" x2="0.5" y2="0" xlink:href="#linear-gradient"/>
    <linearGradient id="linear-gradient-3" x1="0" y1="0.5" x2="1" y2="0.5" xlink:href="#linear-gradient"/>
  </defs>
  <g id="undraw_hello_aeia" transform="translate(-0.028 0.042)">
    <g id="Group_1" data-name="Group 1" transform="translate(194.836 67.914)" opacity="0.7">
      <path id="Path_2" data-name="Path 2" d="M945.752,352.5v-2.7H932.24v12.5a2.634,2.634,0,0,0,2.634,2.634h8.243a2.634,2.634,0,0,0,2.634-2.634v-2.776a3.514,3.514,0,1,0,0-7.027Zm0,5.676v-4.326a2.163,2.163,0,1,1,0,4.324Z" transform="translate(-932.24 -349.8)" fill="url(#linear-gradient)"/>
    </g>
    <path id="Path_3" data-name="Path 3" d="M975.277,362.4a3.207,3.207,0,1,0,3.207,3.207A3.207,3.207,0,0,0,975.277,362.4Zm0,5.182a1.984,1.984,0,1,1,1.984-1.984A1.985,1.985,0,0,1,975.277,367.582Z" transform="translate(-767.354 -291.361)" fill="#0053ff"/>
    <path id="Path_4" data-name="Path 4" d="M975.277,362.4a3.207,3.207,0,1,0,3.207,3.207A3.207,3.207,0,0,0,975.277,362.4Zm0,5.182a1.984,1.984,0,1,1,1.984-1.984A1.985,1.985,0,0,1,975.277,367.582Z" transform="translate(-767.354 -291.361)" opacity="0.1"/>
    <path id="Path_5" data-name="Path 5" d="M788.34,276.56h12.338v11.411a2.419,2.419,0,0,1-2.419,2.419h-7.5a2.418,2.418,0,0,1-2.419-2.419Z" transform="translate(-592.765 -207.989)" fill="#0053ff"/>
    <path id="Path_6" data-name="Path 6" d="M968.706,352.45v11.411a2.406,2.406,0,0,1-2.406,2.406h1.24a2.406,2.406,0,0,0,2.406-2.406V352.45Z" transform="translate(-763.015 -283.879)" opacity="0.1"/>
    <path id="Path_7" data-name="Path 7" d="M943.206,314.385a.719.719,0,0,0-.546.278c-.161.293.131.625.4.826a5.409,5.409,0,0,1,1.352,1.258,1.563,1.563,0,0,1,.074,1.736c-.479.65-1.625.791-1.736,1.59-.072.513.372.953.823,1.21,1.111.638,2.545.806,3.349,1.8a2.557,2.557,0,0,1,1.821-1.24c.742-.159,1.513-.156,2.267-.27a.784.784,0,0,0,.63-.337c.211-.427-.389-.94-.181-1.367.159-.327.62-.3.957-.432a1.246,1.246,0,0,0,.62-1.488,2.814,2.814,0,0,0-1.062-1.379,11.806,11.806,0,0,0-4.274-1.984,10.98,10.98,0,0,0-2.272-.526A11.172,11.172,0,0,0,943.206,314.385Z" transform="translate(-745.205 -255.011)" fill="#eee"/>
    <line id="Line_1" data-name="Line 1" x1="25.798" y2="80.371" transform="translate(85.616 85.305)" fill="none" stroke="#e0e0e0" stroke-miterlimit="10" stroke-width="8"/>
    <g id="Group_2" data-name="Group 2" transform="translate(48.933 -0.042)" opacity="0.7">
      <path id="Path_8" data-name="Path 8" d="M426.53,250.618c-3.173.184-6,2.843-6,2.843l-1.367-3.391-.112.037c.667-2.922,14.256-63.185.652-68.38-10.451-3.991-21.536-8.93-30.223-8.747V158.737h12.177v-.5h9.64c1.848-1.32-.838-2.233-3.837-2.8a2.748,2.748,0,0,0,.322-.454l15.439-27.7s3.552-5.834,1.268-8.625-5.581,7.1-5.581,7.1l-12.683,18.265s-12.815-13.348-20.946-19.984a14.254,14.254,0,0,0-3.031-2.292c-1.488-1-2.612-1.528-3.168-1.322h-.015a14.211,14.211,0,0,0-3.79-.516h-1.015V117.84a16.275,16.275,0,0,0,10.054-9.525A18.282,18.282,0,0,0,385.761,92.4a1.057,1.057,0,0,0,.427-.149,1.583,1.583,0,0,0,.461-1.488,11.3,11.3,0,0,0-5.735-8.836c-1.285-.7-2.758-1.188-3.706-2.3-.814-.96-1.156-2.3-2.143-3.086-1.171-.93-2.863-.771-4.3-.355a15.642,15.642,0,0,0-4.487,2.118c-1.553,1.064-2.957,2.431-4.745,3.021-1.27.419-2.649.409-3.929.8a6.6,6.6,0,0,0-4.247,4.14A8.62,8.62,0,0,0,353,89.487a18.163,18.163,0,0,0-1.823,4.145l-.288.156.278-.124a18.262,18.262,0,0,0,5.145,18.627,16.26,16.26,0,0,0,7.8,5.537v2.518a19.182,19.182,0,0,0-6.226,2.55h0s-.161.1-.439.288l-.084.057c-1.878,1.275-8.169,5.929-7.955,10.959v.583a19.345,19.345,0,0,0-.518,4.435v36.522a17.929,17.929,0,0,0,3.842,11.12c-5.294,1.186-8.667,2.977-8.667,4.988a1.621,1.621,0,0,1,0,.5c0,3.572,10.667,6.469,23.846,6.469,1.592,0,3.148-.042,4.654-.124l14.883,12.046L363.6,249.055s-7.863,6.087-1.776,8.119,18.52,3.552,18.52,3.552,2.029-3.552-.762-5.073-6.6-.762-6.6-.762l.5-3.044s41.351-35.517,32.726-47.692c-1.65-2.329-3.3-4.733-4.961-7.1l6.509.593L409.25,253.4l.186-.06c-.372,1.1-3,9.362,2.828,7.963,6.241-1.488,17.595-6.779,17.595-6.779S429.7,250.434,426.53,250.618Zm-24.873-95.934-12.177-3.535V140.73l13.234,14.038Z" transform="translate(-344.06 -75.848)" fill="url(#linear-gradient-2)"/>
    </g>
    <circle id="Ellipse_1" data-name="Ellipse 1" cx="17.86" cy="17.86" r="17.86" transform="translate(56.097 6.671)"/>
    <path id="Path_9" data-name="Path 9" d="M494.566,279.631,508.2,294.1a2.662,2.662,0,0,0,4.264-.528l15.1-27.085L523.341,265l-12.4,17.86s-23.285-24.27-26.542-23.069S494.566,279.631,494.566,279.631Z" transform="translate(-400.268 -214.171)" fill="#0053ff"/>
    <line id="Line_2" data-name="Line 2" x1="20.093" y2="52.092" transform="translate(48.159 115.568)" fill="none" stroke="#bdbdbd" stroke-miterlimit="10" stroke-width="5"/>
    <line id="Line_3" data-name="Line 3" x2="20.093" y2="52.092" transform="translate(78.174 115.568)" fill="none" stroke="#bdbdbd" stroke-miterlimit="10" stroke-width="5"/>
    <ellipse id="Ellipse_2" data-name="Ellipse 2" cx="23.317" cy="6.325" rx="23.317" ry="6.325" transform="translate(49.896 109.615)" fill="#b84733"/>
    <ellipse id="Ellipse_3" data-name="Ellipse 3" cx="23.317" cy="6.325" rx="23.317" ry="6.325" transform="translate(49.896 109.119)" fill="#f55f44"/>
    <line id="Line_4" data-name="Line 4" x2="22" y2="6.779" transform="translate(63.4 127.011)" fill="none" stroke="#bdbdbd" stroke-miterlimit="10" stroke-width="5"/>
    <line id="Line_5" data-name="Line 5" x1="22" y2="6.779" transform="translate(61.024 127.011)" fill="none" stroke="#bdbdbd" stroke-miterlimit="10" stroke-width="5"/>
    <path id="Path_10" data-name="Path 10" d="M238.935,182h6.923a13.891,13.891,0,0,1,13.891,13.891V232.6H220.06V200.88A18.875,18.875,0,0,1,238.935,182Z" transform="translate(-165.451 -136.885)" fill="#0053ff"/>
    <path id="Path_11" data-name="Path 11" d="M220.06,386h39.689v21.581H237.672a17.612,17.612,0,0,1-17.612-17.612Z" transform="translate(-165.451 -290.281)" fill="#39447a"/>
    <path id="Path_12" data-name="Path 12" d="M368.98,283.18l24.27,23.069h26.79v-3.473l-23.069-6.7L377.238,271.71S368.276,277.239,368.98,283.18Z" transform="translate(-313.836 -223.167)" opacity="0.05"/>
    <path id="Path_13" data-name="Path 13" d="M368.98,281.18l24.27,23.069h26.79v-3.473l-23.069-6.7L377.238,269.71S368.276,275.239,368.98,281.18Z" transform="translate(-313.836 -221.663)" fill="#0053ff"/>
    <path id="Path_14" data-name="Path 14" d="M574.94,394.91s12.9.992,9.426,3.473H574.94Z" transform="translate(-468.735 -315.806)" fill="#ffb8b8"/>
    <path id="Path_15" data-name="Path 15" d="M642.94,258.385s3.225-9.674,5.457-6.946-1.24,8.434-1.24,8.434Z" transform="translate(-519.867 -207.56)" fill="#ffb8b8"/>
    <path id="Path_16" data-name="Path 16" d="M220.06,386.02v1.156l39.689.084v-1.24Z" transform="translate(-165.451 -290.296)" opacity="0.05"/>
    <path id="Path_17" data-name="Path 17" d="M482.176,488.662l26.691,2.433,1.454,54.508,9.558-3.111s14.3-61.766.665-66.976-28.366-12.063-37.162-6.474S482.176,488.662,482.176,488.662Z" transform="translate(-396.694 -369.983)" fill="#39447a"/>
    <path id="Path_18" data-name="Path 18" d="M497.94,486.91s14.635,7.442,16.62,15.876" transform="translate(-410.836 -384.985)" opacity="0.1"/>
    <path id="Path_19" data-name="Path 19" d="M427.421,500.529,448.257,517.4,424.94,554.854l9.674,2.729s40.434-34.728,32-46.635-16.868-25.8-27.286-26.046S427.421,500.529,427.421,500.529Z" transform="translate(-355.944 -383.472)" fill="#39447a"/>
    <path id="Path_20" data-name="Path 20" d="M420.06,251.02l5.209,8.93,1.24-2.481Z" transform="translate(-315.84 -188.784)" opacity="0.05"/>
    <path id="Path_21" data-name="Path 21" d="M412.825,766.91s-7.69,5.953-1.736,7.938,18.108,3.473,18.108,3.473,1.984-3.473-.744-4.961-6.45-.744-6.45-.744l.5-2.977Z" transform="translate(-343.829 -595.529)" fill="#333"/>
    <path id="Path_22" data-name="Path 22" d="M602.934,773.973s-3.379,9.367,2.729,7.9,17.205-6.631,17.205-6.631-.151-4-3.254-3.818-5.867,2.778-5.867,2.778l-1.337-3.317Z" transform="translate(-489.084 -598.521)" fill="#333"/>
    <rect id="Rectangle_1" data-name="Rectangle 1" width="9.922" height="14.883" rx="4.961" transform="translate(69.492 36.438)" fill="#ffb8b8"/>
    <path id="Path_23" data-name="Path 23" d="M431.9,224.91a4.961,4.961,0,0,0-4.961,4.961v1.687a15.876,15.876,0,0,0,9.922,0v-1.687A4.961,4.961,0,0,0,431.9,224.91Z" transform="translate(-357.448 -187.976)" opacity="0.05"/>
    <circle id="Ellipse_4" data-name="Ellipse 4" cx="15.876" cy="15.876" r="15.876" transform="translate(58.578 12.128)" fill="#ffb8b8"/>
    <path id="Path_24" data-name="Path 24" d="M379.932,132.544s3.969,1.022,6.2-3.488,3.969-6.97,13.147-4.306,11.024,2.992,11.465.471c.3-1.722-2.962-5.906-5.06-8.382a5.864,5.864,0,0,0-4.465-1.93H390.847l-6.2,2.87-4.713,4.1-.992,5.537Z" transform="translate(-321.355 -105.263)" opacity="0.05"/>
    <path id="Path_25" data-name="Path 25" d="M379.932,130.544s3.969,1.022,6.2-3.488,3.969-6.97,13.147-4.306,11.024,2.992,11.465.471c.3-1.722-2.962-5.906-5.06-8.382a5.864,5.864,0,0,0-4.465-1.93H390.847l-6.2,2.87-4.713,4.1-.992,5.537Z" transform="translate(-321.355 -103.759)"/>
    <ellipse id="Ellipse_5" data-name="Ellipse 5" cx="1.612" cy="3.225" rx="1.612" ry="3.225" transform="translate(58.578 23.539)" fill="#ffb8b8"/>
    <path id="Path_26" data-name="Path 26" d="M377.308,100.627c-.367-2.076-.729-4.257-.06-6.256a6.45,6.45,0,0,1,4.152-4.048c1.24-.384,2.6-.377,3.842-.786,1.749-.576,3.121-1.913,4.641-2.954a15.3,15.3,0,0,1,4.388-2.071c1.4-.407,3.059-.563,4.2.347.962.767,1.3,2.079,2.094,3.016.928,1.091,2.366,1.565,3.624,2.252a11.048,11.048,0,0,1,5.6,8.65,1.519,1.519,0,0,1-.451,1.454,1.608,1.608,0,0,1-.905.166c-6.345-.092-12.7-.181-19.016-.764a45.666,45.666,0,0,0-5.9-.335,19.311,19.311,0,0,0-8.682,2.453" transform="translate(-318.272 -82.161)"/>
    <g id="Group_3" data-name="Group 3" transform="translate(0.028 100.266)" opacity="0.7">
      <path id="Path_27" data-name="Path 27" d="M190.063,508.483a8.434,8.434,0,0,0-3.341-8.93,23.079,23.079,0,0,1-2.233-1.449,8.123,8.123,0,0,1-2.245-3.766c-1.121-3.369-1.476-7.147-3.443-10.19-1.791-2.771-5.276-3.582-8.369-3.857a6.632,6.632,0,0,0-3.339.313c-1.724.779-2.545,2.815-2.622,4.713a53.231,53.231,0,0,0,.538,5.641c.124,1.885-.213,3.969-1.607,5.244s-3.386,1.431-5.234,1.687a34.654,34.654,0,0,0-7.092,1.761c-1.927.7-4.073,1.967-4.165,4.016-.074,1.674,1.278,3.011,2.292,4.344a11.108,11.108,0,0,1,2.2,8.841c-.655,3.118-2.845,5.795-3.245,8.957a3.9,3.9,0,0,0,.318,2.367,4.33,4.33,0,0,0,1.2,1.268c1.191.92,2.52,1.659,3.646,2.657,2.349,2.081,3.622,5.1,4.6,8.082.094.288.179.578.268.866h-2.309a8.565,8.565,0,0,0-8.541,8.541h0a8.565,8.565,0,0,0,8.541,8.541h23.069a8.565,8.565,0,0,0,8.541-8.541h0a8.565,8.565,0,0,0-8.563-8.555h-6.316c1.488-2,3.056-3.882,5.363-4.654s5.1-.318,6.908-1.927a5.412,5.412,0,0,0,1.568-3.106,9.25,9.25,0,0,0-1.012-6.142c-.727-1.3-1.788-2.481-2.019-3.944a5.792,5.792,0,0,1,.871-3.642C186.037,514.444,189.123,511.981,190.063,508.483Z" transform="translate(-146.908 -480.223)" fill="url(#linear-gradient-3)"/>
    </g>
    <path id="Path_28" data-name="Path 28" d="M173.446,487.752a6.321,6.321,0,0,0-3.18.3c-1.64.744-2.424,2.681-2.5,4.48a51.1,51.1,0,0,0,.511,5.373,6.153,6.153,0,0,1-1.531,4.993c-1.327,1.218-3.225,1.362-4.983,1.6a33,33,0,0,0-6.755,1.677c-1.836.667-3.88,1.875-3.969,3.825-.069,1.6,1.215,2.868,2.183,4.135a10.58,10.58,0,0,1,2.1,8.419c-.625,2.977-2.711,5.519-3.088,8.531a3.7,3.7,0,0,0,.3,2.252,4.123,4.123,0,0,0,1.141,1.208c1.134.876,2.4,1.58,3.473,2.53,2.233,1.985,3.448,4.857,4.381,7.69a62.333,62.333,0,0,1,2.151,8.543c1.927-1.24,4.418-1.22,6.474-2.233,4.378-2.146,5.852-8.367,10.476-9.922,2.188-.732,4.854-.3,6.579-1.836a5.11,5.11,0,0,0,1.488-2.957,8.808,8.808,0,0,0-.955-5.837c-.692-1.24-1.7-2.357-1.925-3.756a5.607,5.607,0,0,1,.829-3.473c1.662-3.021,4.6-5.365,5.5-8.7a8.03,8.03,0,0,0-3.183-8.513,23.554,23.554,0,0,1-2.133-1.379,7.752,7.752,0,0,1-2.138-3.585c-1.069-3.207-1.406-6.807-3.279-9.7C179.71,488.786,176.391,488.012,173.446,487.752Z" transform="translate(-149.986 -385.569)" fill="#4db6ac"/>
    <path id="Path_29" data-name="Path 29" d="M221.509,488.39s4.068,54.476-6.509,63.84" transform="translate(-198.081 -386.098)" fill="none" stroke="#535461" stroke-miterlimit="10" stroke-width="1" opacity="0.6"/>
    <rect id="Rectangle_2" data-name="Rectangle 2" width="38.223" height="16.265" rx="8.133" transform="translate(1.472 160.033)" fill="#0053ff"/>
    <path id="Path_30" data-name="Path 30" d="M151.09,573.42s10.4-1.213,23.089,6.509" transform="translate(-150.025 -449.983)" fill="none" stroke="#535461" stroke-miterlimit="10" stroke-width="1" opacity="0.6"/>
    <path id="Path_31" data-name="Path 31" d="M243.35,591.573a26.853,26.853,0,0,1,18.18-11.383" transform="translate(-219.399 -455.126)" fill="none" stroke="#535461" stroke-miterlimit="10" stroke-width="1" opacity="0.6"/>
    <path id="Path_32" data-name="Path 32" d="M155.19,660.794s14.41-2.443,21.03,1.625" transform="translate(-153.108 -515.189)" fill="none" stroke="#535461" stroke-miterlimit="10" stroke-width="1" opacity="0.6"/>
    <path id="Path_33" data-name="Path 33" d="M236.66,686.8a24.09,24.09,0,0,1,16.03-.643" transform="translate(-214.368 -533.99)" fill="none" stroke="#535461" stroke-miterlimit="10" stroke-width="1" opacity="0.6"/>
    <path id="Path_34" data-name="Path 34" d="M727.472,484.824a.372.372,0,1,0-.372-.372A.372.372,0,0,0,727.472,484.824Z" transform="translate(-583.15 -382.857)" fill="url(#linear-gradient)"/>
    <line id="Line_6" data-name="Line 6" x2="25.798" y2="91.804" transform="translate(198.919 85.305)" fill="none" stroke="#e0e0e0" stroke-miterlimit="10" stroke-width="8"/>
    <rect id="Rectangle_3" data-name="Rectangle 3" width="139.312" height="5.428" transform="translate(85.509 82.616)" fill="#e0e0e0"/>
    <rect id="Rectangle_4" data-name="Rectangle 4" width="22.821" height="3.225" rx="1.612" transform="translate(119.848 81.336)" fill="#535461"/>
    <g id="Group_4" data-name="Group 4" transform="translate(133.739 45.383)" opacity="0.7">
      <rect id="Rectangle_5" data-name="Rectangle 5" width="56.721" height="39.218" rx="19.609" fill="url(#linear-gradient)"/>
    </g>
    <rect id="Rectangle_6" data-name="Rectangle 6" width="53.732" height="38.494" rx="19.247" transform="translate(134.749 46.105)" fill="#3e3f49"/>
    <rect id="Rectangle_7" data-name="Rectangle 7" width="53.732" height="38.494" rx="19.247" transform="translate(135.493 46.105)" fill="#535461"/>
    <circle id="Ellipse_6" data-name="Ellipse 6" cx="1.736" cy="1.736" r="1.736" transform="translate(163.134 63.352)" fill="#e0e0e0"/>
  </g>
</svg>
